%TF.GenerationSoftware,KiCad,Pcbnew,10.0.5*%
%TF.CreationDate,2026-07-30T21:48:50+08:00*%
%TF.ProjectId,board,626f6172-642e-46b6-9963-61645f706362,rev?*%
%TF.SameCoordinates,Original*%
%TF.FileFunction,Legend,Top*%
%TF.FilePolarity,Positive*%
%FSLAX46Y46*%
G04 Gerber Fmt 4.6, Leading zero omitted, Abs format (unit mm)*
G04 Created by KiCad (PCBNEW 10.0.5) date 2026-07-30 21:48:50*
%MOMM*%
%LPD*%
G01*
G04 APERTURE LIST*
%ADD10C,0.171500*%
%ADD11C,0.254000*%
G04 APERTURE END LIST*
D10*
X111771333Y-82711177D02*
X111771333Y-83282605D01*
X111771333Y-83282605D02*
X111738666Y-83396891D01*
X111738666Y-83396891D02*
X111673333Y-83473082D01*
X111673333Y-83473082D02*
X111575333Y-83511177D01*
X111575333Y-83511177D02*
X111510000Y-83511177D01*
X112457333Y-83511177D02*
X112065333Y-83511177D01*
X112261333Y-83511177D02*
X112261333Y-82711177D01*
X112261333Y-82711177D02*
X112196000Y-82825462D01*
X112196000Y-82825462D02*
X112130667Y-82901653D01*
X112130667Y-82901653D02*
X112065333Y-82939748D01*
X111771333Y-109251177D02*
X111771333Y-109822605D01*
X111771333Y-109822605D02*
X111738666Y-109936891D01*
X111738666Y-109936891D02*
X111673333Y-110013082D01*
X111673333Y-110013082D02*
X111575333Y-110051177D01*
X111575333Y-110051177D02*
X111510000Y-110051177D01*
X112065333Y-109327367D02*
X112098000Y-109289272D01*
X112098000Y-109289272D02*
X112163333Y-109251177D01*
X112163333Y-109251177D02*
X112326667Y-109251177D01*
X112326667Y-109251177D02*
X112392000Y-109289272D01*
X112392000Y-109289272D02*
X112424667Y-109327367D01*
X112424667Y-109327367D02*
X112457333Y-109403558D01*
X112457333Y-109403558D02*
X112457333Y-109479748D01*
X112457333Y-109479748D02*
X112424667Y-109594034D01*
X112424667Y-109594034D02*
X112032667Y-110051177D01*
X112032667Y-110051177D02*
X112457333Y-110051177D01*
X119885667Y-123784986D02*
X119853000Y-123823082D01*
X119853000Y-123823082D02*
X119755000Y-123861177D01*
X119755000Y-123861177D02*
X119689667Y-123861177D01*
X119689667Y-123861177D02*
X119591667Y-123823082D01*
X119591667Y-123823082D02*
X119526334Y-123746891D01*
X119526334Y-123746891D02*
X119493667Y-123670701D01*
X119493667Y-123670701D02*
X119461000Y-123518320D01*
X119461000Y-123518320D02*
X119461000Y-123404034D01*
X119461000Y-123404034D02*
X119493667Y-123251653D01*
X119493667Y-123251653D02*
X119526334Y-123175462D01*
X119526334Y-123175462D02*
X119591667Y-123099272D01*
X119591667Y-123099272D02*
X119689667Y-123061177D01*
X119689667Y-123061177D02*
X119755000Y-123061177D01*
X119755000Y-123061177D02*
X119853000Y-123099272D01*
X119853000Y-123099272D02*
X119885667Y-123137367D01*
X120114334Y-123061177D02*
X120539000Y-123061177D01*
X120539000Y-123061177D02*
X120310334Y-123365939D01*
X120310334Y-123365939D02*
X120408334Y-123365939D01*
X120408334Y-123365939D02*
X120473667Y-123404034D01*
X120473667Y-123404034D02*
X120506334Y-123442129D01*
X120506334Y-123442129D02*
X120539000Y-123518320D01*
X120539000Y-123518320D02*
X120539000Y-123708796D01*
X120539000Y-123708796D02*
X120506334Y-123784986D01*
X120506334Y-123784986D02*
X120473667Y-123823082D01*
X120473667Y-123823082D02*
X120408334Y-123861177D01*
X120408334Y-123861177D02*
X120212334Y-123861177D01*
X120212334Y-123861177D02*
X120147000Y-123823082D01*
X120147000Y-123823082D02*
X120114334Y-123784986D01*
X125885667Y-89861177D02*
X125657000Y-89480224D01*
X125493667Y-89861177D02*
X125493667Y-89061177D01*
X125493667Y-89061177D02*
X125755000Y-89061177D01*
X125755000Y-89061177D02*
X125820334Y-89099272D01*
X125820334Y-89099272D02*
X125853000Y-89137367D01*
X125853000Y-89137367D02*
X125885667Y-89213558D01*
X125885667Y-89213558D02*
X125885667Y-89327843D01*
X125885667Y-89327843D02*
X125853000Y-89404034D01*
X125853000Y-89404034D02*
X125820334Y-89442129D01*
X125820334Y-89442129D02*
X125755000Y-89480224D01*
X125755000Y-89480224D02*
X125493667Y-89480224D01*
X126539000Y-89861177D02*
X126147000Y-89861177D01*
X126343000Y-89861177D02*
X126343000Y-89061177D01*
X126343000Y-89061177D02*
X126277667Y-89175462D01*
X126277667Y-89175462D02*
X126212334Y-89251653D01*
X126212334Y-89251653D02*
X126147000Y-89289748D01*
X125885667Y-97861177D02*
X125657000Y-97480224D01*
X125493667Y-97861177D02*
X125493667Y-97061177D01*
X125493667Y-97061177D02*
X125755000Y-97061177D01*
X125755000Y-97061177D02*
X125820334Y-97099272D01*
X125820334Y-97099272D02*
X125853000Y-97137367D01*
X125853000Y-97137367D02*
X125885667Y-97213558D01*
X125885667Y-97213558D02*
X125885667Y-97327843D01*
X125885667Y-97327843D02*
X125853000Y-97404034D01*
X125853000Y-97404034D02*
X125820334Y-97442129D01*
X125820334Y-97442129D02*
X125755000Y-97480224D01*
X125755000Y-97480224D02*
X125493667Y-97480224D01*
X126147000Y-97137367D02*
X126179667Y-97099272D01*
X126179667Y-97099272D02*
X126245000Y-97061177D01*
X126245000Y-97061177D02*
X126408334Y-97061177D01*
X126408334Y-97061177D02*
X126473667Y-97099272D01*
X126473667Y-97099272D02*
X126506334Y-97137367D01*
X126506334Y-97137367D02*
X126539000Y-97213558D01*
X126539000Y-97213558D02*
X126539000Y-97289748D01*
X126539000Y-97289748D02*
X126506334Y-97404034D01*
X126506334Y-97404034D02*
X126114334Y-97861177D01*
X126114334Y-97861177D02*
X126539000Y-97861177D01*
X129477333Y-75911177D02*
X129477333Y-76558796D01*
X129477333Y-76558796D02*
X129510000Y-76634986D01*
X129510000Y-76634986D02*
X129542666Y-76673082D01*
X129542666Y-76673082D02*
X129608000Y-76711177D01*
X129608000Y-76711177D02*
X129738666Y-76711177D01*
X129738666Y-76711177D02*
X129804000Y-76673082D01*
X129804000Y-76673082D02*
X129836666Y-76634986D01*
X129836666Y-76634986D02*
X129869333Y-76558796D01*
X129869333Y-76558796D02*
X129869333Y-75911177D01*
X130555333Y-76711177D02*
X130163333Y-76711177D01*
X130359333Y-76711177D02*
X130359333Y-75911177D01*
X130359333Y-75911177D02*
X130294000Y-76025462D01*
X130294000Y-76025462D02*
X130228667Y-76101653D01*
X130228667Y-76101653D02*
X130163333Y-76139748D01*
X133885667Y-115861177D02*
X133657000Y-115480224D01*
X133493667Y-115861177D02*
X133493667Y-115061177D01*
X133493667Y-115061177D02*
X133755000Y-115061177D01*
X133755000Y-115061177D02*
X133820334Y-115099272D01*
X133820334Y-115099272D02*
X133853000Y-115137367D01*
X133853000Y-115137367D02*
X133885667Y-115213558D01*
X133885667Y-115213558D02*
X133885667Y-115327843D01*
X133885667Y-115327843D02*
X133853000Y-115404034D01*
X133853000Y-115404034D02*
X133820334Y-115442129D01*
X133820334Y-115442129D02*
X133755000Y-115480224D01*
X133755000Y-115480224D02*
X133493667Y-115480224D01*
X134114334Y-115061177D02*
X134539000Y-115061177D01*
X134539000Y-115061177D02*
X134310334Y-115365939D01*
X134310334Y-115365939D02*
X134408334Y-115365939D01*
X134408334Y-115365939D02*
X134473667Y-115404034D01*
X134473667Y-115404034D02*
X134506334Y-115442129D01*
X134506334Y-115442129D02*
X134539000Y-115518320D01*
X134539000Y-115518320D02*
X134539000Y-115708796D01*
X134539000Y-115708796D02*
X134506334Y-115784986D01*
X134506334Y-115784986D02*
X134473667Y-115823082D01*
X134473667Y-115823082D02*
X134408334Y-115861177D01*
X134408334Y-115861177D02*
X134212334Y-115861177D01*
X134212334Y-115861177D02*
X134147000Y-115823082D01*
X134147000Y-115823082D02*
X134114334Y-115784986D01*
X133885667Y-125861177D02*
X133657000Y-125480224D01*
X133493667Y-125861177D02*
X133493667Y-125061177D01*
X133493667Y-125061177D02*
X133755000Y-125061177D01*
X133755000Y-125061177D02*
X133820334Y-125099272D01*
X133820334Y-125099272D02*
X133853000Y-125137367D01*
X133853000Y-125137367D02*
X133885667Y-125213558D01*
X133885667Y-125213558D02*
X133885667Y-125327843D01*
X133885667Y-125327843D02*
X133853000Y-125404034D01*
X133853000Y-125404034D02*
X133820334Y-125442129D01*
X133820334Y-125442129D02*
X133755000Y-125480224D01*
X133755000Y-125480224D02*
X133493667Y-125480224D01*
X134473667Y-125327843D02*
X134473667Y-125861177D01*
X134310334Y-125023082D02*
X134147000Y-125594510D01*
X134147000Y-125594510D02*
X134571667Y-125594510D01*
X147885667Y-79784986D02*
X147853000Y-79823082D01*
X147853000Y-79823082D02*
X147755000Y-79861177D01*
X147755000Y-79861177D02*
X147689667Y-79861177D01*
X147689667Y-79861177D02*
X147591667Y-79823082D01*
X147591667Y-79823082D02*
X147526334Y-79746891D01*
X147526334Y-79746891D02*
X147493667Y-79670701D01*
X147493667Y-79670701D02*
X147461000Y-79518320D01*
X147461000Y-79518320D02*
X147461000Y-79404034D01*
X147461000Y-79404034D02*
X147493667Y-79251653D01*
X147493667Y-79251653D02*
X147526334Y-79175462D01*
X147526334Y-79175462D02*
X147591667Y-79099272D01*
X147591667Y-79099272D02*
X147689667Y-79061177D01*
X147689667Y-79061177D02*
X147755000Y-79061177D01*
X147755000Y-79061177D02*
X147853000Y-79099272D01*
X147853000Y-79099272D02*
X147885667Y-79137367D01*
X148147000Y-79137367D02*
X148179667Y-79099272D01*
X148179667Y-79099272D02*
X148245000Y-79061177D01*
X148245000Y-79061177D02*
X148408334Y-79061177D01*
X148408334Y-79061177D02*
X148473667Y-79099272D01*
X148473667Y-79099272D02*
X148506334Y-79137367D01*
X148506334Y-79137367D02*
X148539000Y-79213558D01*
X148539000Y-79213558D02*
X148539000Y-79289748D01*
X148539000Y-79289748D02*
X148506334Y-79404034D01*
X148506334Y-79404034D02*
X148114334Y-79861177D01*
X148114334Y-79861177D02*
X148539000Y-79861177D01*
X147477333Y-85901177D02*
X147477333Y-86548796D01*
X147477333Y-86548796D02*
X147510000Y-86624986D01*
X147510000Y-86624986D02*
X147542666Y-86663082D01*
X147542666Y-86663082D02*
X147608000Y-86701177D01*
X147608000Y-86701177D02*
X147738666Y-86701177D01*
X147738666Y-86701177D02*
X147804000Y-86663082D01*
X147804000Y-86663082D02*
X147836666Y-86624986D01*
X147836666Y-86624986D02*
X147869333Y-86548796D01*
X147869333Y-86548796D02*
X147869333Y-85901177D01*
X148163333Y-85977367D02*
X148196000Y-85939272D01*
X148196000Y-85939272D02*
X148261333Y-85901177D01*
X148261333Y-85901177D02*
X148424667Y-85901177D01*
X148424667Y-85901177D02*
X148490000Y-85939272D01*
X148490000Y-85939272D02*
X148522667Y-85977367D01*
X148522667Y-85977367D02*
X148555333Y-86053558D01*
X148555333Y-86053558D02*
X148555333Y-86129748D01*
X148555333Y-86129748D02*
X148522667Y-86244034D01*
X148522667Y-86244034D02*
X148130667Y-86701177D01*
X148130667Y-86701177D02*
X148555333Y-86701177D01*
X149934666Y-119937367D02*
X149869333Y-119899272D01*
X149869333Y-119899272D02*
X149804000Y-119823082D01*
X149804000Y-119823082D02*
X149706000Y-119708796D01*
X149706000Y-119708796D02*
X149640666Y-119670701D01*
X149640666Y-119670701D02*
X149575333Y-119670701D01*
X149608000Y-119861177D02*
X149542666Y-119823082D01*
X149542666Y-119823082D02*
X149477333Y-119746891D01*
X149477333Y-119746891D02*
X149444666Y-119594510D01*
X149444666Y-119594510D02*
X149444666Y-119327843D01*
X149444666Y-119327843D02*
X149477333Y-119175462D01*
X149477333Y-119175462D02*
X149542666Y-119099272D01*
X149542666Y-119099272D02*
X149608000Y-119061177D01*
X149608000Y-119061177D02*
X149738666Y-119061177D01*
X149738666Y-119061177D02*
X149804000Y-119099272D01*
X149804000Y-119099272D02*
X149869333Y-119175462D01*
X149869333Y-119175462D02*
X149902000Y-119327843D01*
X149902000Y-119327843D02*
X149902000Y-119594510D01*
X149902000Y-119594510D02*
X149869333Y-119746891D01*
X149869333Y-119746891D02*
X149804000Y-119823082D01*
X149804000Y-119823082D02*
X149738666Y-119861177D01*
X149738666Y-119861177D02*
X149608000Y-119861177D01*
X150555333Y-119861177D02*
X150163333Y-119861177D01*
X150359333Y-119861177D02*
X150359333Y-119061177D01*
X150359333Y-119061177D02*
X150294000Y-119175462D01*
X150294000Y-119175462D02*
X150228667Y-119251653D01*
X150228667Y-119251653D02*
X150163333Y-119289748D01*
X155885667Y-79784986D02*
X155853000Y-79823082D01*
X155853000Y-79823082D02*
X155755000Y-79861177D01*
X155755000Y-79861177D02*
X155689667Y-79861177D01*
X155689667Y-79861177D02*
X155591667Y-79823082D01*
X155591667Y-79823082D02*
X155526334Y-79746891D01*
X155526334Y-79746891D02*
X155493667Y-79670701D01*
X155493667Y-79670701D02*
X155461000Y-79518320D01*
X155461000Y-79518320D02*
X155461000Y-79404034D01*
X155461000Y-79404034D02*
X155493667Y-79251653D01*
X155493667Y-79251653D02*
X155526334Y-79175462D01*
X155526334Y-79175462D02*
X155591667Y-79099272D01*
X155591667Y-79099272D02*
X155689667Y-79061177D01*
X155689667Y-79061177D02*
X155755000Y-79061177D01*
X155755000Y-79061177D02*
X155853000Y-79099272D01*
X155853000Y-79099272D02*
X155885667Y-79137367D01*
X156539000Y-79861177D02*
X156147000Y-79861177D01*
X156343000Y-79861177D02*
X156343000Y-79061177D01*
X156343000Y-79061177D02*
X156277667Y-79175462D01*
X156277667Y-79175462D02*
X156212334Y-79251653D01*
X156212334Y-79251653D02*
X156147000Y-79289748D01*
X163493667Y-107861177D02*
X163493667Y-107061177D01*
X163493667Y-107061177D02*
X163657000Y-107061177D01*
X163657000Y-107061177D02*
X163755000Y-107099272D01*
X163755000Y-107099272D02*
X163820334Y-107175462D01*
X163820334Y-107175462D02*
X163853000Y-107251653D01*
X163853000Y-107251653D02*
X163885667Y-107404034D01*
X163885667Y-107404034D02*
X163885667Y-107518320D01*
X163885667Y-107518320D02*
X163853000Y-107670701D01*
X163853000Y-107670701D02*
X163820334Y-107746891D01*
X163820334Y-107746891D02*
X163755000Y-107823082D01*
X163755000Y-107823082D02*
X163657000Y-107861177D01*
X163657000Y-107861177D02*
X163493667Y-107861177D01*
X164147000Y-107137367D02*
X164179667Y-107099272D01*
X164179667Y-107099272D02*
X164245000Y-107061177D01*
X164245000Y-107061177D02*
X164408334Y-107061177D01*
X164408334Y-107061177D02*
X164473667Y-107099272D01*
X164473667Y-107099272D02*
X164506334Y-107137367D01*
X164506334Y-107137367D02*
X164539000Y-107213558D01*
X164539000Y-107213558D02*
X164539000Y-107289748D01*
X164539000Y-107289748D02*
X164506334Y-107404034D01*
X164506334Y-107404034D02*
X164114334Y-107861177D01*
X164114334Y-107861177D02*
X164539000Y-107861177D01*
X165477333Y-79061177D02*
X165869333Y-79061177D01*
X165673333Y-79861177D02*
X165673333Y-79061177D01*
X166032667Y-79061177D02*
X166457333Y-79061177D01*
X166457333Y-79061177D02*
X166228667Y-79365939D01*
X166228667Y-79365939D02*
X166326667Y-79365939D01*
X166326667Y-79365939D02*
X166392000Y-79404034D01*
X166392000Y-79404034D02*
X166424667Y-79442129D01*
X166424667Y-79442129D02*
X166457333Y-79518320D01*
X166457333Y-79518320D02*
X166457333Y-79708796D01*
X166457333Y-79708796D02*
X166424667Y-79784986D01*
X166424667Y-79784986D02*
X166392000Y-79823082D01*
X166392000Y-79823082D02*
X166326667Y-79861177D01*
X166326667Y-79861177D02*
X166130667Y-79861177D01*
X166130667Y-79861177D02*
X166065333Y-79823082D01*
X166065333Y-79823082D02*
X166032667Y-79784986D01*
X165493667Y-119861177D02*
X165493667Y-119061177D01*
X165493667Y-119061177D02*
X165657000Y-119061177D01*
X165657000Y-119061177D02*
X165755000Y-119099272D01*
X165755000Y-119099272D02*
X165820334Y-119175462D01*
X165820334Y-119175462D02*
X165853000Y-119251653D01*
X165853000Y-119251653D02*
X165885667Y-119404034D01*
X165885667Y-119404034D02*
X165885667Y-119518320D01*
X165885667Y-119518320D02*
X165853000Y-119670701D01*
X165853000Y-119670701D02*
X165820334Y-119746891D01*
X165820334Y-119746891D02*
X165755000Y-119823082D01*
X165755000Y-119823082D02*
X165657000Y-119861177D01*
X165657000Y-119861177D02*
X165493667Y-119861177D01*
X166539000Y-119861177D02*
X166147000Y-119861177D01*
X166343000Y-119861177D02*
X166343000Y-119061177D01*
X166343000Y-119061177D02*
X166277667Y-119175462D01*
X166277667Y-119175462D02*
X166212334Y-119251653D01*
X166212334Y-119251653D02*
X166147000Y-119289748D01*
X175477333Y-107061177D02*
X175869333Y-107061177D01*
X175673333Y-107861177D02*
X175673333Y-107061177D01*
X176065333Y-107137367D02*
X176098000Y-107099272D01*
X176098000Y-107099272D02*
X176163333Y-107061177D01*
X176163333Y-107061177D02*
X176326667Y-107061177D01*
X176326667Y-107061177D02*
X176392000Y-107099272D01*
X176392000Y-107099272D02*
X176424667Y-107137367D01*
X176424667Y-107137367D02*
X176457333Y-107213558D01*
X176457333Y-107213558D02*
X176457333Y-107289748D01*
X176457333Y-107289748D02*
X176424667Y-107404034D01*
X176424667Y-107404034D02*
X176032667Y-107861177D01*
X176032667Y-107861177D02*
X176457333Y-107861177D01*
X177477333Y-119061177D02*
X177869333Y-119061177D01*
X177673333Y-119861177D02*
X177673333Y-119061177D01*
X178457333Y-119861177D02*
X178065333Y-119861177D01*
X178261333Y-119861177D02*
X178261333Y-119061177D01*
X178261333Y-119061177D02*
X178196000Y-119175462D01*
X178196000Y-119175462D02*
X178130667Y-119251653D01*
X178130667Y-119251653D02*
X178065333Y-119289748D01*
%TO.C,J2*%
D11*
X110730000Y-110420000D02*
X113270000Y-110420000D01*
X110730000Y-121580000D02*
X110730000Y-110420000D01*
X113270000Y-110420000D02*
X113270000Y-121580000D01*
X113270000Y-121580000D02*
X110730000Y-121580000D01*
%TO.C,C1*%
X151507500Y-81737500D02*
X151964500Y-80008500D01*
X151760000Y-83507500D02*
X151507500Y-81737500D01*
X151964500Y-80008500D02*
X153058500Y-78594500D01*
X152681500Y-85039500D02*
X151760000Y-83507500D01*
X153058500Y-78594500D02*
X154617000Y-77718000D01*
X154127500Y-86092000D02*
X152681500Y-85039500D01*
X154617000Y-77718000D02*
X156394000Y-77517500D01*
X155868500Y-86498000D02*
X154127500Y-86092000D01*
X156394000Y-77517500D02*
X158108500Y-78024500D01*
X157630500Y-86194000D02*
X155868500Y-86498000D01*
X158108500Y-78024500D02*
X159490000Y-79159500D01*
X159135000Y-85228000D02*
X157630500Y-86194000D01*
X159490000Y-79159500D02*
X160321000Y-80742500D01*
X160145000Y-83752500D02*
X159135000Y-85228000D01*
X160321000Y-80742500D02*
X160469500Y-82524500D01*
X160500000Y-82000000D02*
X160145000Y-83752500D01*
%TO.C,D1*%
X161150000Y-120700000D02*
X170850000Y-120700000D01*
X161150000Y-123300000D02*
X161150000Y-120700000D01*
X170850000Y-120700000D02*
X170850000Y-123300000D01*
X170850000Y-123300000D02*
X161150000Y-123300000D01*
%TO.C,U1*%
X126500000Y-80200000D02*
X133500000Y-80200000D01*
X126500000Y-83800000D02*
X126500000Y-80200000D01*
X133500000Y-80200000D02*
X133500000Y-83800000D01*
X133500000Y-83800000D02*
X126500000Y-83800000D01*
%TO.C,C3*%
X118500000Y-123800000D02*
X121500000Y-123800000D01*
X118500000Y-128200000D02*
X118500000Y-123800000D01*
X121500000Y-123800000D02*
X121500000Y-128200000D01*
X121500000Y-128200000D02*
X118500000Y-128200000D01*
%TO.C,C2*%
X146500000Y-79800000D02*
X149500000Y-79800000D01*
X146500000Y-84200000D02*
X146500000Y-79800000D01*
X149500000Y-79800000D02*
X149500000Y-84200000D01*
X149500000Y-84200000D02*
X146500000Y-84200000D01*
%TO.C,D2*%
X160420000Y-108700000D02*
X167580000Y-108700000D01*
X160420000Y-111300000D02*
X160420000Y-108700000D01*
X167580000Y-108700000D02*
X167580000Y-111300000D01*
X167580000Y-111300000D02*
X160420000Y-111300000D01*
%TO.C,Q1*%
X146200000Y-120000000D02*
X153800000Y-120000000D01*
X146200000Y-124000000D02*
X146200000Y-120000000D01*
X153800000Y-120000000D02*
X153800000Y-124000000D01*
X153800000Y-124000000D02*
X146200000Y-124000000D01*
%TO.C,J1*%
X110730000Y-83880000D02*
X113270000Y-83880000D01*
X110730000Y-100120000D02*
X110730000Y-83880000D01*
X113270000Y-83880000D02*
X113270000Y-100120000D01*
X113270000Y-100120000D02*
X110730000Y-100120000D01*
%TO.C,T2*%
X171500000Y-106000000D02*
X180500000Y-106000000D01*
X171500000Y-114000000D02*
X171500000Y-106000000D01*
X180500000Y-106000000D02*
X180500000Y-114000000D01*
X180500000Y-114000000D02*
X171500000Y-114000000D01*
%TO.C,T1*%
X173500000Y-118000000D02*
X182500000Y-118000000D01*
X173500000Y-126000000D02*
X173500000Y-118000000D01*
X182500000Y-118000000D02*
X182500000Y-126000000D01*
X182500000Y-126000000D02*
X173500000Y-126000000D01*
%TO.C,T3*%
X161500000Y-78000000D02*
X170500000Y-78000000D01*
X161500000Y-86000000D02*
X161500000Y-78000000D01*
X170500000Y-78000000D02*
X170500000Y-86000000D01*
X170500000Y-86000000D02*
X161500000Y-86000000D01*
%TO.C,U2*%
X141500000Y-99000000D02*
X141500000Y-101500000D01*
X143000000Y-87000000D02*
X153000000Y-87000000D01*
X143000000Y-111000000D02*
X143000000Y-87000000D01*
X153000000Y-87000000D02*
X153000000Y-111000000D01*
X153000000Y-111000000D02*
X143000000Y-111000000D01*
%TO.C,R3*%
X130420000Y-116700000D02*
X137580000Y-116700000D01*
X130420000Y-119300000D02*
X130420000Y-116700000D01*
X137580000Y-116700000D02*
X137580000Y-119300000D01*
X137580000Y-119300000D02*
X130420000Y-119300000D01*
%TO.C,R2*%
X122420000Y-98700000D02*
X129580000Y-98700000D01*
X122420000Y-101300000D02*
X122420000Y-98700000D01*
X129580000Y-98700000D02*
X129580000Y-101300000D01*
X129580000Y-101300000D02*
X122420000Y-101300000D01*
%TO.C,R4*%
X130420000Y-126700000D02*
X137580000Y-126700000D01*
X130420000Y-129300000D02*
X130420000Y-126700000D01*
X137580000Y-126700000D02*
X137580000Y-129300000D01*
X137580000Y-129300000D02*
X130420000Y-129300000D01*
%TO.C,R1*%
X122420000Y-90700000D02*
X129580000Y-90700000D01*
X122420000Y-93300000D02*
X122420000Y-90700000D01*
X129580000Y-90700000D02*
X129580000Y-93300000D01*
X129580000Y-93300000D02*
X122420000Y-93300000D01*
%TD*%
M02*
