%TF.GenerationSoftware,KiCad,Pcbnew,10.0.5*%
%TF.CreationDate,2026-07-30T21:48:50+08:00*%
%TF.ProjectId,board,626f6172-642e-46b6-9963-61645f706362,rev?*%
%TF.SameCoordinates,Original*%
%TF.FileFunction,Copper,L1,Top*%
%TF.FilePolarity,Positive*%
%FSLAX46Y46*%
G04 Gerber Fmt 4.6, Leading zero omitted, Abs format (unit mm)*
G04 Created by KiCad (PCBNEW 10.0.5) date 2026-07-30 21:48:50*
%MOMM*%
%LPD*%
G01*
G04 APERTURE LIST*
%TA.AperFunction,ComponentPad*%
%ADD10R,1.900000X1.900000*%
%TD*%
%TA.AperFunction,ComponentPad*%
%ADD11C,1.900000*%
%TD*%
%TA.AperFunction,ComponentPad*%
%ADD12R,2.000000X2.000000*%
%TD*%
%TA.AperFunction,ComponentPad*%
%ADD13C,2.000000*%
%TD*%
%TA.AperFunction,ComponentPad*%
%ADD14R,2.600000X2.600000*%
%TD*%
%TA.AperFunction,ComponentPad*%
%ADD15C,2.600000*%
%TD*%
%TA.AperFunction,SMDPad,CuDef*%
%ADD16R,1.300000X2.200000*%
%TD*%
%TA.AperFunction,SMDPad,CuDef*%
%ADD17R,3.000000X2.200000*%
%TD*%
%TA.AperFunction,ComponentPad*%
%ADD18C,1.800000*%
%TD*%
%TA.AperFunction,ComponentPad*%
%ADD19R,1.800000X1.800000*%
%TD*%
%TA.AperFunction,ViaPad*%
%ADD20C,1.200000*%
%TD*%
%TA.AperFunction,Conductor*%
%ADD21C,0.800000*%
%TD*%
%TA.AperFunction,Conductor*%
%ADD22C,1.000000*%
%TD*%
%TA.AperFunction,Conductor*%
%ADD23C,0.400000*%
%TD*%
%TA.AperFunction,Conductor*%
%ADD24C,2.500000*%
%TD*%
%TA.AperFunction,Conductor*%
%ADD25C,1.500000*%
%TD*%
%TA.AperFunction,Conductor*%
%ADD26C,0.600000*%
%TD*%
G04 APERTURE END LIST*
D10*
%TO.P,J2,1*%
%TO.N,+5V*%
X112000000Y-112190000D03*
D11*
%TO.P,J2,2*%
%TO.N,GND*%
X112000000Y-114730000D03*
%TO.P,J2,3*%
%TO.N,SCL*%
X112000000Y-117270000D03*
%TO.P,J2,4*%
%TO.N,SDA*%
X112000000Y-119810000D03*
%TD*%
D12*
%TO.P,C1,1*%
%TO.N,+12V*%
X154250000Y-82000000D03*
D13*
%TO.P,C1,2*%
%TO.N,GND*%
X157750000Y-82000000D03*
%TD*%
D14*
%TO.P,D1,1*%
%TO.N,PUMP_D*%
X159650000Y-122000000D03*
D15*
%TO.P,D1,2*%
%TO.N,+12V*%
X172350000Y-122000000D03*
%TD*%
D16*
%TO.P,U1,1*%
%TO.N,GND*%
X127700000Y-85150000D03*
%TO.P,U1,2*%
%TO.N,+3.3V*%
X130000000Y-85150000D03*
%TO.P,U1,3*%
%TO.N,+5V*%
X132300000Y-85150000D03*
D17*
%TO.P,U1,4*%
%TO.N,+3.3V*%
X130000000Y-78850000D03*
%TD*%
D18*
%TO.P,C3,1*%
%TO.N,+5V*%
X117460000Y-126000000D03*
%TO.P,C3,2*%
%TO.N,GND*%
X122540000Y-126000000D03*
%TD*%
%TO.P,C2,1*%
%TO.N,+12V*%
X145460000Y-82000000D03*
%TO.P,C2,2*%
%TO.N,GND*%
X150540000Y-82000000D03*
%TD*%
D12*
%TO.P,D2,1*%
%TO.N,VALVE_OUT*%
X158920000Y-110000000D03*
D13*
%TO.P,D2,2*%
%TO.N,+12V*%
X169080000Y-110000000D03*
%TD*%
D12*
%TO.P,Q1,1*%
%TO.N,GATE*%
X147460000Y-122000000D03*
D13*
%TO.P,Q1,2*%
%TO.N,PUMP_D*%
X150000000Y-122000000D03*
%TO.P,Q1,3*%
%TO.N,GND*%
X152540000Y-122000000D03*
%TD*%
D10*
%TO.P,J1,1*%
%TO.N,SCL*%
X112000000Y-85650000D03*
D11*
%TO.P,J1,2*%
%TO.N,SDA*%
X112000000Y-88190000D03*
%TO.P,J1,3*%
%TO.N,PUMP*%
X112000000Y-90730000D03*
%TO.P,J1,4*%
%TO.N,VALVE*%
X112000000Y-93270000D03*
%TO.P,J1,5*%
%TO.N,GND*%
X112000000Y-95810000D03*
%TO.P,J1,6*%
%TO.N,+5V*%
X112000000Y-98350000D03*
%TD*%
D14*
%TO.P,T2,1*%
%TO.N,+12V*%
X173500000Y-110000000D03*
D15*
%TO.P,T2,2*%
%TO.N,VALVE_OUT*%
X178500000Y-110000000D03*
%TD*%
D14*
%TO.P,T1,1*%
%TO.N,+12V*%
X175500000Y-122000000D03*
D15*
%TO.P,T1,2*%
%TO.N,PUMP_D*%
X180500000Y-122000000D03*
%TD*%
D14*
%TO.P,T3,1*%
%TO.N,+12V*%
X163500000Y-82000000D03*
D15*
%TO.P,T3,2*%
%TO.N,GND*%
X168500000Y-82000000D03*
%TD*%
D19*
%TO.P,U2,1*%
%TO.N,VALVE*%
X144190000Y-88840000D03*
D18*
%TO.P,U2,2*%
%TO.N,N/C*%
X144190000Y-91380000D03*
%TO.P,U2,3*%
X144190000Y-93920000D03*
%TO.P,U2,4*%
X144190000Y-96460000D03*
%TO.P,U2,5*%
X144190000Y-99000000D03*
%TO.P,U2,6*%
X144190000Y-101540000D03*
%TO.P,U2,7*%
X144190000Y-104080000D03*
%TO.P,U2,8*%
X144190000Y-106620000D03*
%TO.P,U2,9*%
%TO.N,GND*%
X144190000Y-109160000D03*
%TO.P,U2,10*%
%TO.N,+12V*%
X151810000Y-109160000D03*
%TO.P,U2,11*%
%TO.N,N/C*%
X151810000Y-106620000D03*
%TO.P,U2,12*%
X151810000Y-104080000D03*
%TO.P,U2,13*%
X151810000Y-101540000D03*
%TO.P,U2,14*%
X151810000Y-99000000D03*
%TO.P,U2,15*%
X151810000Y-96460000D03*
%TO.P,U2,16*%
X151810000Y-93920000D03*
%TO.P,U2,17*%
X151810000Y-91380000D03*
%TO.P,U2,18*%
%TO.N,VALVE_OUT*%
X151810000Y-88840000D03*
%TD*%
D12*
%TO.P,R3,1*%
%TO.N,PUMP*%
X128920000Y-118000000D03*
D13*
%TO.P,R3,2*%
%TO.N,GATE*%
X139080000Y-118000000D03*
%TD*%
D12*
%TO.P,R2,1*%
%TO.N,+3.3V*%
X120920000Y-100000000D03*
D13*
%TO.P,R2,2*%
%TO.N,SDA*%
X131080000Y-100000000D03*
%TD*%
D12*
%TO.P,R4,1*%
%TO.N,GATE*%
X128920000Y-128000000D03*
D13*
%TO.P,R4,2*%
%TO.N,GND*%
X139080000Y-128000000D03*
%TD*%
D12*
%TO.P,R1,1*%
%TO.N,+3.3V*%
X120920000Y-92000000D03*
D13*
%TO.P,R1,2*%
%TO.N,SCL*%
X131080000Y-92000000D03*
%TD*%
D20*
%TO.N,GND*%
X127750000Y-85250000D03*
%TO.N,SCL*%
X123000000Y-92000000D03*
%TO.N,SDA*%
X122250000Y-93750000D03*
%TO.N,+3.3V*%
X130000000Y-87000000D03*
%TO.N,VALVE*%
X114750000Y-92500000D03*
X124250000Y-88750000D03*
X114750000Y-89500000D03*
X124250000Y-85750000D03*
%TD*%
%TO.N,+5V*%
D21*
X120500000Y-98250000D02*
X120000000Y-98250000D01*
X112000000Y-111250000D02*
X112000000Y-110750000D01*
X118000000Y-98250000D02*
X117500000Y-98250000D01*
X132250000Y-85250000D02*
X132250000Y-85750000D01*
X112000000Y-107750000D02*
X112000000Y-107250000D01*
X112000000Y-105750000D02*
X112000000Y-105250000D01*
X112500000Y-98250000D02*
X112000000Y-98250000D01*
X112000000Y-104750000D02*
X112000000Y-104250000D01*
X112000000Y-109250000D02*
X112000000Y-108750000D01*
X132250000Y-87750000D02*
X132250000Y-88250000D01*
X127500000Y-98250000D02*
X127000000Y-98250000D01*
X129000000Y-98250000D02*
X128500000Y-98250000D01*
X126000000Y-98250000D02*
X125500000Y-98250000D01*
X128500000Y-98250000D02*
X128000000Y-98250000D01*
X112000000Y-98750000D02*
X112000000Y-98250000D01*
X119500000Y-98250000D02*
X119000000Y-98250000D01*
X127000000Y-98250000D02*
X126500000Y-98250000D01*
X129000000Y-94750000D02*
X129000000Y-95250000D01*
X129000000Y-96250000D02*
X129000000Y-96750000D01*
X112000000Y-100750000D02*
X112000000Y-100250000D01*
X124000000Y-98250000D02*
X123500000Y-98250000D01*
X129000000Y-97750000D02*
X129000000Y-98250000D01*
X129750000Y-90250000D02*
X129250000Y-90250000D01*
X129000000Y-96750000D02*
X129000000Y-97250000D01*
X130750000Y-90250000D02*
X130250000Y-90250000D01*
X132250000Y-89750000D02*
X132250000Y-90250000D01*
X112000000Y-106750000D02*
X112000000Y-106250000D01*
X129000000Y-93250000D02*
X129000000Y-93750000D01*
X116500000Y-98250000D02*
X116000000Y-98250000D01*
X129000000Y-92750000D02*
X129000000Y-93250000D01*
X112000000Y-111750000D02*
X112000000Y-111250000D01*
X129000000Y-91250000D02*
X129000000Y-91750000D01*
X129000000Y-97250000D02*
X129000000Y-97750000D01*
X130250000Y-90250000D02*
X129750000Y-90250000D01*
X112000000Y-104250000D02*
X112000000Y-103750000D01*
X129000000Y-93750000D02*
X129000000Y-94250000D01*
X132250000Y-88750000D02*
X132250000Y-89250000D01*
X132250000Y-87250000D02*
X132250000Y-87750000D01*
X121500000Y-98250000D02*
X121000000Y-98250000D01*
X112000000Y-108750000D02*
X112000000Y-108250000D01*
X125500000Y-98250000D02*
X125000000Y-98250000D01*
X112000000Y-107250000D02*
X112000000Y-106750000D01*
X132250000Y-86750000D02*
X132250000Y-87250000D01*
X113000000Y-98250000D02*
X112500000Y-98250000D01*
X121000000Y-98250000D02*
X120500000Y-98250000D01*
X112000000Y-106250000D02*
X112000000Y-105750000D01*
X128000000Y-98250000D02*
X127500000Y-98250000D01*
X129000000Y-95250000D02*
X129000000Y-95750000D01*
X132250000Y-85750000D02*
X132250000Y-86250000D01*
X129000000Y-95750000D02*
X129000000Y-96250000D01*
X122500000Y-98250000D02*
X122000000Y-98250000D01*
X112000000Y-110250000D02*
X112000000Y-109750000D01*
X125000000Y-98250000D02*
X124500000Y-98250000D01*
X129000000Y-94250000D02*
X129000000Y-94750000D01*
X118500000Y-98250000D02*
X118000000Y-98250000D01*
X132250000Y-86250000D02*
X132250000Y-86750000D01*
X112000000Y-101750000D02*
X112000000Y-101250000D01*
X120000000Y-98250000D02*
X119500000Y-98250000D01*
X123500000Y-98250000D02*
X123000000Y-98250000D01*
X129000000Y-92250000D02*
X129000000Y-92750000D01*
X112000000Y-110750000D02*
X112000000Y-110250000D01*
X112000000Y-112250000D02*
X112000000Y-111750000D01*
X132250000Y-88250000D02*
X132250000Y-88750000D01*
X113500000Y-98250000D02*
X113000000Y-98250000D01*
X112000000Y-102250000D02*
X112000000Y-101750000D01*
X122000000Y-98250000D02*
X121500000Y-98250000D01*
X112000000Y-99250000D02*
X112000000Y-98750000D01*
X112000000Y-103250000D02*
X112000000Y-102750000D01*
X112000000Y-102750000D02*
X112000000Y-102250000D01*
X131750000Y-90250000D02*
X131250000Y-90250000D01*
X117500000Y-98250000D02*
X117000000Y-98250000D01*
X132250000Y-89250000D02*
X132250000Y-89750000D01*
X112000000Y-105250000D02*
X112000000Y-104750000D01*
X129000000Y-90750000D02*
X129000000Y-91250000D01*
X112000000Y-109750000D02*
X112000000Y-109250000D01*
X132250000Y-90250000D02*
X131750000Y-90250000D01*
X114500000Y-98250000D02*
X114000000Y-98250000D01*
X112000000Y-101250000D02*
X112000000Y-100750000D01*
X115000000Y-98250000D02*
X114500000Y-98250000D01*
X131250000Y-90250000D02*
X130750000Y-90250000D01*
X124500000Y-98250000D02*
X124000000Y-98250000D01*
X117000000Y-98250000D02*
X116500000Y-98250000D01*
X129250000Y-90250000D02*
X129000000Y-90250000D01*
X126500000Y-98250000D02*
X126000000Y-98250000D01*
X129000000Y-91750000D02*
X129000000Y-92250000D01*
X119000000Y-98250000D02*
X118500000Y-98250000D01*
X114000000Y-98250000D02*
X113500000Y-98250000D01*
X112000000Y-108250000D02*
X112000000Y-107750000D01*
X112000000Y-100250000D02*
X112000000Y-99750000D01*
X116000000Y-98250000D02*
X115500000Y-98250000D01*
X112000000Y-99750000D02*
X112000000Y-99250000D01*
X115500000Y-98250000D02*
X115000000Y-98250000D01*
X123000000Y-98250000D02*
X122500000Y-98250000D01*
X129000000Y-90250000D02*
X129000000Y-90750000D01*
X112000000Y-103750000D02*
X112000000Y-103250000D01*
%TO.N,GND*%
D22*
X110000000Y-111750000D02*
X110000000Y-111250000D01*
X132000000Y-126000000D02*
X131500000Y-126000000D01*
X152500000Y-125500000D02*
X152500000Y-126000000D01*
X167500000Y-84250000D02*
X167000000Y-84250000D01*
X110000000Y-112250000D02*
X110000000Y-111750000D01*
X131500000Y-126000000D02*
X131000000Y-126000000D01*
X110000000Y-101250000D02*
X110000000Y-100750000D01*
X127750000Y-93250000D02*
X127750000Y-93750000D01*
X110000000Y-97250000D02*
X110000000Y-96750000D01*
X157750000Y-82250000D02*
X157750000Y-82000000D01*
X121500000Y-114750000D02*
X121000000Y-114750000D01*
X117000000Y-114750000D02*
X116500000Y-114750000D01*
X166500000Y-84250000D02*
X166000000Y-84250000D01*
X110000000Y-104250000D02*
X110000000Y-103750000D01*
X135500000Y-126000000D02*
X135000000Y-126000000D01*
X139000000Y-126500000D02*
X139000000Y-126000000D01*
X110000000Y-102250000D02*
X110000000Y-101750000D01*
X128500000Y-126000000D02*
X128000000Y-126000000D01*
X147500000Y-128000000D02*
X147000000Y-128000000D01*
X127750000Y-86250000D02*
X127750000Y-86750000D01*
X124750000Y-95750000D02*
X124250000Y-95750000D01*
X122500000Y-120000000D02*
X122500000Y-119500000D01*
X110000000Y-102750000D02*
X110000000Y-102250000D01*
X122500000Y-116500000D02*
X122500000Y-116000000D01*
X127750000Y-90250000D02*
X127750000Y-90750000D01*
X160500000Y-84250000D02*
X160000000Y-84250000D01*
X112000000Y-114750000D02*
X111500000Y-114750000D01*
X110000000Y-103750000D02*
X110000000Y-103250000D01*
X127750000Y-85250000D02*
X127750000Y-85250000D01*
X110000000Y-112750000D02*
X110000000Y-112250000D01*
X128000000Y-126000000D02*
X127500000Y-126000000D01*
X147000000Y-128000000D02*
X146500000Y-128000000D01*
X122500000Y-122000000D02*
X122500000Y-121500000D01*
X114000000Y-114750000D02*
X113500000Y-114750000D01*
X116500000Y-114750000D02*
X116000000Y-114750000D01*
X110000000Y-114250000D02*
X110000000Y-113750000D01*
X127750000Y-87250000D02*
X127750000Y-87750000D01*
X110000000Y-96750000D02*
X110000000Y-96250000D01*
X122500000Y-117000000D02*
X122500000Y-116500000D01*
X110000000Y-100250000D02*
X110000000Y-99750000D01*
X167000000Y-84250000D02*
X166500000Y-84250000D01*
X126750000Y-95750000D02*
X126250000Y-95750000D01*
X119000000Y-114750000D02*
X118500000Y-114750000D01*
X122250000Y-95750000D02*
X121750000Y-95750000D01*
X118500000Y-114750000D02*
X118000000Y-114750000D01*
X127000000Y-126000000D02*
X126500000Y-126000000D01*
X139000000Y-127500000D02*
X139000000Y-127000000D01*
X117250000Y-95750000D02*
X116750000Y-95750000D01*
X168500000Y-84250000D02*
X168000000Y-84250000D01*
X141500000Y-128000000D02*
X141000000Y-128000000D01*
X145000000Y-128000000D02*
X144500000Y-128000000D01*
X152500000Y-126000000D02*
X152500000Y-126500000D01*
X122500000Y-123000000D02*
X122500000Y-122500000D01*
X168500000Y-84000000D02*
X168500000Y-84250000D01*
X110500000Y-95750000D02*
X111000000Y-95750000D01*
X129000000Y-126000000D02*
X128500000Y-126000000D01*
X163000000Y-84250000D02*
X162500000Y-84250000D01*
X160000000Y-84250000D02*
X159500000Y-84250000D01*
X139000000Y-127000000D02*
X139000000Y-126500000D01*
X123250000Y-95750000D02*
X122750000Y-95750000D01*
X129500000Y-126000000D02*
X129000000Y-126000000D01*
X127750000Y-91250000D02*
X127750000Y-91750000D01*
X144000000Y-128000000D02*
X143500000Y-128000000D01*
X140000000Y-128000000D02*
X139500000Y-128000000D01*
X133500000Y-126000000D02*
X133000000Y-126000000D01*
X124000000Y-126000000D02*
X123500000Y-126000000D01*
X127750000Y-92250000D02*
X127750000Y-92750000D01*
X133000000Y-126000000D02*
X132500000Y-126000000D01*
X124250000Y-95750000D02*
X123750000Y-95750000D01*
X122500000Y-115500000D02*
X122500000Y-115000000D01*
X150500000Y-128000000D02*
X150000000Y-128000000D01*
X115750000Y-95750000D02*
X115250000Y-95750000D01*
X127750000Y-95750000D02*
X127250000Y-95750000D01*
X148000000Y-128000000D02*
X147500000Y-128000000D01*
X126500000Y-126000000D02*
X126000000Y-126000000D01*
X152500000Y-122500000D02*
X152500000Y-123000000D01*
X127750000Y-88750000D02*
X127750000Y-89250000D01*
X110000000Y-104750000D02*
X110000000Y-104250000D01*
X138500000Y-126000000D02*
X138000000Y-126000000D01*
X121750000Y-95750000D02*
X121250000Y-95750000D01*
X152000000Y-128000000D02*
X151500000Y-128000000D01*
X127750000Y-85750000D02*
X127750000Y-86250000D01*
X130500000Y-126000000D02*
X130000000Y-126000000D01*
X125250000Y-95750000D02*
X124750000Y-95750000D01*
X166000000Y-84250000D02*
X165500000Y-84250000D01*
X127750000Y-85250000D02*
X127750000Y-85750000D01*
X152500000Y-122000000D02*
X152500000Y-122500000D01*
X152500000Y-128000000D02*
X152000000Y-128000000D01*
X112750000Y-95750000D02*
X112250000Y-95750000D01*
X162000000Y-84250000D02*
X161500000Y-84250000D01*
X127500000Y-126000000D02*
X127000000Y-126000000D01*
X137000000Y-126000000D02*
X136500000Y-126000000D01*
X121000000Y-114750000D02*
X120500000Y-114750000D01*
X110000000Y-101750000D02*
X110000000Y-101250000D01*
X111000000Y-95750000D02*
X111500000Y-95750000D01*
X168500000Y-83000000D02*
X168500000Y-83500000D01*
X110000000Y-103250000D02*
X110000000Y-102750000D01*
X127750000Y-89250000D02*
X127750000Y-89750000D01*
X140500000Y-128000000D02*
X140000000Y-128000000D01*
X110000000Y-105750000D02*
X110000000Y-105250000D01*
X116750000Y-95750000D02*
X116250000Y-95750000D01*
X143000000Y-128000000D02*
X142500000Y-128000000D01*
X136000000Y-126000000D02*
X135500000Y-126000000D01*
X152500000Y-125000000D02*
X152500000Y-125500000D01*
X127750000Y-86750000D02*
X127750000Y-87250000D01*
X165500000Y-84250000D02*
X165000000Y-84250000D01*
X157750000Y-82750000D02*
X157750000Y-82250000D01*
X135000000Y-126000000D02*
X134500000Y-126000000D01*
X152500000Y-126500000D02*
X152500000Y-127000000D01*
X114500000Y-114750000D02*
X114000000Y-114750000D01*
X112250000Y-95750000D02*
X112000000Y-95750000D01*
X122500000Y-118500000D02*
X122500000Y-118000000D01*
X122500000Y-119000000D02*
X122500000Y-118500000D01*
X126000000Y-126000000D02*
X125500000Y-126000000D01*
X163500000Y-84250000D02*
X163000000Y-84250000D01*
X122500000Y-116000000D02*
X122500000Y-115500000D01*
X126250000Y-95750000D02*
X125750000Y-95750000D01*
X161000000Y-84250000D02*
X160500000Y-84250000D01*
X110000000Y-100750000D02*
X110000000Y-100250000D01*
X124500000Y-126000000D02*
X124000000Y-126000000D01*
X116000000Y-114750000D02*
X115500000Y-114750000D01*
X122750000Y-95750000D02*
X122250000Y-95750000D01*
X117500000Y-114750000D02*
X117000000Y-114750000D01*
X139000000Y-126000000D02*
X138500000Y-126000000D01*
X110000000Y-110250000D02*
X110000000Y-109750000D01*
X164000000Y-84250000D02*
X163500000Y-84250000D01*
X122500000Y-124000000D02*
X122500000Y-123500000D01*
X162500000Y-84250000D02*
X162000000Y-84250000D01*
X165000000Y-84250000D02*
X164500000Y-84250000D01*
X142000000Y-128000000D02*
X141500000Y-128000000D01*
X110000000Y-98250000D02*
X110000000Y-97750000D01*
X127750000Y-88250000D02*
X127750000Y-88750000D01*
X151000000Y-128000000D02*
X150500000Y-128000000D01*
X115250000Y-95750000D02*
X114750000Y-95750000D01*
X159000000Y-84250000D02*
X158500000Y-84250000D01*
X164500000Y-84250000D02*
X164000000Y-84250000D01*
X150000000Y-128000000D02*
X149500000Y-128000000D01*
X122500000Y-125500000D02*
X122500000Y-125000000D01*
X122500000Y-123500000D02*
X122500000Y-123000000D01*
X118250000Y-95750000D02*
X117750000Y-95750000D01*
X138000000Y-126000000D02*
X137500000Y-126000000D01*
X122500000Y-119500000D02*
X122500000Y-119000000D01*
X122500000Y-126000000D02*
X122500000Y-125500000D01*
X131000000Y-126000000D02*
X130500000Y-126000000D01*
X157750000Y-84250000D02*
X157750000Y-83750000D01*
X110000000Y-97750000D02*
X110000000Y-97250000D01*
X122500000Y-117500000D02*
X122500000Y-117000000D01*
X110000000Y-110750000D02*
X110000000Y-110250000D01*
X110000000Y-99250000D02*
X110000000Y-98750000D01*
X146000000Y-128000000D02*
X145500000Y-128000000D01*
X110000000Y-108750000D02*
X110000000Y-108250000D01*
X123000000Y-126000000D02*
X122500000Y-126000000D01*
X168000000Y-84250000D02*
X167500000Y-84250000D01*
X111000000Y-114750000D02*
X110500000Y-114750000D01*
X168500000Y-83500000D02*
X168500000Y-84000000D01*
X113750000Y-95750000D02*
X113250000Y-95750000D01*
X141000000Y-128000000D02*
X140500000Y-128000000D01*
X158000000Y-84250000D02*
X157750000Y-84250000D01*
X146500000Y-128000000D02*
X146000000Y-128000000D01*
X122500000Y-115000000D02*
X122500000Y-114750000D01*
X144500000Y-128000000D02*
X144000000Y-128000000D01*
X168500000Y-82000000D02*
X168500000Y-82500000D01*
X118000000Y-114750000D02*
X117500000Y-114750000D01*
X110000000Y-113750000D02*
X110000000Y-113250000D01*
X122500000Y-124500000D02*
X122500000Y-124000000D01*
X127250000Y-95750000D02*
X126750000Y-95750000D01*
X110000000Y-106250000D02*
X110000000Y-105750000D01*
X127750000Y-94750000D02*
X127750000Y-95250000D01*
X161500000Y-84250000D02*
X161000000Y-84250000D01*
X127750000Y-87750000D02*
X127750000Y-88250000D01*
X152500000Y-127500000D02*
X152500000Y-128000000D01*
X110000000Y-107250000D02*
X110000000Y-106750000D01*
X122500000Y-125000000D02*
X122500000Y-124500000D01*
X149000000Y-128000000D02*
X148500000Y-128000000D01*
X122500000Y-121500000D02*
X122500000Y-121000000D01*
X151500000Y-128000000D02*
X151000000Y-128000000D01*
X119750000Y-95750000D02*
X119250000Y-95750000D01*
X157750000Y-83250000D02*
X157750000Y-82750000D01*
X110000000Y-95750000D02*
X110500000Y-95750000D01*
X125000000Y-126000000D02*
X124500000Y-126000000D01*
X145500000Y-128000000D02*
X145000000Y-128000000D01*
X127750000Y-89750000D02*
X127750000Y-90250000D01*
X110000000Y-113250000D02*
X110000000Y-112750000D01*
X132500000Y-126000000D02*
X132000000Y-126000000D01*
X118750000Y-95750000D02*
X118250000Y-95750000D01*
X112500000Y-114750000D02*
X112000000Y-114750000D01*
X110000000Y-105250000D02*
X110000000Y-104750000D01*
X113500000Y-114750000D02*
X113000000Y-114750000D01*
X159500000Y-84250000D02*
X159000000Y-84250000D01*
X143500000Y-128000000D02*
X143000000Y-128000000D01*
X110000000Y-107750000D02*
X110000000Y-107250000D01*
X120250000Y-95750000D02*
X119750000Y-95750000D01*
X110000000Y-99750000D02*
X110000000Y-99250000D01*
X122500000Y-114750000D02*
X122000000Y-114750000D01*
X142500000Y-128000000D02*
X142000000Y-128000000D01*
X114250000Y-95750000D02*
X113750000Y-95750000D01*
X110000000Y-111250000D02*
X110000000Y-110750000D01*
X123750000Y-95750000D02*
X123250000Y-95750000D01*
X122500000Y-122500000D02*
X122500000Y-122000000D01*
X127750000Y-91750000D02*
X127750000Y-92250000D01*
X134000000Y-126000000D02*
X133500000Y-126000000D01*
X120500000Y-114750000D02*
X120000000Y-114750000D01*
X122500000Y-120500000D02*
X122500000Y-120000000D01*
X149500000Y-128000000D02*
X149000000Y-128000000D01*
X152500000Y-127000000D02*
X152500000Y-127500000D01*
X119250000Y-95750000D02*
X118750000Y-95750000D01*
X119500000Y-114750000D02*
X119000000Y-114750000D01*
X122500000Y-121000000D02*
X122500000Y-120500000D01*
X157750000Y-83750000D02*
X157750000Y-83250000D01*
X136500000Y-126000000D02*
X136000000Y-126000000D01*
X110000000Y-96250000D02*
X110000000Y-95750000D01*
X111500000Y-95750000D02*
X112000000Y-95750000D01*
X122000000Y-114750000D02*
X121500000Y-114750000D01*
X127750000Y-95250000D02*
X127750000Y-95750000D01*
X115500000Y-114750000D02*
X115000000Y-114750000D01*
X114750000Y-95750000D02*
X114250000Y-95750000D01*
X158500000Y-84250000D02*
X158000000Y-84250000D01*
X121250000Y-95750000D02*
X120750000Y-95750000D01*
X110000000Y-106750000D02*
X110000000Y-106250000D01*
X127750000Y-93750000D02*
X127750000Y-94250000D01*
X152500000Y-124000000D02*
X152500000Y-124500000D01*
X134500000Y-126000000D02*
X134000000Y-126000000D01*
X137500000Y-126000000D02*
X137000000Y-126000000D01*
X110000000Y-109750000D02*
X110000000Y-109250000D01*
X130000000Y-126000000D02*
X129500000Y-126000000D01*
X152500000Y-124500000D02*
X152500000Y-125000000D01*
X139500000Y-128000000D02*
X139000000Y-128000000D01*
X110000000Y-114750000D02*
X110000000Y-114250000D01*
X127750000Y-90750000D02*
X127750000Y-91250000D01*
X120000000Y-114750000D02*
X119500000Y-114750000D01*
X115000000Y-114750000D02*
X114500000Y-114750000D01*
X168500000Y-82500000D02*
X168500000Y-83000000D01*
X125750000Y-95750000D02*
X125250000Y-95750000D01*
X116250000Y-95750000D02*
X115750000Y-95750000D01*
X117750000Y-95750000D02*
X117250000Y-95750000D01*
X148500000Y-128000000D02*
X148000000Y-128000000D01*
X110000000Y-108250000D02*
X110000000Y-107750000D01*
X127750000Y-92750000D02*
X127750000Y-93250000D01*
X152500000Y-123500000D02*
X152500000Y-124000000D01*
X113250000Y-95750000D02*
X112750000Y-95750000D01*
X139000000Y-128000000D02*
X139000000Y-127500000D01*
X127750000Y-94250000D02*
X127750000Y-94750000D01*
X110500000Y-114750000D02*
X110000000Y-114750000D01*
X113000000Y-114750000D02*
X112500000Y-114750000D01*
X110000000Y-98750000D02*
X110000000Y-98250000D01*
X123500000Y-126000000D02*
X123000000Y-126000000D01*
X152500000Y-123000000D02*
X152500000Y-123500000D01*
X110000000Y-109250000D02*
X110000000Y-108750000D01*
X125500000Y-126000000D02*
X125000000Y-126000000D01*
X111500000Y-114750000D02*
X111000000Y-114750000D01*
X122500000Y-118000000D02*
X122500000Y-117500000D01*
X120750000Y-95750000D02*
X120250000Y-95750000D01*
%TO.N,SCL*%
D23*
X119000000Y-85750000D02*
X118500000Y-85750000D01*
X115000000Y-85750000D02*
X114500000Y-85750000D01*
X118500000Y-85750000D02*
X118000000Y-85750000D01*
X114000000Y-85750000D02*
X113500000Y-85750000D01*
X114500000Y-85750000D02*
X114000000Y-85750000D01*
X123000000Y-86000000D02*
X123000000Y-85750000D01*
X123000000Y-92000000D02*
X123000000Y-92000000D01*
X112500000Y-85750000D02*
X112000000Y-85750000D01*
X123000000Y-90500000D02*
X123000000Y-90000000D01*
X118000000Y-85750000D02*
X117500000Y-85750000D01*
X116500000Y-85750000D02*
X116000000Y-85750000D01*
X113500000Y-85750000D02*
X113000000Y-85750000D01*
X115500000Y-85750000D02*
X115000000Y-85750000D01*
X120000000Y-85750000D02*
X119500000Y-85750000D01*
X123000000Y-88500000D02*
X123000000Y-88000000D01*
X116000000Y-85750000D02*
X115500000Y-85750000D01*
X123000000Y-87500000D02*
X123000000Y-87000000D01*
X117000000Y-85750000D02*
X116500000Y-85750000D01*
X122500000Y-85750000D02*
X122000000Y-85750000D01*
X123000000Y-90000000D02*
X123000000Y-89500000D01*
X123000000Y-91000000D02*
X123000000Y-90500000D01*
X121500000Y-85750000D02*
X121000000Y-85750000D01*
X117500000Y-85750000D02*
X117000000Y-85750000D01*
X123000000Y-87000000D02*
X123000000Y-86500000D01*
X123000000Y-85750000D02*
X122500000Y-85750000D01*
X123000000Y-91500000D02*
X123000000Y-91000000D01*
X122000000Y-85750000D02*
X121500000Y-85750000D01*
X123000000Y-92000000D02*
X123000000Y-91500000D01*
X123000000Y-86500000D02*
X123000000Y-86000000D01*
X120500000Y-85750000D02*
X120000000Y-85750000D01*
X123000000Y-88000000D02*
X123000000Y-87500000D01*
X119500000Y-85750000D02*
X119000000Y-85750000D01*
X123000000Y-89500000D02*
X123000000Y-89000000D01*
X121000000Y-85750000D02*
X120500000Y-85750000D01*
X123000000Y-89000000D02*
X123000000Y-88500000D01*
X113000000Y-85750000D02*
X112500000Y-85750000D01*
%TO.N,SDA*%
X109500000Y-119750000D02*
X109000000Y-119750000D01*
X122250000Y-93750000D02*
X121750000Y-93750000D01*
X110250000Y-88250000D02*
X110750000Y-88250000D01*
X108750000Y-119750000D02*
X108750000Y-119250000D01*
X108750000Y-116750000D02*
X108750000Y-116250000D01*
X108750000Y-105250000D02*
X108750000Y-104750000D01*
X108750000Y-111750000D02*
X108750000Y-111250000D01*
X108750000Y-115750000D02*
X108750000Y-115250000D01*
X108750000Y-113250000D02*
X108750000Y-112750000D01*
X108750000Y-108250000D02*
X108750000Y-107750000D01*
X113500000Y-90750000D02*
X113500000Y-90250000D01*
X108750000Y-111250000D02*
X108750000Y-110750000D01*
X121750000Y-93750000D02*
X121250000Y-93750000D01*
X114250000Y-93750000D02*
X113750000Y-93750000D01*
X111000000Y-119750000D02*
X110500000Y-119750000D01*
X108750000Y-102250000D02*
X108750000Y-101750000D01*
X108750000Y-97750000D02*
X108750000Y-97250000D01*
X108750000Y-107250000D02*
X108750000Y-106750000D01*
X115250000Y-93750000D02*
X114750000Y-93750000D01*
X108750000Y-118250000D02*
X108750000Y-117750000D01*
X113500000Y-91250000D02*
X113500000Y-90750000D01*
X108750000Y-104750000D02*
X108750000Y-104250000D01*
X108750000Y-117750000D02*
X108750000Y-117250000D01*
X120750000Y-93750000D02*
X120250000Y-93750000D01*
X108750000Y-91750000D02*
X108750000Y-91250000D01*
X113500000Y-93250000D02*
X113500000Y-92750000D01*
X119750000Y-93750000D02*
X119250000Y-93750000D01*
X108750000Y-90250000D02*
X108750000Y-89750000D01*
X113500000Y-88750000D02*
X113500000Y-88250000D01*
X116250000Y-93750000D02*
X115750000Y-93750000D01*
X108750000Y-109750000D02*
X108750000Y-109250000D01*
X108750000Y-117250000D02*
X108750000Y-116750000D01*
X113750000Y-93750000D02*
X113500000Y-93750000D01*
X113500000Y-92250000D02*
X113500000Y-91750000D01*
X113500000Y-89750000D02*
X113500000Y-89250000D01*
X117750000Y-93750000D02*
X117250000Y-93750000D01*
X111500000Y-119750000D02*
X111000000Y-119750000D01*
X108750000Y-110750000D02*
X108750000Y-110250000D01*
X108750000Y-100250000D02*
X108750000Y-99750000D01*
X113000000Y-88250000D02*
X112500000Y-88250000D01*
X108750000Y-89250000D02*
X108750000Y-88750000D01*
X112000000Y-119750000D02*
X111500000Y-119750000D01*
X108750000Y-89750000D02*
X108750000Y-89250000D01*
X108750000Y-112250000D02*
X108750000Y-111750000D01*
X118250000Y-93750000D02*
X117750000Y-93750000D01*
X117250000Y-93750000D02*
X116750000Y-93750000D01*
X108750000Y-116250000D02*
X108750000Y-115750000D01*
X110750000Y-88250000D02*
X111250000Y-88250000D01*
X116750000Y-93750000D02*
X116250000Y-93750000D01*
X108750000Y-119250000D02*
X108750000Y-118750000D01*
X108750000Y-101750000D02*
X108750000Y-101250000D01*
X113500000Y-88250000D02*
X113000000Y-88250000D01*
X108750000Y-110250000D02*
X108750000Y-109750000D01*
X111250000Y-88250000D02*
X111750000Y-88250000D01*
X108750000Y-99250000D02*
X108750000Y-98750000D01*
X108750000Y-105750000D02*
X108750000Y-105250000D01*
X108750000Y-97250000D02*
X108750000Y-96750000D01*
X112500000Y-88250000D02*
X112000000Y-88250000D01*
X113500000Y-93750000D02*
X113500000Y-93250000D01*
X108750000Y-96250000D02*
X108750000Y-95750000D01*
X118750000Y-93750000D02*
X118250000Y-93750000D01*
X108750000Y-106750000D02*
X108750000Y-106250000D01*
X122250000Y-93750000D02*
X122250000Y-93750000D01*
X113500000Y-91750000D02*
X113500000Y-91250000D01*
X108750000Y-96750000D02*
X108750000Y-96250000D01*
X108750000Y-93250000D02*
X108750000Y-92750000D01*
X110500000Y-119750000D02*
X110000000Y-119750000D01*
X108750000Y-114750000D02*
X108750000Y-114250000D01*
X108750000Y-90750000D02*
X108750000Y-90250000D01*
X108750000Y-107750000D02*
X108750000Y-107250000D01*
X108750000Y-114250000D02*
X108750000Y-113750000D01*
X109750000Y-88250000D02*
X110250000Y-88250000D01*
X108750000Y-113750000D02*
X108750000Y-113250000D01*
X108750000Y-101250000D02*
X108750000Y-100750000D01*
X108750000Y-95250000D02*
X108750000Y-94750000D01*
X108750000Y-88250000D02*
X109250000Y-88250000D01*
X110000000Y-119750000D02*
X109500000Y-119750000D01*
X108750000Y-92250000D02*
X108750000Y-91750000D01*
X109000000Y-119750000D02*
X108750000Y-119750000D01*
X108750000Y-103250000D02*
X108750000Y-102750000D01*
X108750000Y-100750000D02*
X108750000Y-100250000D01*
X111750000Y-88250000D02*
X112000000Y-88250000D01*
X108750000Y-94250000D02*
X108750000Y-93750000D01*
X113500000Y-90250000D02*
X113500000Y-89750000D01*
X108750000Y-93750000D02*
X108750000Y-93250000D01*
X119250000Y-93750000D02*
X118750000Y-93750000D01*
X108750000Y-99750000D02*
X108750000Y-99250000D01*
X108750000Y-91250000D02*
X108750000Y-90750000D01*
X108750000Y-94750000D02*
X108750000Y-94250000D01*
X108750000Y-104250000D02*
X108750000Y-103750000D01*
X108750000Y-98250000D02*
X108750000Y-97750000D01*
X108750000Y-109250000D02*
X108750000Y-108750000D01*
X108750000Y-118750000D02*
X108750000Y-118250000D01*
X113500000Y-89250000D02*
X113500000Y-88750000D01*
X113500000Y-92750000D02*
X113500000Y-92250000D01*
X108750000Y-115250000D02*
X108750000Y-114750000D01*
X108750000Y-103750000D02*
X108750000Y-103250000D01*
X114750000Y-93750000D02*
X114250000Y-93750000D01*
X108750000Y-95750000D02*
X108750000Y-95250000D01*
X120250000Y-93750000D02*
X119750000Y-93750000D01*
X108750000Y-92750000D02*
X108750000Y-92250000D01*
X109250000Y-88250000D02*
X109750000Y-88250000D01*
X115750000Y-93750000D02*
X115250000Y-93750000D01*
X108750000Y-88750000D02*
X108750000Y-88250000D01*
X108750000Y-112750000D02*
X108750000Y-112250000D01*
X121250000Y-93750000D02*
X120750000Y-93750000D01*
X108750000Y-98750000D02*
X108750000Y-98250000D01*
X108750000Y-108750000D02*
X108750000Y-108250000D01*
X108750000Y-106250000D02*
X108750000Y-105750000D01*
X108750000Y-102750000D02*
X108750000Y-102250000D01*
%TO.N,+12V*%
D24*
X173250000Y-110000000D02*
X173500000Y-110000000D01*
X154250000Y-94500000D02*
X154250000Y-95000000D01*
X150500000Y-79500000D02*
X151000000Y-79500000D01*
X154250000Y-80500000D02*
X154250000Y-81000000D01*
X149000000Y-79500000D02*
X149500000Y-79500000D01*
X158000000Y-107250000D02*
X157500000Y-107250000D01*
X156500000Y-79250000D02*
X156000000Y-79250000D01*
X157000000Y-79250000D02*
X156500000Y-79250000D01*
X172250000Y-113500000D02*
X172250000Y-113000000D01*
X154250000Y-89000000D02*
X154250000Y-89500000D01*
X154250000Y-103000000D02*
X154250000Y-103500000D01*
X154250000Y-91500000D02*
X154250000Y-92000000D01*
X169000000Y-109500000D02*
X169000000Y-109000000D01*
X146000000Y-79500000D02*
X146500000Y-79500000D01*
X154250000Y-107250000D02*
X154250000Y-107750000D01*
X169000000Y-109000000D02*
X169000000Y-108500000D01*
X148500000Y-79500000D02*
X149000000Y-79500000D01*
X153750000Y-109250000D02*
X153250000Y-109250000D01*
X168000000Y-107250000D02*
X167500000Y-107250000D01*
X149500000Y-79500000D02*
X150000000Y-79500000D01*
X152000000Y-79500000D02*
X152500000Y-79500000D01*
X172250000Y-117000000D02*
X172250000Y-116500000D01*
X171500000Y-110000000D02*
X171000000Y-110000000D01*
X154250000Y-107500000D02*
X154250000Y-108000000D01*
X154500000Y-79250000D02*
X154250000Y-79250000D01*
X147000000Y-79500000D02*
X147500000Y-79500000D01*
X154250000Y-101000000D02*
X154250000Y-101500000D01*
X164500000Y-107250000D02*
X164000000Y-107250000D01*
X172250000Y-114500000D02*
X172250000Y-114000000D01*
X169000000Y-108500000D02*
X169000000Y-108000000D01*
X154250000Y-99000000D02*
X154250000Y-99500000D01*
X172250000Y-119000000D02*
X172250000Y-118500000D01*
X158500000Y-107250000D02*
X158000000Y-107250000D01*
X159000000Y-107250000D02*
X158500000Y-107250000D01*
X153250000Y-109250000D02*
X152750000Y-109250000D01*
X165000000Y-107250000D02*
X164500000Y-107250000D01*
X152250000Y-109250000D02*
X151750000Y-109250000D01*
X171000000Y-110000000D02*
X170500000Y-110000000D01*
X154250000Y-82000000D02*
X154250000Y-82500000D01*
X154250000Y-107750000D02*
X154250000Y-108250000D01*
X154250000Y-107000000D02*
X154250000Y-107500000D01*
X163500000Y-81000000D02*
X163500000Y-80500000D01*
X154250000Y-95000000D02*
X154250000Y-95500000D01*
X160000000Y-79250000D02*
X159500000Y-79250000D01*
X163000000Y-79250000D02*
X162500000Y-79250000D01*
X154250000Y-105500000D02*
X154250000Y-106000000D01*
X166000000Y-107250000D02*
X165500000Y-107250000D01*
X154250000Y-83000000D02*
X154250000Y-83500000D01*
X145500000Y-81000000D02*
X145500000Y-80500000D01*
X172250000Y-111500000D02*
X172250000Y-111000000D01*
X154250000Y-85500000D02*
X154250000Y-86000000D01*
X154250000Y-104000000D02*
X154250000Y-104500000D01*
X154250000Y-79250000D02*
X154250000Y-79750000D01*
X154250000Y-84000000D02*
X154250000Y-84500000D01*
X152750000Y-109250000D02*
X152250000Y-109250000D01*
X152250000Y-109250000D02*
X151750000Y-109250000D01*
X154250000Y-92000000D02*
X154250000Y-92500000D01*
X172250000Y-120500000D02*
X172250000Y-120000000D01*
X154250000Y-109250000D02*
X153750000Y-109250000D01*
X172250000Y-121500000D02*
X172250000Y-121000000D01*
X154250000Y-98500000D02*
X154250000Y-99000000D01*
X156500000Y-107250000D02*
X156000000Y-107250000D01*
X162000000Y-107250000D02*
X161500000Y-107250000D01*
X154250000Y-102500000D02*
X154250000Y-103000000D01*
X172250000Y-113000000D02*
X172250000Y-112500000D01*
X170500000Y-110000000D02*
X170000000Y-110000000D01*
X163500000Y-107250000D02*
X163000000Y-107250000D01*
X154250000Y-96000000D02*
X154250000Y-96500000D01*
X172250000Y-116500000D02*
X172250000Y-116000000D01*
X153250000Y-109250000D02*
X152750000Y-109250000D01*
X152750000Y-109250000D02*
X152250000Y-109250000D01*
X172250000Y-116000000D02*
X172250000Y-115500000D01*
X172250000Y-112500000D02*
X172250000Y-112000000D01*
X172250000Y-120000000D02*
X172250000Y-119500000D01*
X172250000Y-115000000D02*
X172250000Y-114500000D01*
X170000000Y-110000000D02*
X169500000Y-110000000D01*
X154250000Y-97500000D02*
X154250000Y-98000000D01*
X163500000Y-79500000D02*
X163500000Y-79250000D01*
X175000000Y-122000000D02*
X174500000Y-122000000D01*
X172250000Y-122000000D02*
X172250000Y-121500000D01*
X154250000Y-108750000D02*
X154250000Y-109250000D01*
X154250000Y-83500000D02*
X154250000Y-84000000D01*
X169000000Y-107250000D02*
X168500000Y-107250000D01*
X154250000Y-79500000D02*
X154250000Y-80000000D01*
X154250000Y-80250000D02*
X154250000Y-80750000D01*
X153500000Y-79500000D02*
X154000000Y-79500000D01*
X172250000Y-117500000D02*
X172250000Y-117000000D01*
X154250000Y-104500000D02*
X154250000Y-105000000D01*
X157500000Y-79250000D02*
X157000000Y-79250000D01*
X167500000Y-107250000D02*
X167000000Y-107250000D01*
X145500000Y-80500000D02*
X145500000Y-80000000D01*
X162500000Y-107250000D02*
X162000000Y-107250000D01*
X162500000Y-79250000D02*
X162000000Y-79250000D01*
X161000000Y-107250000D02*
X160500000Y-107250000D01*
X163500000Y-80000000D02*
X163500000Y-79500000D01*
X172250000Y-118000000D02*
X172250000Y-117500000D01*
X154250000Y-91000000D02*
X154250000Y-91500000D01*
X175500000Y-122000000D02*
X175000000Y-122000000D01*
X154250000Y-102000000D02*
X154250000Y-102500000D01*
X154500000Y-107250000D02*
X154250000Y-107250000D01*
X154250000Y-90500000D02*
X154250000Y-91000000D01*
X153750000Y-109250000D02*
X153250000Y-109250000D01*
X154250000Y-93500000D02*
X154250000Y-94000000D01*
X154250000Y-95500000D02*
X154250000Y-96000000D01*
X168500000Y-107250000D02*
X168000000Y-107250000D01*
X154250000Y-106500000D02*
X154250000Y-107000000D01*
X154250000Y-85000000D02*
X154250000Y-85500000D01*
X154250000Y-81000000D02*
X154250000Y-81500000D01*
X164000000Y-107250000D02*
X163500000Y-107250000D01*
X145500000Y-79500000D02*
X146000000Y-79500000D01*
X154250000Y-94000000D02*
X154250000Y-94500000D01*
X172250000Y-111000000D02*
X172250000Y-110500000D01*
X159500000Y-79250000D02*
X159000000Y-79250000D01*
X154250000Y-103500000D02*
X154250000Y-104000000D01*
X155500000Y-79250000D02*
X155000000Y-79250000D01*
X173000000Y-122000000D02*
X172500000Y-122000000D01*
X154250000Y-100000000D02*
X154250000Y-100500000D01*
X169000000Y-108000000D02*
X169000000Y-107500000D01*
X154250000Y-99500000D02*
X154250000Y-100000000D01*
X167000000Y-107250000D02*
X166500000Y-107250000D01*
X154250000Y-90000000D02*
X154250000Y-90500000D01*
X163500000Y-81500000D02*
X163500000Y-81000000D01*
X155000000Y-107250000D02*
X154500000Y-107250000D01*
X152500000Y-79500000D02*
X153000000Y-79500000D01*
X153000000Y-79500000D02*
X153500000Y-79500000D01*
X169000000Y-110000000D02*
X169000000Y-109500000D01*
X173500000Y-110000000D02*
X173000000Y-110000000D01*
X146500000Y-79500000D02*
X147000000Y-79500000D01*
X154250000Y-87000000D02*
X154250000Y-87500000D01*
X158500000Y-79250000D02*
X158000000Y-79250000D01*
X156000000Y-107250000D02*
X155500000Y-107250000D01*
X154250000Y-80750000D02*
X154250000Y-81250000D01*
X154000000Y-79500000D02*
X154250000Y-79500000D01*
X151500000Y-79500000D02*
X152000000Y-79500000D01*
X150000000Y-79500000D02*
X150500000Y-79500000D01*
X165500000Y-107250000D02*
X165000000Y-107250000D01*
X154250000Y-100500000D02*
X154250000Y-101000000D01*
X172000000Y-110000000D02*
X171500000Y-110000000D01*
X154250000Y-89500000D02*
X154250000Y-90000000D01*
X172250000Y-115500000D02*
X172250000Y-115000000D01*
X154250000Y-106000000D02*
X154250000Y-106500000D01*
X154250000Y-109250000D02*
X153750000Y-109250000D01*
X157500000Y-107250000D02*
X157000000Y-107250000D01*
X159000000Y-79250000D02*
X158500000Y-79250000D01*
X161000000Y-79250000D02*
X160500000Y-79250000D01*
X173500000Y-122000000D02*
X173000000Y-122000000D01*
X160000000Y-107250000D02*
X159500000Y-107250000D01*
X172250000Y-118500000D02*
X172250000Y-118000000D01*
X172500000Y-110000000D02*
X172000000Y-110000000D01*
X172250000Y-112000000D02*
X172250000Y-111500000D01*
X154250000Y-81500000D02*
X154250000Y-82000000D01*
X172250000Y-119500000D02*
X172250000Y-119000000D01*
X169000000Y-107500000D02*
X169000000Y-107250000D01*
X163000000Y-107250000D02*
X162500000Y-107250000D01*
X145500000Y-81500000D02*
X145500000Y-81000000D01*
X160500000Y-107250000D02*
X160000000Y-107250000D01*
X166500000Y-107250000D02*
X166000000Y-107250000D01*
X161500000Y-79250000D02*
X161000000Y-79250000D01*
X163500000Y-80500000D02*
X163500000Y-80000000D01*
X172250000Y-114000000D02*
X172250000Y-113500000D01*
X156000000Y-79250000D02*
X155500000Y-79250000D01*
X163500000Y-79250000D02*
X163000000Y-79250000D01*
X172250000Y-121000000D02*
X172250000Y-120500000D01*
X154250000Y-108500000D02*
X154250000Y-109000000D01*
X154250000Y-92500000D02*
X154250000Y-93000000D01*
X154250000Y-81750000D02*
X154250000Y-82000000D01*
X154250000Y-105000000D02*
X154250000Y-105500000D01*
X162000000Y-79250000D02*
X161500000Y-79250000D01*
X145500000Y-80000000D02*
X145500000Y-79500000D01*
X154250000Y-108000000D02*
X154250000Y-108500000D01*
X154250000Y-81250000D02*
X154250000Y-81750000D01*
X154250000Y-93000000D02*
X154250000Y-93500000D01*
X154250000Y-88500000D02*
X154250000Y-89000000D01*
X148000000Y-79500000D02*
X148500000Y-79500000D01*
X159500000Y-107250000D02*
X159000000Y-107250000D01*
X145500000Y-82000000D02*
X145500000Y-81500000D01*
X155500000Y-107250000D02*
X155000000Y-107250000D01*
X158000000Y-79250000D02*
X157500000Y-79250000D01*
X154250000Y-96500000D02*
X154250000Y-97000000D01*
X172250000Y-110500000D02*
X172250000Y-110000000D01*
X160500000Y-79250000D02*
X160000000Y-79250000D01*
X174000000Y-122000000D02*
X173500000Y-122000000D01*
X154250000Y-88000000D02*
X154250000Y-88500000D01*
X154250000Y-79750000D02*
X154250000Y-80250000D01*
X147500000Y-79500000D02*
X148000000Y-79500000D01*
X163500000Y-82000000D02*
X163500000Y-81500000D01*
X154250000Y-97000000D02*
X154250000Y-97500000D01*
X172750000Y-110000000D02*
X173250000Y-110000000D01*
X154250000Y-82500000D02*
X154250000Y-83000000D01*
X155000000Y-79250000D02*
X154500000Y-79250000D01*
X169500000Y-110000000D02*
X169000000Y-110000000D01*
X174500000Y-122000000D02*
X174000000Y-122000000D01*
X172250000Y-110000000D02*
X172750000Y-110000000D01*
X154250000Y-86000000D02*
X154250000Y-86500000D01*
X154250000Y-108250000D02*
X154250000Y-108750000D01*
X154250000Y-101500000D02*
X154250000Y-102000000D01*
X154250000Y-109000000D02*
X154250000Y-109250000D01*
X172500000Y-122000000D02*
X172250000Y-122000000D01*
X151000000Y-79500000D02*
X151500000Y-79500000D01*
X154250000Y-86500000D02*
X154250000Y-87000000D01*
X173000000Y-110000000D02*
X172500000Y-110000000D01*
X154250000Y-84500000D02*
X154250000Y-85000000D01*
X154250000Y-98000000D02*
X154250000Y-98500000D01*
X154250000Y-87500000D02*
X154250000Y-88000000D01*
X154250000Y-80000000D02*
X154250000Y-80500000D01*
X157000000Y-107250000D02*
X156500000Y-107250000D01*
X161500000Y-107250000D02*
X161000000Y-107250000D01*
%TO.N,PUMP_D*%
D25*
X159750000Y-120500000D02*
X159750000Y-120000000D01*
X179500000Y-124500000D02*
X179000000Y-124500000D01*
X151250000Y-119750000D02*
X150750000Y-119750000D01*
X158750000Y-119750000D02*
X158250000Y-119750000D01*
X160500000Y-124500000D02*
X160000000Y-124500000D01*
X174000000Y-124500000D02*
X173500000Y-124500000D01*
X159750000Y-122000000D02*
X159750000Y-121500000D01*
X166500000Y-124500000D02*
X166000000Y-124500000D01*
X150000000Y-120250000D02*
X150000000Y-120750000D01*
X150750000Y-119750000D02*
X150250000Y-119750000D01*
X150250000Y-119750000D02*
X150000000Y-119750000D01*
X174500000Y-124500000D02*
X174000000Y-124500000D01*
X152250000Y-119750000D02*
X151750000Y-119750000D01*
X159750000Y-124000000D02*
X159750000Y-123500000D01*
X163500000Y-124500000D02*
X163000000Y-124500000D01*
X180500000Y-124000000D02*
X180500000Y-124500000D01*
X173000000Y-124500000D02*
X172500000Y-124500000D01*
X176500000Y-124500000D02*
X176000000Y-124500000D01*
X180500000Y-122000000D02*
X180500000Y-122500000D01*
X159750000Y-123500000D02*
X159750000Y-123000000D01*
X159750000Y-124500000D02*
X159750000Y-124000000D01*
X156250000Y-119750000D02*
X155750000Y-119750000D01*
X171000000Y-124500000D02*
X170500000Y-124500000D01*
X159750000Y-121000000D02*
X159750000Y-120500000D01*
X177500000Y-124500000D02*
X177000000Y-124500000D01*
X175500000Y-124500000D02*
X175000000Y-124500000D01*
X150000000Y-121250000D02*
X150000000Y-121750000D01*
X161500000Y-124500000D02*
X161000000Y-124500000D01*
X177000000Y-124500000D02*
X176500000Y-124500000D01*
X180500000Y-123500000D02*
X180500000Y-124000000D01*
X165500000Y-124500000D02*
X165000000Y-124500000D01*
X169000000Y-124500000D02*
X168500000Y-124500000D01*
X159750000Y-120000000D02*
X159750000Y-119750000D01*
X169500000Y-124500000D02*
X169000000Y-124500000D01*
X170000000Y-124500000D02*
X169500000Y-124500000D01*
X180500000Y-123000000D02*
X180500000Y-123500000D01*
X153250000Y-119750000D02*
X152750000Y-119750000D01*
X168000000Y-124500000D02*
X167500000Y-124500000D01*
X171500000Y-124500000D02*
X171000000Y-124500000D01*
X157250000Y-119750000D02*
X156750000Y-119750000D01*
X162000000Y-124500000D02*
X161500000Y-124500000D01*
X178500000Y-124500000D02*
X178000000Y-124500000D01*
X158250000Y-119750000D02*
X157750000Y-119750000D01*
X154250000Y-119750000D02*
X153750000Y-119750000D01*
X165000000Y-124500000D02*
X164500000Y-124500000D01*
X150000000Y-120750000D02*
X150000000Y-121250000D01*
X157750000Y-119750000D02*
X157250000Y-119750000D01*
X179000000Y-124500000D02*
X178500000Y-124500000D01*
X180000000Y-124500000D02*
X179500000Y-124500000D01*
X159750000Y-123000000D02*
X159750000Y-122500000D01*
X164000000Y-124500000D02*
X163500000Y-124500000D01*
X167000000Y-124500000D02*
X166500000Y-124500000D01*
X152750000Y-119750000D02*
X152250000Y-119750000D01*
X178000000Y-124500000D02*
X177500000Y-124500000D01*
X173500000Y-124500000D02*
X173000000Y-124500000D01*
X155750000Y-119750000D02*
X155250000Y-119750000D01*
X176000000Y-124500000D02*
X175500000Y-124500000D01*
X159750000Y-119750000D02*
X159250000Y-119750000D01*
X161000000Y-124500000D02*
X160500000Y-124500000D01*
X160000000Y-124500000D02*
X159750000Y-124500000D01*
X154750000Y-119750000D02*
X154250000Y-119750000D01*
X150000000Y-119750000D02*
X150000000Y-120250000D01*
X155250000Y-119750000D02*
X154750000Y-119750000D01*
X164500000Y-124500000D02*
X164000000Y-124500000D01*
X159750000Y-121500000D02*
X159750000Y-121000000D01*
X167500000Y-124500000D02*
X167000000Y-124500000D01*
X180500000Y-124500000D02*
X180000000Y-124500000D01*
X166000000Y-124500000D02*
X165500000Y-124500000D01*
X162500000Y-124500000D02*
X162000000Y-124500000D01*
X150000000Y-121750000D02*
X150000000Y-122000000D01*
X172000000Y-124500000D02*
X171500000Y-124500000D01*
X159750000Y-122500000D02*
X159750000Y-122000000D01*
X175000000Y-124500000D02*
X174500000Y-124500000D01*
X180500000Y-122500000D02*
X180500000Y-123000000D01*
X159250000Y-119750000D02*
X158750000Y-119750000D01*
X168500000Y-124500000D02*
X168000000Y-124500000D01*
X151750000Y-119750000D02*
X151250000Y-119750000D01*
X172500000Y-124500000D02*
X172000000Y-124500000D01*
X170500000Y-124500000D02*
X170000000Y-124500000D01*
X153750000Y-119750000D02*
X153250000Y-119750000D01*
X156750000Y-119750000D02*
X156250000Y-119750000D01*
X163000000Y-124500000D02*
X162500000Y-124500000D01*
%TO.N,+3.3V*%
D26*
X130000000Y-80750000D02*
X130000000Y-81250000D01*
X130000000Y-79250000D02*
X130000000Y-79750000D01*
X130000000Y-81250000D02*
X130000000Y-81750000D01*
X130000000Y-86000000D02*
X130000000Y-85500000D01*
X130000000Y-82250000D02*
X130000000Y-82750000D01*
X130000000Y-87000000D02*
X130000000Y-87000000D01*
X130000000Y-82750000D02*
X130000000Y-83250000D01*
X130000000Y-83750000D02*
X130000000Y-84250000D01*
X130000000Y-87000000D02*
X130000000Y-86500000D01*
X130000000Y-79750000D02*
X130000000Y-80250000D01*
X130000000Y-86500000D02*
X130000000Y-86000000D01*
X130000000Y-84250000D02*
X130000000Y-84750000D01*
X130000000Y-85500000D02*
X130000000Y-85250000D01*
X130000000Y-78750000D02*
X130000000Y-79250000D01*
X130000000Y-84750000D02*
X130000000Y-85250000D01*
X130000000Y-81750000D02*
X130000000Y-82250000D01*
X130000000Y-80250000D02*
X130000000Y-80750000D01*
X130000000Y-83250000D02*
X130000000Y-83750000D01*
%TO.N,GATE*%
D23*
X143000000Y-118000000D02*
X142500000Y-118000000D01*
X147000000Y-118000000D02*
X146500000Y-118000000D01*
X144000000Y-118000000D02*
X143500000Y-118000000D01*
X141500000Y-118000000D02*
X141000000Y-118000000D01*
X141000000Y-118000000D02*
X140500000Y-118000000D01*
X142500000Y-118000000D02*
X142000000Y-118000000D01*
X139500000Y-118000000D02*
X139000000Y-118000000D01*
X140500000Y-118000000D02*
X140000000Y-118000000D01*
X142000000Y-118000000D02*
X141500000Y-118000000D01*
X147500000Y-119500000D02*
X147500000Y-119000000D01*
X143500000Y-118000000D02*
X143000000Y-118000000D01*
X147500000Y-120500000D02*
X147500000Y-120000000D01*
X147500000Y-118500000D02*
X147500000Y-118000000D01*
X147500000Y-121500000D02*
X147500000Y-121000000D01*
X147500000Y-121000000D02*
X147500000Y-120500000D01*
X144500000Y-118000000D02*
X144000000Y-118000000D01*
X145000000Y-118000000D02*
X144500000Y-118000000D01*
X147500000Y-122000000D02*
X147500000Y-121500000D01*
X147500000Y-118000000D02*
X147000000Y-118000000D01*
X147500000Y-120000000D02*
X147500000Y-119500000D01*
X147500000Y-119000000D02*
X147500000Y-118500000D01*
X140000000Y-118000000D02*
X139500000Y-118000000D01*
X145500000Y-118000000D02*
X145000000Y-118000000D01*
X146500000Y-118000000D02*
X146000000Y-118000000D01*
X146000000Y-118000000D02*
X145500000Y-118000000D01*
%TO.N,VALVE*%
X124250000Y-88750000D02*
X124250000Y-88750000D01*
X114750000Y-90000000D02*
X114750000Y-90500000D01*
X114750000Y-90500000D02*
X114750000Y-91000000D01*
X114750000Y-91500000D02*
X114750000Y-92000000D01*
X114750000Y-91000000D02*
X114750000Y-91500000D01*
X124250000Y-87750000D02*
X124250000Y-87250000D01*
X114750000Y-89500000D02*
X114750000Y-89500000D01*
X124250000Y-88250000D02*
X124250000Y-87750000D01*
X124250000Y-87250000D02*
X124250000Y-86750000D01*
X114750000Y-89500000D02*
X114750000Y-90000000D01*
X124250000Y-88750000D02*
X124250000Y-88250000D01*
X124250000Y-86750000D02*
X124250000Y-86250000D01*
X124250000Y-86250000D02*
X124250000Y-85750000D01*
X114750000Y-92000000D02*
X114750000Y-92500000D01*
%TD*%
M02*
