%TF.GenerationSoftware,KiCad,Pcbnew,10.0.5*%
%TF.CreationDate,2026-07-30T21:48:50+08:00*%
%TF.ProjectId,board,626f6172-642e-46b6-9963-61645f706362,rev?*%
%TF.SameCoordinates,Original*%
%TF.FileFunction,Copper,L2,Bot*%
%TF.FilePolarity,Positive*%
%FSLAX46Y46*%
G04 Gerber Fmt 4.6, Leading zero omitted, Abs format (unit mm)*
G04 Created by KiCad (PCBNEW 10.0.5) date 2026-07-30 21:48:50*
%MOMM*%
%LPD*%
G01*
G04 APERTURE LIST*
%TA.AperFunction,ComponentPad*%
%ADD10R,1.900000X1.900000*%
%TD*%
%TA.AperFunction,ComponentPad*%
%ADD11C,1.900000*%
%TD*%
%TA.AperFunction,ComponentPad*%
%ADD12R,2.000000X2.000000*%
%TD*%
%TA.AperFunction,ComponentPad*%
%ADD13C,2.000000*%
%TD*%
%TA.AperFunction,ComponentPad*%
%ADD14R,2.600000X2.600000*%
%TD*%
%TA.AperFunction,ComponentPad*%
%ADD15C,2.600000*%
%TD*%
%TA.AperFunction,ComponentPad*%
%ADD16C,1.800000*%
%TD*%
%TA.AperFunction,ComponentPad*%
%ADD17R,1.800000X1.800000*%
%TD*%
%TA.AperFunction,ViaPad*%
%ADD18C,1.200000*%
%TD*%
%TA.AperFunction,Conductor*%
%ADD19C,0.800000*%
%TD*%
%TA.AperFunction,Conductor*%
%ADD20C,1.000000*%
%TD*%
%TA.AperFunction,Conductor*%
%ADD21C,0.400000*%
%TD*%
%TA.AperFunction,Conductor*%
%ADD22C,0.600000*%
%TD*%
%TA.AperFunction,Conductor*%
%ADD23C,1.500000*%
%TD*%
G04 APERTURE END LIST*
D10*
%TO.P,J2,1*%
%TO.N,+5V*%
X112000000Y-112190000D03*
D11*
%TO.P,J2,2*%
%TO.N,GND*%
X112000000Y-114730000D03*
%TO.P,J2,3*%
%TO.N,SCL*%
X112000000Y-117270000D03*
%TO.P,J2,4*%
%TO.N,SDA*%
X112000000Y-119810000D03*
%TD*%
D12*
%TO.P,C1,1*%
%TO.N,+12V*%
X154250000Y-82000000D03*
D13*
%TO.P,C1,2*%
%TO.N,GND*%
X157750000Y-82000000D03*
%TD*%
D14*
%TO.P,D1,1*%
%TO.N,PUMP_D*%
X159650000Y-122000000D03*
D15*
%TO.P,D1,2*%
%TO.N,+12V*%
X172350000Y-122000000D03*
%TD*%
D16*
%TO.P,C3,1*%
%TO.N,+5V*%
X117460000Y-126000000D03*
%TO.P,C3,2*%
%TO.N,GND*%
X122540000Y-126000000D03*
%TD*%
%TO.P,C2,1*%
%TO.N,+12V*%
X145460000Y-82000000D03*
%TO.P,C2,2*%
%TO.N,GND*%
X150540000Y-82000000D03*
%TD*%
D12*
%TO.P,D2,1*%
%TO.N,VALVE_OUT*%
X158920000Y-110000000D03*
D13*
%TO.P,D2,2*%
%TO.N,+12V*%
X169080000Y-110000000D03*
%TD*%
D12*
%TO.P,Q1,1*%
%TO.N,GATE*%
X147460000Y-122000000D03*
D13*
%TO.P,Q1,2*%
%TO.N,PUMP_D*%
X150000000Y-122000000D03*
%TO.P,Q1,3*%
%TO.N,GND*%
X152540000Y-122000000D03*
%TD*%
D10*
%TO.P,J1,1*%
%TO.N,SCL*%
X112000000Y-85650000D03*
D11*
%TO.P,J1,2*%
%TO.N,SDA*%
X112000000Y-88190000D03*
%TO.P,J1,3*%
%TO.N,PUMP*%
X112000000Y-90730000D03*
%TO.P,J1,4*%
%TO.N,VALVE*%
X112000000Y-93270000D03*
%TO.P,J1,5*%
%TO.N,GND*%
X112000000Y-95810000D03*
%TO.P,J1,6*%
%TO.N,+5V*%
X112000000Y-98350000D03*
%TD*%
D14*
%TO.P,T2,1*%
%TO.N,+12V*%
X173500000Y-110000000D03*
D15*
%TO.P,T2,2*%
%TO.N,VALVE_OUT*%
X178500000Y-110000000D03*
%TD*%
D14*
%TO.P,T1,1*%
%TO.N,+12V*%
X175500000Y-122000000D03*
D15*
%TO.P,T1,2*%
%TO.N,PUMP_D*%
X180500000Y-122000000D03*
%TD*%
D14*
%TO.P,T3,1*%
%TO.N,+12V*%
X163500000Y-82000000D03*
D15*
%TO.P,T3,2*%
%TO.N,GND*%
X168500000Y-82000000D03*
%TD*%
D17*
%TO.P,U2,1*%
%TO.N,VALVE*%
X144190000Y-88840000D03*
D16*
%TO.P,U2,2*%
%TO.N,N/C*%
X144190000Y-91380000D03*
%TO.P,U2,3*%
X144190000Y-93920000D03*
%TO.P,U2,4*%
X144190000Y-96460000D03*
%TO.P,U2,5*%
X144190000Y-99000000D03*
%TO.P,U2,6*%
X144190000Y-101540000D03*
%TO.P,U2,7*%
X144190000Y-104080000D03*
%TO.P,U2,8*%
X144190000Y-106620000D03*
%TO.P,U2,9*%
%TO.N,GND*%
X144190000Y-109160000D03*
%TO.P,U2,10*%
%TO.N,+12V*%
X151810000Y-109160000D03*
%TO.P,U2,11*%
%TO.N,N/C*%
X151810000Y-106620000D03*
%TO.P,U2,12*%
X151810000Y-104080000D03*
%TO.P,U2,13*%
X151810000Y-101540000D03*
%TO.P,U2,14*%
X151810000Y-99000000D03*
%TO.P,U2,15*%
X151810000Y-96460000D03*
%TO.P,U2,16*%
X151810000Y-93920000D03*
%TO.P,U2,17*%
X151810000Y-91380000D03*
%TO.P,U2,18*%
%TO.N,VALVE_OUT*%
X151810000Y-88840000D03*
%TD*%
D12*
%TO.P,R3,1*%
%TO.N,PUMP*%
X128920000Y-118000000D03*
D13*
%TO.P,R3,2*%
%TO.N,GATE*%
X139080000Y-118000000D03*
%TD*%
D12*
%TO.P,R2,1*%
%TO.N,+3.3V*%
X120920000Y-100000000D03*
D13*
%TO.P,R2,2*%
%TO.N,SDA*%
X131080000Y-100000000D03*
%TD*%
D12*
%TO.P,R4,1*%
%TO.N,GATE*%
X128920000Y-128000000D03*
D13*
%TO.P,R4,2*%
%TO.N,GND*%
X139080000Y-128000000D03*
%TD*%
D12*
%TO.P,R1,1*%
%TO.N,+3.3V*%
X120920000Y-92000000D03*
D13*
%TO.P,R1,2*%
%TO.N,SCL*%
X131080000Y-92000000D03*
%TD*%
D18*
%TO.N,GND*%
X127750000Y-85250000D03*
%TO.N,SCL*%
X123000000Y-92000000D03*
%TO.N,SDA*%
X122250000Y-93750000D03*
%TO.N,+3.3V*%
X130000000Y-87000000D03*
%TO.N,VALVE*%
X114750000Y-92500000D03*
X124250000Y-88750000D03*
X114750000Y-89500000D03*
X124250000Y-85750000D03*
%TD*%
%TO.N,+5V*%
D19*
X117500000Y-115000000D02*
X117500000Y-114500000D01*
X117500000Y-126000000D02*
X117500000Y-125500000D01*
X117500000Y-117500000D02*
X117500000Y-117000000D01*
X117500000Y-121500000D02*
X117500000Y-121000000D01*
X117500000Y-122500000D02*
X117500000Y-122000000D01*
X116500000Y-112250000D02*
X116000000Y-112250000D01*
X117500000Y-118500000D02*
X117500000Y-118000000D01*
X117500000Y-114000000D02*
X117500000Y-113500000D01*
X117500000Y-125500000D02*
X117500000Y-125000000D01*
X116000000Y-112250000D02*
X115500000Y-112250000D01*
X117500000Y-115500000D02*
X117500000Y-115000000D01*
X117500000Y-120500000D02*
X117500000Y-120000000D01*
X113500000Y-112250000D02*
X113000000Y-112250000D01*
X117500000Y-120000000D02*
X117500000Y-119500000D01*
X114500000Y-112250000D02*
X114000000Y-112250000D01*
X117500000Y-118000000D02*
X117500000Y-117500000D01*
X117500000Y-122000000D02*
X117500000Y-121500000D01*
X117500000Y-119500000D02*
X117500000Y-119000000D01*
X113000000Y-112250000D02*
X112500000Y-112250000D01*
X117500000Y-121000000D02*
X117500000Y-120500000D01*
X117500000Y-119000000D02*
X117500000Y-118500000D01*
X117500000Y-116000000D02*
X117500000Y-115500000D01*
X114000000Y-112250000D02*
X113500000Y-112250000D01*
X112500000Y-112250000D02*
X112000000Y-112250000D01*
X117500000Y-117000000D02*
X117500000Y-116500000D01*
X117000000Y-112250000D02*
X116500000Y-112250000D01*
X117500000Y-113000000D02*
X117500000Y-112500000D01*
X115500000Y-112250000D02*
X115000000Y-112250000D01*
X117500000Y-125000000D02*
X117500000Y-124500000D01*
X117500000Y-113500000D02*
X117500000Y-113000000D01*
X117500000Y-123000000D02*
X117500000Y-122500000D01*
X117500000Y-124500000D02*
X117500000Y-124000000D01*
X117500000Y-124000000D02*
X117500000Y-123500000D01*
X117500000Y-112250000D02*
X117000000Y-112250000D01*
X117500000Y-116500000D02*
X117500000Y-116000000D01*
X117500000Y-112500000D02*
X117500000Y-112250000D01*
X115000000Y-112250000D02*
X114500000Y-112250000D01*
X117500000Y-114500000D02*
X117500000Y-114000000D01*
X117500000Y-123500000D02*
X117500000Y-123000000D01*
%TO.N,GND*%
D20*
X149000000Y-85250000D02*
X148500000Y-85250000D01*
X150750000Y-80000000D02*
X150500000Y-80000000D01*
X145000000Y-85250000D02*
X144500000Y-85250000D01*
X154250000Y-80000000D02*
X153750000Y-80000000D01*
X145500000Y-85250000D02*
X145000000Y-85250000D01*
X150000000Y-85250000D02*
X149500000Y-85250000D01*
X146250000Y-120000000D02*
X146750000Y-120000000D01*
X144250000Y-120000000D02*
X144750000Y-120000000D01*
X150750000Y-120000000D02*
X151250000Y-120000000D01*
X133000000Y-85250000D02*
X132500000Y-85250000D01*
X144250000Y-114250000D02*
X144250000Y-114750000D01*
X148750000Y-120000000D02*
X149250000Y-120000000D01*
X150500000Y-84500000D02*
X150500000Y-85000000D01*
X144250000Y-110250000D02*
X144250000Y-110750000D01*
X137500000Y-85250000D02*
X137000000Y-85250000D01*
X155750000Y-80000000D02*
X155250000Y-80000000D01*
X144250000Y-109250000D02*
X144250000Y-109750000D01*
X137000000Y-85250000D02*
X136500000Y-85250000D01*
X151250000Y-80000000D02*
X150750000Y-80000000D01*
X148000000Y-85250000D02*
X147500000Y-85250000D01*
X148500000Y-85250000D02*
X148000000Y-85250000D01*
X129500000Y-85250000D02*
X129000000Y-85250000D01*
X143500000Y-85250000D02*
X143000000Y-85250000D01*
X136000000Y-85250000D02*
X135500000Y-85250000D01*
X144250000Y-115250000D02*
X144250000Y-115750000D01*
X150500000Y-82500000D02*
X150500000Y-83000000D01*
X152750000Y-80000000D02*
X152250000Y-80000000D01*
X143000000Y-85250000D02*
X142500000Y-85250000D01*
X152250000Y-80000000D02*
X151750000Y-80000000D01*
X139500000Y-85250000D02*
X139000000Y-85250000D01*
X157750000Y-81000000D02*
X157750000Y-80500000D01*
X148250000Y-120000000D02*
X148750000Y-120000000D01*
X156250000Y-80000000D02*
X155750000Y-80000000D01*
X144250000Y-117250000D02*
X144250000Y-117750000D01*
X144250000Y-110750000D02*
X144250000Y-111250000D01*
X142000000Y-85250000D02*
X141500000Y-85250000D01*
X139000000Y-85250000D02*
X138500000Y-85250000D01*
X150500000Y-83000000D02*
X150500000Y-83500000D01*
X132000000Y-85250000D02*
X131500000Y-85250000D01*
X135500000Y-85250000D02*
X135000000Y-85250000D01*
X138500000Y-85250000D02*
X138000000Y-85250000D01*
X144250000Y-114750000D02*
X144250000Y-115250000D01*
X144250000Y-112750000D02*
X144250000Y-113250000D01*
X144250000Y-118250000D02*
X144250000Y-118750000D01*
X144000000Y-85250000D02*
X143500000Y-85250000D01*
X152250000Y-120000000D02*
X152500000Y-120000000D01*
X149750000Y-120000000D02*
X150250000Y-120000000D01*
X144250000Y-116250000D02*
X144250000Y-116750000D01*
X141500000Y-85250000D02*
X141000000Y-85250000D01*
X150500000Y-82000000D02*
X150500000Y-82500000D01*
X154750000Y-80000000D02*
X154250000Y-80000000D01*
X157750000Y-81500000D02*
X157750000Y-81000000D01*
X141000000Y-85250000D02*
X140500000Y-85250000D01*
X147500000Y-85250000D02*
X147000000Y-85250000D01*
X146500000Y-85250000D02*
X146000000Y-85250000D01*
X150500000Y-81500000D02*
X150500000Y-82000000D01*
X140500000Y-85250000D02*
X140000000Y-85250000D01*
X131500000Y-85250000D02*
X131000000Y-85250000D01*
X144250000Y-119250000D02*
X144250000Y-119750000D01*
X152500000Y-121000000D02*
X152500000Y-121500000D01*
X150500000Y-80000000D02*
X150500000Y-80500000D01*
X144250000Y-111250000D02*
X144250000Y-111750000D01*
X134500000Y-85250000D02*
X134000000Y-85250000D01*
X136500000Y-85250000D02*
X136000000Y-85250000D01*
X128500000Y-85250000D02*
X128000000Y-85250000D01*
X144250000Y-119750000D02*
X144250000Y-120000000D01*
X147250000Y-120000000D02*
X147750000Y-120000000D01*
X151750000Y-120000000D02*
X152250000Y-120000000D01*
X129000000Y-85250000D02*
X128500000Y-85250000D01*
X149500000Y-85250000D02*
X149000000Y-85250000D01*
X149250000Y-120000000D02*
X149750000Y-120000000D01*
X144250000Y-117750000D02*
X144250000Y-118250000D01*
X150500000Y-80500000D02*
X150500000Y-81000000D01*
X144250000Y-112250000D02*
X144250000Y-112750000D01*
X153750000Y-80000000D02*
X153250000Y-80000000D01*
X144500000Y-85250000D02*
X144000000Y-85250000D01*
X144250000Y-115750000D02*
X144250000Y-116250000D01*
X157250000Y-80000000D02*
X156750000Y-80000000D01*
X155250000Y-80000000D02*
X154750000Y-80000000D01*
X150500000Y-85250000D02*
X150000000Y-85250000D01*
X156750000Y-80000000D02*
X156250000Y-80000000D01*
X150500000Y-83500000D02*
X150500000Y-84000000D01*
X128000000Y-85250000D02*
X127750000Y-85250000D01*
X133500000Y-85250000D02*
X133000000Y-85250000D01*
X140000000Y-85250000D02*
X139500000Y-85250000D01*
X144250000Y-113250000D02*
X144250000Y-113750000D01*
X157750000Y-82000000D02*
X157750000Y-81500000D01*
X138000000Y-85250000D02*
X137500000Y-85250000D01*
X150500000Y-81000000D02*
X150500000Y-81500000D01*
X144250000Y-116750000D02*
X144250000Y-117250000D01*
X150500000Y-85000000D02*
X150500000Y-85250000D01*
X157750000Y-80500000D02*
X157750000Y-80000000D01*
X135000000Y-85250000D02*
X134500000Y-85250000D01*
X157750000Y-80000000D02*
X157250000Y-80000000D01*
X144250000Y-113750000D02*
X144250000Y-114250000D01*
X130000000Y-85250000D02*
X129500000Y-85250000D01*
X153250000Y-80000000D02*
X152750000Y-80000000D01*
X131000000Y-85250000D02*
X130500000Y-85250000D01*
X132500000Y-85250000D02*
X132000000Y-85250000D01*
X144250000Y-109750000D02*
X144250000Y-110250000D01*
X151250000Y-120000000D02*
X151750000Y-120000000D01*
X150250000Y-120000000D02*
X150750000Y-120000000D01*
X144750000Y-120000000D02*
X145250000Y-120000000D01*
X147000000Y-85250000D02*
X146500000Y-85250000D01*
X150500000Y-84000000D02*
X150500000Y-84500000D01*
X152500000Y-121500000D02*
X152500000Y-122000000D01*
X134000000Y-85250000D02*
X133500000Y-85250000D01*
X130500000Y-85250000D02*
X130000000Y-85250000D01*
X151750000Y-80000000D02*
X151250000Y-80000000D01*
X152500000Y-120500000D02*
X152500000Y-121000000D01*
X144250000Y-118750000D02*
X144250000Y-119250000D01*
X146000000Y-85250000D02*
X145500000Y-85250000D01*
X144250000Y-111750000D02*
X144250000Y-112250000D01*
X142500000Y-85250000D02*
X142000000Y-85250000D01*
X145250000Y-120000000D02*
X145750000Y-120000000D01*
X145750000Y-120000000D02*
X146250000Y-120000000D01*
X152500000Y-120000000D02*
X152500000Y-120500000D01*
X146750000Y-120000000D02*
X147250000Y-120000000D01*
X147750000Y-120000000D02*
X148250000Y-120000000D01*
%TO.N,SCL*%
D21*
X111500000Y-117250000D02*
X111000000Y-117250000D01*
X110500000Y-102750000D02*
X110500000Y-102250000D01*
X110500000Y-111250000D02*
X110500000Y-110750000D01*
X110500000Y-100750000D02*
X110500000Y-100250000D01*
X110500000Y-90750000D02*
X110500000Y-90250000D01*
X129500000Y-92000000D02*
X129000000Y-92000000D01*
X110500000Y-97250000D02*
X110500000Y-96750000D01*
X112000000Y-117250000D02*
X111500000Y-117250000D01*
X111000000Y-85750000D02*
X111500000Y-85750000D01*
X124500000Y-92000000D02*
X124000000Y-92000000D01*
X126500000Y-92000000D02*
X126000000Y-92000000D01*
X110500000Y-114750000D02*
X110500000Y-114250000D01*
X110500000Y-97750000D02*
X110500000Y-97250000D01*
X110500000Y-101250000D02*
X110500000Y-100750000D01*
X130500000Y-92000000D02*
X130000000Y-92000000D01*
X110500000Y-93250000D02*
X110500000Y-92750000D01*
X110500000Y-114250000D02*
X110500000Y-113750000D01*
X110500000Y-88750000D02*
X110500000Y-88250000D01*
X110500000Y-86250000D02*
X110500000Y-85750000D01*
X110500000Y-91750000D02*
X110500000Y-91250000D01*
X110500000Y-89250000D02*
X110500000Y-88750000D01*
X128000000Y-92000000D02*
X127500000Y-92000000D01*
X110500000Y-93750000D02*
X110500000Y-93250000D01*
X110500000Y-98250000D02*
X110500000Y-97750000D01*
X110500000Y-107250000D02*
X110500000Y-106750000D01*
X110500000Y-108750000D02*
X110500000Y-108250000D01*
X128500000Y-92000000D02*
X128000000Y-92000000D01*
X110500000Y-115750000D02*
X110500000Y-115250000D01*
X110500000Y-91250000D02*
X110500000Y-90750000D01*
X123500000Y-92000000D02*
X123000000Y-92000000D01*
X126000000Y-92000000D02*
X125500000Y-92000000D01*
X129000000Y-92000000D02*
X128500000Y-92000000D01*
X110500000Y-92750000D02*
X110500000Y-92250000D01*
X127000000Y-92000000D02*
X126500000Y-92000000D01*
X110500000Y-94750000D02*
X110500000Y-94250000D01*
X110500000Y-109750000D02*
X110500000Y-109250000D01*
X110500000Y-112250000D02*
X110500000Y-111750000D01*
X110500000Y-111750000D02*
X110500000Y-111250000D01*
X110500000Y-89750000D02*
X110500000Y-89250000D01*
X110500000Y-112750000D02*
X110500000Y-112250000D01*
X110500000Y-110750000D02*
X110500000Y-110250000D01*
X110500000Y-96250000D02*
X110500000Y-95750000D01*
X110500000Y-96750000D02*
X110500000Y-96250000D01*
X110500000Y-115250000D02*
X110500000Y-114750000D01*
X110500000Y-92250000D02*
X110500000Y-91750000D01*
X110500000Y-94250000D02*
X110500000Y-93750000D01*
X124000000Y-92000000D02*
X123500000Y-92000000D01*
X110500000Y-98750000D02*
X110500000Y-98250000D01*
X130000000Y-92000000D02*
X129500000Y-92000000D01*
X110500000Y-99750000D02*
X110500000Y-99250000D01*
X110500000Y-95750000D02*
X110500000Y-95250000D01*
X110500000Y-86750000D02*
X110500000Y-86250000D01*
X110500000Y-103750000D02*
X110500000Y-103250000D01*
X110500000Y-106750000D02*
X110500000Y-106250000D01*
X110500000Y-87750000D02*
X110500000Y-87250000D01*
X125000000Y-92000000D02*
X124500000Y-92000000D01*
X110500000Y-109250000D02*
X110500000Y-108750000D01*
X110500000Y-100250000D02*
X110500000Y-99750000D01*
X110500000Y-101750000D02*
X110500000Y-101250000D01*
X110500000Y-110250000D02*
X110500000Y-109750000D01*
X110500000Y-87250000D02*
X110500000Y-86750000D01*
X110500000Y-104750000D02*
X110500000Y-104250000D01*
X110500000Y-105750000D02*
X110500000Y-105250000D01*
X110500000Y-113250000D02*
X110500000Y-112750000D01*
X110500000Y-107750000D02*
X110500000Y-107250000D01*
X110500000Y-85750000D02*
X111000000Y-85750000D01*
X110500000Y-102250000D02*
X110500000Y-101750000D01*
X110500000Y-95250000D02*
X110500000Y-94750000D01*
X110500000Y-113750000D02*
X110500000Y-113250000D01*
X110500000Y-103250000D02*
X110500000Y-102750000D01*
X110500000Y-108250000D02*
X110500000Y-107750000D01*
X110500000Y-99250000D02*
X110500000Y-98750000D01*
X110500000Y-104250000D02*
X110500000Y-103750000D01*
X110500000Y-88250000D02*
X110500000Y-87750000D01*
X125500000Y-92000000D02*
X125000000Y-92000000D01*
X127500000Y-92000000D02*
X127000000Y-92000000D01*
X110500000Y-106250000D02*
X110500000Y-105750000D01*
X111000000Y-117250000D02*
X110500000Y-117250000D01*
X110500000Y-116750000D02*
X110500000Y-116250000D01*
X111500000Y-85750000D02*
X112000000Y-85750000D01*
X131000000Y-92000000D02*
X130500000Y-92000000D01*
X110500000Y-90250000D02*
X110500000Y-89750000D01*
X110500000Y-117250000D02*
X110500000Y-116750000D01*
X110500000Y-105250000D02*
X110500000Y-104750000D01*
X110500000Y-116250000D02*
X110500000Y-115750000D01*
%TO.N,SDA*%
X131000000Y-94500000D02*
X131000000Y-94000000D01*
X128500000Y-93750000D02*
X128000000Y-93750000D01*
X125000000Y-93750000D02*
X124500000Y-93750000D01*
X126500000Y-93750000D02*
X126000000Y-93750000D01*
X126000000Y-93750000D02*
X125500000Y-93750000D01*
X122500000Y-93750000D02*
X122250000Y-93750000D01*
X127000000Y-93750000D02*
X126500000Y-93750000D01*
X131000000Y-95000000D02*
X131000000Y-94500000D01*
X131000000Y-99500000D02*
X131000000Y-99000000D01*
X131000000Y-96500000D02*
X131000000Y-96000000D01*
X123000000Y-93750000D02*
X122500000Y-93750000D01*
X130000000Y-93750000D02*
X129500000Y-93750000D01*
X129500000Y-93750000D02*
X129000000Y-93750000D01*
X130500000Y-93750000D02*
X130000000Y-93750000D01*
X129000000Y-93750000D02*
X128500000Y-93750000D01*
X131000000Y-97000000D02*
X131000000Y-96500000D01*
X124500000Y-93750000D02*
X124000000Y-93750000D01*
X131000000Y-93750000D02*
X130500000Y-93750000D01*
X131000000Y-97500000D02*
X131000000Y-97000000D01*
X131000000Y-95500000D02*
X131000000Y-95000000D01*
X124000000Y-93750000D02*
X123500000Y-93750000D01*
X131000000Y-98500000D02*
X131000000Y-98000000D01*
X127500000Y-93750000D02*
X127000000Y-93750000D01*
X123500000Y-93750000D02*
X123000000Y-93750000D01*
X131000000Y-100000000D02*
X131000000Y-99500000D01*
X125500000Y-93750000D02*
X125000000Y-93750000D01*
X131000000Y-96000000D02*
X131000000Y-95500000D01*
X128000000Y-93750000D02*
X127500000Y-93750000D01*
X131000000Y-94000000D02*
X131000000Y-93750000D01*
X131000000Y-99000000D02*
X131000000Y-98500000D01*
X131000000Y-98000000D02*
X131000000Y-97500000D01*
%TO.N,+3.3V*%
D22*
X121000000Y-88000000D02*
X121000000Y-87500000D01*
X124000000Y-87000000D02*
X124500000Y-87000000D01*
X121000000Y-96500000D02*
X121000000Y-96000000D01*
X124500000Y-87000000D02*
X125000000Y-87000000D01*
X121000000Y-97500000D02*
X121000000Y-97000000D01*
X121000000Y-90500000D02*
X121000000Y-90000000D01*
X125000000Y-87000000D02*
X125500000Y-87000000D01*
X122000000Y-87000000D02*
X122500000Y-87000000D01*
X121000000Y-99500000D02*
X121000000Y-99000000D01*
X121000000Y-93000000D02*
X121000000Y-92500000D01*
X121000000Y-92500000D02*
X121000000Y-92000000D01*
X121000000Y-99000000D02*
X121000000Y-98500000D01*
X121000000Y-100000000D02*
X121000000Y-99500000D01*
X121000000Y-92000000D02*
X121000000Y-91500000D01*
X125500000Y-87000000D02*
X126000000Y-87000000D01*
X121000000Y-90000000D02*
X121000000Y-89500000D01*
X121000000Y-87000000D02*
X121500000Y-87000000D01*
X126000000Y-87000000D02*
X126500000Y-87000000D01*
X128500000Y-87000000D02*
X129000000Y-87000000D01*
X121000000Y-91000000D02*
X121000000Y-90500000D01*
X121000000Y-98500000D02*
X121000000Y-98000000D01*
X123000000Y-87000000D02*
X123500000Y-87000000D01*
X129000000Y-87000000D02*
X129500000Y-87000000D01*
X127500000Y-87000000D02*
X128000000Y-87000000D01*
X121000000Y-96000000D02*
X121000000Y-95500000D01*
X121000000Y-95500000D02*
X121000000Y-95000000D01*
X121000000Y-94000000D02*
X121000000Y-93500000D01*
X121000000Y-94500000D02*
X121000000Y-94000000D01*
X121000000Y-95000000D02*
X121000000Y-94500000D01*
X121000000Y-91500000D02*
X121000000Y-91000000D01*
X123500000Y-87000000D02*
X124000000Y-87000000D01*
X121000000Y-89500000D02*
X121000000Y-89000000D01*
X128000000Y-87000000D02*
X128500000Y-87000000D01*
X121500000Y-87000000D02*
X122000000Y-87000000D01*
X122500000Y-87000000D02*
X123000000Y-87000000D01*
X121000000Y-98000000D02*
X121000000Y-97500000D01*
X129500000Y-87000000D02*
X130000000Y-87000000D01*
X121000000Y-87500000D02*
X121000000Y-87000000D01*
X127000000Y-87000000D02*
X127500000Y-87000000D01*
X121000000Y-89000000D02*
X121000000Y-88500000D01*
X121000000Y-97000000D02*
X121000000Y-96500000D01*
X121000000Y-88500000D02*
X121000000Y-88000000D01*
X121000000Y-93500000D02*
X121000000Y-93000000D01*
X126500000Y-87000000D02*
X127000000Y-87000000D01*
%TO.N,VALVE_OUT*%
D23*
X154000000Y-88750000D02*
X153500000Y-88750000D01*
X178500000Y-108500000D02*
X178500000Y-108000000D01*
X159000000Y-102500000D02*
X159000000Y-102000000D01*
X171500000Y-107500000D02*
X171000000Y-107500000D01*
X164500000Y-107500000D02*
X164000000Y-107500000D01*
X159000000Y-104500000D02*
X159000000Y-104000000D01*
X159000000Y-108500000D02*
X159000000Y-109000000D01*
X157500000Y-88750000D02*
X157000000Y-88750000D01*
X164000000Y-107500000D02*
X163500000Y-107500000D01*
X153000000Y-88750000D02*
X152500000Y-88750000D01*
X159000000Y-92500000D02*
X159000000Y-92000000D01*
X159000000Y-107000000D02*
X159000000Y-106500000D01*
X159000000Y-104000000D02*
X159000000Y-103500000D01*
X169500000Y-107500000D02*
X169000000Y-107500000D01*
X165500000Y-107500000D02*
X165000000Y-107500000D01*
X154500000Y-88750000D02*
X154000000Y-88750000D01*
X159000000Y-90000000D02*
X159000000Y-89500000D01*
X159000000Y-105500000D02*
X159000000Y-105000000D01*
X159000000Y-91000000D02*
X159000000Y-90500000D01*
X159000000Y-98000000D02*
X159000000Y-97500000D01*
X159000000Y-92000000D02*
X159000000Y-91500000D01*
X170000000Y-107500000D02*
X169500000Y-107500000D01*
X159000000Y-107500000D02*
X159000000Y-107000000D01*
X178500000Y-110000000D02*
X178500000Y-109500000D01*
X178000000Y-107500000D02*
X177500000Y-107500000D01*
X159000000Y-106500000D02*
X159000000Y-106000000D01*
X170500000Y-107500000D02*
X170000000Y-107500000D01*
X159000000Y-109000000D02*
X159000000Y-108500000D01*
X168000000Y-107500000D02*
X167500000Y-107500000D01*
X169000000Y-107500000D02*
X168500000Y-107500000D01*
X178500000Y-109500000D02*
X178500000Y-109000000D01*
X159000000Y-109500000D02*
X159000000Y-109000000D01*
X161500000Y-107500000D02*
X161000000Y-107500000D01*
X155500000Y-88750000D02*
X155000000Y-88750000D01*
X159000000Y-106000000D02*
X159000000Y-105500000D01*
X159000000Y-94500000D02*
X159000000Y-94000000D01*
X173000000Y-107500000D02*
X172500000Y-107500000D01*
X159000000Y-105000000D02*
X159000000Y-104500000D01*
X156000000Y-88750000D02*
X155500000Y-88750000D01*
X159000000Y-89500000D02*
X159000000Y-89000000D01*
X178500000Y-108000000D02*
X178500000Y-107500000D01*
X159000000Y-96500000D02*
X159000000Y-96000000D01*
X159000000Y-97000000D02*
X159000000Y-96500000D01*
X159000000Y-94000000D02*
X159000000Y-93500000D01*
X152000000Y-88750000D02*
X151750000Y-88750000D01*
X163000000Y-107500000D02*
X162500000Y-107500000D01*
X159000000Y-89000000D02*
X159000000Y-88750000D01*
X159000000Y-93500000D02*
X159000000Y-93000000D01*
X166000000Y-107500000D02*
X165500000Y-107500000D01*
X159000000Y-109500000D02*
X159000000Y-110000000D01*
X157000000Y-88750000D02*
X156500000Y-88750000D01*
X155000000Y-88750000D02*
X154500000Y-88750000D01*
X163500000Y-107500000D02*
X163000000Y-107500000D01*
X160000000Y-107500000D02*
X159500000Y-107500000D01*
X159000000Y-91500000D02*
X159000000Y-91000000D01*
X174000000Y-107500000D02*
X173500000Y-107500000D01*
X168500000Y-107500000D02*
X168000000Y-107500000D01*
X159000000Y-109000000D02*
X159000000Y-109500000D01*
X159000000Y-93000000D02*
X159000000Y-92500000D01*
X159000000Y-110000000D02*
X159000000Y-109500000D01*
X172500000Y-107500000D02*
X172000000Y-107500000D01*
X159000000Y-108000000D02*
X159000000Y-108500000D01*
X159000000Y-101000000D02*
X159000000Y-100500000D01*
X152500000Y-88750000D02*
X152000000Y-88750000D01*
X159000000Y-107500000D02*
X159000000Y-108000000D01*
X159000000Y-100000000D02*
X159000000Y-99500000D01*
X159000000Y-99500000D02*
X159000000Y-99000000D01*
X153500000Y-88750000D02*
X153000000Y-88750000D01*
X162500000Y-107500000D02*
X162000000Y-107500000D01*
X159000000Y-90500000D02*
X159000000Y-90000000D01*
X159000000Y-108000000D02*
X159000000Y-107500000D01*
X159000000Y-103000000D02*
X159000000Y-102500000D01*
X156500000Y-88750000D02*
X156000000Y-88750000D01*
X177500000Y-107500000D02*
X177000000Y-107500000D01*
X171000000Y-107500000D02*
X170500000Y-107500000D01*
X176500000Y-107500000D02*
X176000000Y-107500000D01*
X159000000Y-103500000D02*
X159000000Y-103000000D01*
X159500000Y-107500000D02*
X159000000Y-107500000D01*
X165000000Y-107500000D02*
X164500000Y-107500000D01*
X160500000Y-107500000D02*
X160000000Y-107500000D01*
X175000000Y-107500000D02*
X174500000Y-107500000D01*
X159000000Y-97500000D02*
X159000000Y-97000000D01*
X158000000Y-88750000D02*
X157500000Y-88750000D01*
X159000000Y-88750000D02*
X158500000Y-88750000D01*
X159000000Y-95000000D02*
X159000000Y-94500000D01*
X172000000Y-107500000D02*
X171500000Y-107500000D01*
X161000000Y-107500000D02*
X160500000Y-107500000D01*
X167500000Y-107500000D02*
X167000000Y-107500000D01*
X175500000Y-107500000D02*
X175000000Y-107500000D01*
X158500000Y-88750000D02*
X158000000Y-88750000D01*
X174500000Y-107500000D02*
X174000000Y-107500000D01*
X159000000Y-96000000D02*
X159000000Y-95500000D01*
X159000000Y-102000000D02*
X159000000Y-101500000D01*
X159000000Y-101500000D02*
X159000000Y-101000000D01*
X159000000Y-99000000D02*
X159000000Y-98500000D01*
X159000000Y-108500000D02*
X159000000Y-108000000D01*
X177000000Y-107500000D02*
X176500000Y-107500000D01*
X159000000Y-95500000D02*
X159000000Y-95000000D01*
X159000000Y-98500000D02*
X159000000Y-98000000D01*
X178500000Y-109000000D02*
X178500000Y-108500000D01*
X159000000Y-100500000D02*
X159000000Y-100000000D01*
X166500000Y-107500000D02*
X166000000Y-107500000D01*
X178500000Y-107500000D02*
X178000000Y-107500000D01*
X176000000Y-107500000D02*
X175500000Y-107500000D01*
X162000000Y-107500000D02*
X161500000Y-107500000D01*
X173500000Y-107500000D02*
X173000000Y-107500000D01*
X167000000Y-107500000D02*
X166500000Y-107500000D01*
%TO.N,GATE*%
D21*
X137250000Y-122500000D02*
X137250000Y-122000000D01*
X137250000Y-127000000D02*
X137250000Y-126500000D01*
X137250000Y-122000000D02*
X137250000Y-121500000D01*
X134500000Y-128000000D02*
X135000000Y-128000000D01*
X130000000Y-128000000D02*
X130500000Y-128000000D01*
X133500000Y-128000000D02*
X134000000Y-128000000D01*
X132500000Y-128000000D02*
X133000000Y-128000000D01*
X138750000Y-118000000D02*
X139000000Y-118000000D01*
X133000000Y-128000000D02*
X133500000Y-128000000D01*
X137250000Y-125500000D02*
X137250000Y-125000000D01*
X137250000Y-120500000D02*
X137250000Y-120000000D01*
X132000000Y-128000000D02*
X132500000Y-128000000D01*
X137250000Y-123000000D02*
X137250000Y-122500000D01*
X129500000Y-128000000D02*
X130000000Y-128000000D01*
X136000000Y-128000000D02*
X136500000Y-128000000D01*
X135000000Y-128000000D02*
X135500000Y-128000000D01*
X136500000Y-128000000D02*
X137000000Y-128000000D01*
X137250000Y-121500000D02*
X137250000Y-121000000D01*
X137250000Y-125000000D02*
X137250000Y-124500000D01*
X135500000Y-128000000D02*
X136000000Y-128000000D01*
X137250000Y-118500000D02*
X137250000Y-118000000D01*
X137250000Y-120000000D02*
X137250000Y-119500000D01*
X137250000Y-126000000D02*
X137250000Y-125500000D01*
X137250000Y-126500000D02*
X137250000Y-126000000D01*
X137250000Y-128000000D02*
X137250000Y-127500000D01*
X137000000Y-128000000D02*
X137250000Y-128000000D01*
X137250000Y-119000000D02*
X137250000Y-118500000D01*
X130500000Y-128000000D02*
X131000000Y-128000000D01*
X137250000Y-119500000D02*
X137250000Y-119000000D01*
X131000000Y-128000000D02*
X131500000Y-128000000D01*
X137250000Y-124500000D02*
X137250000Y-124000000D01*
X137250000Y-124000000D02*
X137250000Y-123500000D01*
X137750000Y-118000000D02*
X138250000Y-118000000D01*
X137250000Y-118000000D02*
X137750000Y-118000000D01*
X131500000Y-128000000D02*
X132000000Y-128000000D01*
X137250000Y-127500000D02*
X137250000Y-127000000D01*
X138250000Y-118000000D02*
X138750000Y-118000000D01*
X134000000Y-128000000D02*
X134500000Y-128000000D01*
X137250000Y-123500000D02*
X137250000Y-123000000D01*
X129000000Y-128000000D02*
X129500000Y-128000000D01*
X137250000Y-121000000D02*
X137250000Y-120500000D01*
%TO.N,PUMP*%
X118500000Y-90750000D02*
X118000000Y-90750000D01*
X118500000Y-109500000D02*
X118500000Y-109000000D01*
X112500000Y-90750000D02*
X112000000Y-90750000D01*
X122000000Y-118000000D02*
X121500000Y-118000000D01*
X118500000Y-103000000D02*
X118500000Y-102500000D01*
X118500000Y-102000000D02*
X118500000Y-101500000D01*
X118500000Y-103500000D02*
X118500000Y-103000000D01*
X118500000Y-117500000D02*
X118500000Y-117000000D01*
X118500000Y-110500000D02*
X118500000Y-110000000D01*
X118500000Y-113500000D02*
X118500000Y-113000000D01*
X118500000Y-104500000D02*
X118500000Y-104000000D01*
X113000000Y-90750000D02*
X112500000Y-90750000D01*
X118500000Y-109000000D02*
X118500000Y-108500000D01*
X118500000Y-92500000D02*
X118500000Y-92000000D01*
X118500000Y-97000000D02*
X118500000Y-96500000D01*
X118500000Y-115500000D02*
X118500000Y-115000000D01*
X126000000Y-118000000D02*
X125500000Y-118000000D01*
X118500000Y-97500000D02*
X118500000Y-97000000D01*
X118000000Y-90750000D02*
X117500000Y-90750000D01*
X125500000Y-118000000D02*
X125000000Y-118000000D01*
X118500000Y-115000000D02*
X118500000Y-114500000D01*
X118500000Y-111000000D02*
X118500000Y-110500000D01*
X129000000Y-118000000D02*
X128500000Y-118000000D01*
X118500000Y-98000000D02*
X118500000Y-97500000D01*
X118500000Y-113000000D02*
X118500000Y-112500000D01*
X120500000Y-118000000D02*
X120000000Y-118000000D01*
X123500000Y-118000000D02*
X123000000Y-118000000D01*
X119500000Y-118000000D02*
X119000000Y-118000000D01*
X118500000Y-112500000D02*
X118500000Y-112000000D01*
X118500000Y-107500000D02*
X118500000Y-107000000D01*
X118500000Y-114000000D02*
X118500000Y-113500000D01*
X128500000Y-118000000D02*
X128000000Y-118000000D01*
X116500000Y-90750000D02*
X116000000Y-90750000D01*
X124500000Y-118000000D02*
X124000000Y-118000000D01*
X122500000Y-118000000D02*
X122000000Y-118000000D01*
X118500000Y-99000000D02*
X118500000Y-98500000D01*
X114000000Y-90750000D02*
X113500000Y-90750000D01*
X115000000Y-90750000D02*
X114500000Y-90750000D01*
X127000000Y-118000000D02*
X126500000Y-118000000D01*
X118500000Y-95500000D02*
X118500000Y-95000000D01*
X113500000Y-90750000D02*
X113000000Y-90750000D01*
X118500000Y-105000000D02*
X118500000Y-104500000D01*
X118500000Y-116500000D02*
X118500000Y-116000000D01*
X118500000Y-116000000D02*
X118500000Y-115500000D01*
X117000000Y-90750000D02*
X116500000Y-90750000D01*
X118500000Y-99500000D02*
X118500000Y-99000000D01*
X118500000Y-98500000D02*
X118500000Y-98000000D01*
X118500000Y-96000000D02*
X118500000Y-95500000D01*
X126500000Y-118000000D02*
X126000000Y-118000000D01*
X118500000Y-106000000D02*
X118500000Y-105500000D01*
X118500000Y-100000000D02*
X118500000Y-99500000D01*
X124000000Y-118000000D02*
X123500000Y-118000000D01*
X115500000Y-90750000D02*
X115000000Y-90750000D01*
X118500000Y-110000000D02*
X118500000Y-109500000D01*
X118500000Y-112000000D02*
X118500000Y-111500000D01*
X118500000Y-107000000D02*
X118500000Y-106500000D01*
X118500000Y-95000000D02*
X118500000Y-94500000D01*
X118500000Y-93000000D02*
X118500000Y-92500000D01*
X118500000Y-102500000D02*
X118500000Y-102000000D01*
X118500000Y-114500000D02*
X118500000Y-114000000D01*
X127500000Y-118000000D02*
X127000000Y-118000000D01*
X118500000Y-94000000D02*
X118500000Y-93500000D01*
X120000000Y-118000000D02*
X119500000Y-118000000D01*
X118500000Y-106500000D02*
X118500000Y-106000000D01*
X116000000Y-90750000D02*
X115500000Y-90750000D01*
X118500000Y-104000000D02*
X118500000Y-103500000D01*
X118500000Y-92000000D02*
X118500000Y-91500000D01*
X117500000Y-90750000D02*
X117000000Y-90750000D01*
X119000000Y-118000000D02*
X118500000Y-118000000D01*
X118500000Y-108500000D02*
X118500000Y-108000000D01*
X118500000Y-100500000D02*
X118500000Y-100000000D01*
X118500000Y-118000000D02*
X118500000Y-117500000D01*
X118500000Y-105500000D02*
X118500000Y-105000000D01*
X118500000Y-101500000D02*
X118500000Y-101000000D01*
X121000000Y-118000000D02*
X120500000Y-118000000D01*
X114500000Y-90750000D02*
X114000000Y-90750000D01*
X118500000Y-91000000D02*
X118500000Y-90750000D01*
X118500000Y-91500000D02*
X118500000Y-91000000D01*
X118500000Y-96500000D02*
X118500000Y-96000000D01*
X121500000Y-118000000D02*
X121000000Y-118000000D01*
X128000000Y-118000000D02*
X127500000Y-118000000D01*
X118500000Y-117000000D02*
X118500000Y-116500000D01*
X118500000Y-93500000D02*
X118500000Y-93000000D01*
X118500000Y-101000000D02*
X118500000Y-100500000D01*
X118500000Y-94500000D02*
X118500000Y-94000000D01*
X118500000Y-108000000D02*
X118500000Y-107500000D01*
X125000000Y-118000000D02*
X124500000Y-118000000D01*
X118500000Y-111500000D02*
X118500000Y-111000000D01*
X123000000Y-118000000D02*
X122500000Y-118000000D01*
%TO.N,VALVE*%
X131750000Y-88750000D02*
X131250000Y-88750000D01*
X134750000Y-88750000D02*
X134250000Y-88750000D01*
X137250000Y-88750000D02*
X136750000Y-88750000D01*
X138250000Y-88750000D02*
X137750000Y-88750000D01*
X118750000Y-85750000D02*
X118250000Y-85750000D01*
X114750000Y-86750000D02*
X114750000Y-87250000D01*
X123250000Y-85750000D02*
X122750000Y-85750000D01*
X124750000Y-88750000D02*
X124250000Y-88750000D01*
X114250000Y-93250000D02*
X113750000Y-93250000D01*
X135750000Y-88750000D02*
X135250000Y-88750000D01*
X112750000Y-93250000D02*
X112250000Y-93250000D01*
X124250000Y-85750000D02*
X123750000Y-85750000D01*
X140250000Y-88750000D02*
X139750000Y-88750000D01*
X126750000Y-88750000D02*
X126250000Y-88750000D01*
X125750000Y-88750000D02*
X125250000Y-88750000D01*
X114750000Y-87250000D02*
X114750000Y-87750000D01*
X115250000Y-85750000D02*
X114750000Y-85750000D01*
X118250000Y-85750000D02*
X117750000Y-85750000D01*
X120250000Y-85750000D02*
X119750000Y-85750000D01*
X120750000Y-85750000D02*
X120250000Y-85750000D01*
X114750000Y-88750000D02*
X114750000Y-89250000D01*
X112250000Y-93250000D02*
X112000000Y-93250000D01*
X128250000Y-88750000D02*
X127750000Y-88750000D01*
X130750000Y-88750000D02*
X130250000Y-88750000D01*
X117250000Y-85750000D02*
X116750000Y-85750000D01*
X139750000Y-88750000D02*
X139250000Y-88750000D01*
X119750000Y-85750000D02*
X119250000Y-85750000D01*
X139250000Y-88750000D02*
X138750000Y-88750000D01*
X114750000Y-87750000D02*
X114750000Y-88250000D01*
X125250000Y-88750000D02*
X124750000Y-88750000D01*
X130250000Y-88750000D02*
X129750000Y-88750000D01*
X136750000Y-88750000D02*
X136250000Y-88750000D01*
X133750000Y-88750000D02*
X133250000Y-88750000D01*
X122750000Y-85750000D02*
X122250000Y-85750000D01*
X114750000Y-92500000D02*
X114750000Y-93000000D01*
X132250000Y-88750000D02*
X131750000Y-88750000D01*
X140750000Y-88750000D02*
X140250000Y-88750000D01*
X134250000Y-88750000D02*
X133750000Y-88750000D01*
X144250000Y-88750000D02*
X143750000Y-88750000D01*
X116750000Y-85750000D02*
X116250000Y-85750000D01*
X113250000Y-93250000D02*
X112750000Y-93250000D01*
X132750000Y-88750000D02*
X132250000Y-88750000D01*
X123750000Y-85750000D02*
X123250000Y-85750000D01*
X131250000Y-88750000D02*
X130750000Y-88750000D01*
X136250000Y-88750000D02*
X135750000Y-88750000D01*
X119250000Y-85750000D02*
X118750000Y-85750000D01*
X124250000Y-85750000D02*
X124250000Y-85750000D01*
X114750000Y-89250000D02*
X114750000Y-89500000D01*
X114750000Y-92500000D02*
X114750000Y-92500000D01*
X122250000Y-85750000D02*
X121750000Y-85750000D01*
X135250000Y-88750000D02*
X134750000Y-88750000D01*
X117750000Y-85750000D02*
X117250000Y-85750000D01*
X127250000Y-88750000D02*
X126750000Y-88750000D01*
X126250000Y-88750000D02*
X125750000Y-88750000D01*
X114750000Y-93250000D02*
X114250000Y-93250000D01*
X138750000Y-88750000D02*
X138250000Y-88750000D01*
X142750000Y-88750000D02*
X142250000Y-88750000D01*
X114750000Y-86250000D02*
X114750000Y-86750000D01*
X114750000Y-93000000D02*
X114750000Y-93250000D01*
X141250000Y-88750000D02*
X140750000Y-88750000D01*
X114750000Y-88250000D02*
X114750000Y-88750000D01*
X141750000Y-88750000D02*
X141250000Y-88750000D01*
X127750000Y-88750000D02*
X127250000Y-88750000D01*
X129750000Y-88750000D02*
X129250000Y-88750000D01*
X116250000Y-85750000D02*
X115750000Y-85750000D01*
X143250000Y-88750000D02*
X142750000Y-88750000D01*
X143750000Y-88750000D02*
X143250000Y-88750000D01*
X142250000Y-88750000D02*
X141750000Y-88750000D01*
X115750000Y-85750000D02*
X115250000Y-85750000D01*
X129250000Y-88750000D02*
X128750000Y-88750000D01*
X113750000Y-93250000D02*
X113250000Y-93250000D01*
X114750000Y-85750000D02*
X114750000Y-86250000D01*
X133250000Y-88750000D02*
X132750000Y-88750000D01*
X121250000Y-85750000D02*
X120750000Y-85750000D01*
X137750000Y-88750000D02*
X137250000Y-88750000D01*
X128750000Y-88750000D02*
X128250000Y-88750000D01*
X121750000Y-85750000D02*
X121250000Y-85750000D01*
%TD*%
%TA.AperFunction,Conductor*%
%TO.N,GND*%
G36*
X117742539Y-91470185D02*
G01*
X117788294Y-91522989D01*
X117799500Y-91574500D01*
X117799500Y-111240338D01*
X117779815Y-111307377D01*
X117727011Y-111353132D01*
X117657853Y-111363076D01*
X117651308Y-111361955D01*
X117588693Y-111349500D01*
X117588691Y-111349500D01*
X117088691Y-111349500D01*
X116588691Y-111349500D01*
X116088691Y-111349500D01*
X115588691Y-111349500D01*
X115088691Y-111349500D01*
X114588691Y-111349500D01*
X114088691Y-111349500D01*
X113588691Y-111349500D01*
X113574499Y-111349500D01*
X113507460Y-111329815D01*
X113461705Y-111277011D01*
X113450499Y-111225500D01*
X113450499Y-111192129D01*
X113450498Y-111192123D01*
X113450237Y-111189699D01*
X113444091Y-111132517D01*
X113412520Y-111047872D01*
X113393797Y-110997671D01*
X113393793Y-110997664D01*
X113307547Y-110882455D01*
X113307544Y-110882452D01*
X113192335Y-110796206D01*
X113192328Y-110796202D01*
X113057482Y-110745908D01*
X113057483Y-110745908D01*
X112997883Y-110739501D01*
X112997881Y-110739500D01*
X112997873Y-110739500D01*
X112997865Y-110739500D01*
X111324500Y-110739500D01*
X111257461Y-110719815D01*
X111211706Y-110667011D01*
X111200500Y-110615500D01*
X111200500Y-99772918D01*
X111220185Y-99705879D01*
X111272989Y-99660124D01*
X111342147Y-99650180D01*
X111380796Y-99662434D01*
X111443194Y-99694228D01*
X111443197Y-99694228D01*
X111443201Y-99694231D01*
X111565665Y-99734022D01*
X111660339Y-99764784D01*
X111885838Y-99800500D01*
X111885843Y-99800500D01*
X112114162Y-99800500D01*
X112339660Y-99764784D01*
X112556799Y-99694231D01*
X112760228Y-99590579D01*
X112944937Y-99456379D01*
X113106379Y-99294937D01*
X113240579Y-99110228D01*
X113344231Y-98906799D01*
X113414784Y-98689660D01*
X113450500Y-98464162D01*
X113450500Y-98235837D01*
X113414784Y-98010339D01*
X113344229Y-97793196D01*
X113287065Y-97681007D01*
X113240579Y-97589772D01*
X113106379Y-97405063D01*
X112944937Y-97243621D01*
X112857380Y-97180006D01*
X112814717Y-97124679D01*
X112808738Y-97055066D01*
X112841344Y-96993271D01*
X112857383Y-96979373D01*
X112944608Y-96916000D01*
X112944614Y-96915995D01*
X113105995Y-96754614D01*
X113240150Y-96569966D01*
X113343769Y-96366604D01*
X113414295Y-96149544D01*
X113428478Y-96060000D01*
X112433012Y-96060000D01*
X112465925Y-96002993D01*
X112500000Y-95875826D01*
X112500000Y-95744174D01*
X112465925Y-95617007D01*
X112433012Y-95560000D01*
X113428478Y-95560000D01*
X113414295Y-95470455D01*
X113343769Y-95253395D01*
X113240150Y-95050033D01*
X113105995Y-94865385D01*
X112944614Y-94704004D01*
X112857382Y-94640626D01*
X112814717Y-94585296D01*
X112808738Y-94515682D01*
X112841344Y-94453887D01*
X112857374Y-94439997D01*
X112944937Y-94376379D01*
X113106379Y-94214937D01*
X113240579Y-94030228D01*
X113240582Y-94030223D01*
X113246706Y-94018205D01*
X113294680Y-93967409D01*
X113357190Y-93950500D01*
X114818995Y-93950500D01*
X114916990Y-93931007D01*
X114954328Y-93923580D01*
X115081811Y-93870775D01*
X115196542Y-93794114D01*
X115294114Y-93696542D01*
X115370775Y-93581811D01*
X115423580Y-93454328D01*
X115434011Y-93401884D01*
X115466394Y-93339975D01*
X115467947Y-93338395D01*
X115522999Y-93283343D01*
X115589414Y-93216928D01*
X115691232Y-93076788D01*
X115769873Y-92922445D01*
X115823402Y-92757701D01*
X115850500Y-92586611D01*
X115850500Y-92413389D01*
X115823402Y-92242299D01*
X115769873Y-92077555D01*
X115691232Y-91923212D01*
X115589414Y-91783072D01*
X115468523Y-91662181D01*
X115435038Y-91600858D01*
X115440022Y-91531166D01*
X115481894Y-91475233D01*
X115547358Y-91450816D01*
X115556204Y-91450500D01*
X115931007Y-91450500D01*
X116431007Y-91450500D01*
X116931007Y-91450500D01*
X117431007Y-91450500D01*
X117675500Y-91450500D01*
X117742539Y-91470185D01*
G37*
%TD.AperFunction*%
%TA.AperFunction,Conductor*%
G36*
X189442539Y-70520185D02*
G01*
X189488294Y-70572989D01*
X189499500Y-70624500D01*
X189499500Y-137375500D01*
X189479815Y-137442539D01*
X189427011Y-137488294D01*
X189375500Y-137499500D01*
X100624500Y-137499500D01*
X100557461Y-137479815D01*
X100511706Y-137427011D01*
X100500500Y-137375500D01*
X100500500Y-117318995D01*
X109799499Y-117318995D01*
X109826418Y-117454322D01*
X109826421Y-117454332D01*
X109879221Y-117581804D01*
X109879228Y-117581817D01*
X109955885Y-117696541D01*
X109955888Y-117696545D01*
X110053454Y-117794111D01*
X110053458Y-117794114D01*
X110168182Y-117870771D01*
X110168195Y-117870778D01*
X110266047Y-117911309D01*
X110295672Y-117923580D01*
X110295676Y-117923580D01*
X110295677Y-117923581D01*
X110431004Y-117950500D01*
X110431007Y-117950500D01*
X110568993Y-117950500D01*
X110642810Y-117950500D01*
X110709849Y-117970185D01*
X110753294Y-118018205D01*
X110759417Y-118030223D01*
X110759421Y-118030228D01*
X110893621Y-118214937D01*
X111055063Y-118376379D01*
X111055069Y-118376383D01*
X111142191Y-118439683D01*
X111184857Y-118495013D01*
X111190835Y-118564627D01*
X111158228Y-118626421D01*
X111142191Y-118640317D01*
X111055069Y-118703616D01*
X111055060Y-118703623D01*
X110893622Y-118865061D01*
X110759421Y-119049771D01*
X110655770Y-119253196D01*
X110585215Y-119470339D01*
X110549500Y-119695837D01*
X110549500Y-119924162D01*
X110585215Y-120149660D01*
X110655770Y-120366803D01*
X110742208Y-120536446D01*
X110759421Y-120570228D01*
X110893621Y-120754937D01*
X111055063Y-120916379D01*
X111239772Y-121050579D01*
X111284930Y-121073588D01*
X111443196Y-121154229D01*
X111443198Y-121154229D01*
X111443201Y-121154231D01*
X111559592Y-121192049D01*
X111660339Y-121224784D01*
X111885838Y-121260500D01*
X111885843Y-121260500D01*
X112114162Y-121260500D01*
X112339660Y-121224784D01*
X112409932Y-121201951D01*
X112556799Y-121154231D01*
X112760228Y-121050579D01*
X112944937Y-120916379D01*
X113106379Y-120754937D01*
X113240579Y-120570228D01*
X113344231Y-120366799D01*
X113414784Y-120149660D01*
X113450500Y-119924162D01*
X113450500Y-119695837D01*
X113414784Y-119470339D01*
X113378134Y-119357544D01*
X113344231Y-119253201D01*
X113344229Y-119253198D01*
X113344229Y-119253196D01*
X113269984Y-119107483D01*
X113240579Y-119049772D01*
X113106379Y-118865063D01*
X112944937Y-118703621D01*
X112857807Y-118640317D01*
X112815143Y-118584988D01*
X112809164Y-118515374D01*
X112841770Y-118453579D01*
X112857807Y-118439683D01*
X112944937Y-118376379D01*
X113106379Y-118214937D01*
X113240579Y-118030228D01*
X113344231Y-117826799D01*
X113414784Y-117609660D01*
X113419196Y-117581804D01*
X113450500Y-117384162D01*
X113450500Y-117155837D01*
X113414784Y-116930339D01*
X113358680Y-116757671D01*
X113344231Y-116713201D01*
X113344229Y-116713198D01*
X113344229Y-116713196D01*
X113264236Y-116556202D01*
X113240579Y-116509772D01*
X113106379Y-116325063D01*
X112944937Y-116163621D01*
X112857380Y-116100006D01*
X112814717Y-116044679D01*
X112808738Y-115975066D01*
X112841344Y-115913271D01*
X112857383Y-115899373D01*
X112944608Y-115836000D01*
X112944614Y-115835995D01*
X113105995Y-115674614D01*
X113240150Y-115489966D01*
X113343769Y-115286604D01*
X113414295Y-115069544D01*
X113428478Y-114980000D01*
X112433012Y-114980000D01*
X112465925Y-114922993D01*
X112500000Y-114795826D01*
X112500000Y-114664174D01*
X112465925Y-114537007D01*
X112433012Y-114480000D01*
X113428478Y-114480000D01*
X113414295Y-114390455D01*
X113343769Y-114173395D01*
X113240150Y-113970033D01*
X113105095Y-113784147D01*
X113081615Y-113718341D01*
X113097440Y-113650287D01*
X113147546Y-113601592D01*
X113162081Y-113595079D01*
X113192326Y-113583798D01*
X113192326Y-113583797D01*
X113192331Y-113583796D01*
X113307546Y-113497546D01*
X113393796Y-113382331D01*
X113444091Y-113247483D01*
X113444091Y-113247477D01*
X113444445Y-113245985D01*
X113445039Y-113244941D01*
X113446802Y-113240215D01*
X113447567Y-113240500D01*
X113479019Y-113185269D01*
X113540930Y-113152883D01*
X113565122Y-113150500D01*
X113911309Y-113150500D01*
X114411309Y-113150500D01*
X114911309Y-113150500D01*
X115411309Y-113150500D01*
X115911309Y-113150500D01*
X116411309Y-113150500D01*
X116475500Y-113150500D01*
X116542539Y-113170185D01*
X116588294Y-113222989D01*
X116599500Y-113274500D01*
X116599500Y-124830894D01*
X116579815Y-124897933D01*
X116551118Y-124928317D01*
X116551348Y-124928586D01*
X116548849Y-124930720D01*
X116548386Y-124931211D01*
X116547643Y-124931750D01*
X116547636Y-124931756D01*
X116391756Y-125087636D01*
X116391752Y-125087641D01*
X116262187Y-125265974D01*
X116162104Y-125462393D01*
X116162103Y-125462396D01*
X116093985Y-125672047D01*
X116059500Y-125889778D01*
X116059500Y-126110221D01*
X116093985Y-126327952D01*
X116162103Y-126537603D01*
X116162104Y-126537606D01*
X116262187Y-126734025D01*
X116391752Y-126912358D01*
X116391756Y-126912363D01*
X116547636Y-127068243D01*
X116547641Y-127068247D01*
X116695264Y-127175500D01*
X116725978Y-127197815D01*
X116813753Y-127242539D01*
X116922393Y-127297895D01*
X116922396Y-127297896D01*
X117027221Y-127331955D01*
X117132049Y-127366015D01*
X117349778Y-127400500D01*
X117349779Y-127400500D01*
X117570221Y-127400500D01*
X117570222Y-127400500D01*
X117787951Y-127366015D01*
X117997606Y-127297895D01*
X118194022Y-127197815D01*
X118372365Y-127068242D01*
X118528242Y-126912365D01*
X118657815Y-126734022D01*
X118757895Y-126537606D01*
X118826015Y-126327951D01*
X118860500Y-126110222D01*
X118860500Y-125889778D01*
X118838361Y-125750000D01*
X121162145Y-125750000D01*
X122224314Y-125750000D01*
X122219920Y-125754394D01*
X122167259Y-125845606D01*
X122140000Y-125947339D01*
X122140000Y-126052661D01*
X122167259Y-126154394D01*
X122219920Y-126245606D01*
X122224314Y-126250000D01*
X121162145Y-126250000D01*
X121174473Y-126327835D01*
X121174473Y-126327838D01*
X121242567Y-126537410D01*
X121342613Y-126733760D01*
X121472142Y-126912041D01*
X121627958Y-127067857D01*
X121806239Y-127197386D01*
X122002589Y-127297432D01*
X122212163Y-127365526D01*
X122289999Y-127377854D01*
X122290000Y-127377854D01*
X122290000Y-126315686D01*
X122294394Y-126320080D01*
X122385606Y-126372741D01*
X122487339Y-126400000D01*
X122592661Y-126400000D01*
X122694394Y-126372741D01*
X122785606Y-126320080D01*
X122790000Y-126315686D01*
X122790000Y-127377854D01*
X122867834Y-127365526D01*
X122867837Y-127365526D01*
X123077410Y-127297432D01*
X123273760Y-127197386D01*
X123452041Y-127067857D01*
X123567763Y-126952135D01*
X127419500Y-126952135D01*
X127419500Y-129047870D01*
X127419501Y-129047876D01*
X127425908Y-129107483D01*
X127476202Y-129242328D01*
X127476206Y-129242335D01*
X127562452Y-129357544D01*
X127562455Y-129357547D01*
X127677664Y-129443793D01*
X127677671Y-129443797D01*
X127812517Y-129494091D01*
X127812516Y-129494091D01*
X127819444Y-129494835D01*
X127872127Y-129500500D01*
X129967872Y-129500499D01*
X130027483Y-129494091D01*
X130162331Y-129443796D01*
X130277546Y-129357546D01*
X130363796Y-129242331D01*
X130414091Y-129107483D01*
X130420500Y-129047873D01*
X130420500Y-128824500D01*
X130440185Y-128757461D01*
X130492989Y-128711706D01*
X130544500Y-128700500D01*
X137318995Y-128700500D01*
X137410041Y-128682389D01*
X137454328Y-128673580D01*
X137581811Y-128620775D01*
X137581812Y-128620774D01*
X137584082Y-128619834D01*
X137653552Y-128612365D01*
X137716031Y-128643640D01*
X137742020Y-128678100D01*
X137797085Y-128786171D01*
X137935866Y-128977186D01*
X138102813Y-129144133D01*
X138293828Y-129282914D01*
X138504195Y-129390102D01*
X138728744Y-129463063D01*
X138728750Y-129463065D01*
X138830000Y-129479101D01*
X138830000Y-128433012D01*
X138887007Y-128465925D01*
X139014174Y-128500000D01*
X139145826Y-128500000D01*
X139272993Y-128465925D01*
X139330000Y-128433012D01*
X139330000Y-129479100D01*
X139431249Y-129463065D01*
X139431255Y-129463063D01*
X139655804Y-129390102D01*
X139866171Y-129282914D01*
X140057186Y-129144133D01*
X140224133Y-128977186D01*
X140362914Y-128786171D01*
X140470102Y-128575802D01*
X140543065Y-128351247D01*
X140559102Y-128250000D01*
X139513012Y-128250000D01*
X139545925Y-128192993D01*
X139580000Y-128065826D01*
X139580000Y-127934174D01*
X139545925Y-127807007D01*
X139513012Y-127750000D01*
X140559102Y-127750000D01*
X140543065Y-127648752D01*
X140470102Y-127424197D01*
X140362914Y-127213828D01*
X140224133Y-127022813D01*
X140057186Y-126855866D01*
X139866171Y-126717085D01*
X139655802Y-126609897D01*
X139431247Y-126536934D01*
X139330000Y-126520897D01*
X139330000Y-127566988D01*
X139272993Y-127534075D01*
X139145826Y-127500000D01*
X139014174Y-127500000D01*
X138887007Y-127534075D01*
X138830000Y-127566988D01*
X138830000Y-126520897D01*
X138728752Y-126536934D01*
X138504197Y-126609897D01*
X138293825Y-126717087D01*
X138147385Y-126823482D01*
X138081579Y-126846962D01*
X138013525Y-126831136D01*
X137964830Y-126781031D01*
X137950500Y-126723164D01*
X137950500Y-120952135D01*
X145959500Y-120952135D01*
X145959500Y-123047870D01*
X145959501Y-123047876D01*
X145965908Y-123107483D01*
X146016202Y-123242328D01*
X146016206Y-123242335D01*
X146102452Y-123357544D01*
X146102455Y-123357547D01*
X146217664Y-123443793D01*
X146217671Y-123443797D01*
X146352517Y-123494091D01*
X146352516Y-123494091D01*
X146359444Y-123494835D01*
X146412127Y-123500500D01*
X148507872Y-123500499D01*
X148567483Y-123494091D01*
X148702331Y-123443796D01*
X148817546Y-123357546D01*
X148903796Y-123242331D01*
X148903797Y-123242326D01*
X148908047Y-123234546D01*
X148911380Y-123236366D01*
X148942292Y-123194766D01*
X149007669Y-123170116D01*
X149075994Y-123184725D01*
X149089835Y-123193446D01*
X149213567Y-123283343D01*
X149312991Y-123334002D01*
X149424003Y-123390566D01*
X149424005Y-123390566D01*
X149424008Y-123390568D01*
X149532745Y-123425899D01*
X149648631Y-123463553D01*
X149881903Y-123500500D01*
X149881908Y-123500500D01*
X150118097Y-123500500D01*
X150351368Y-123463553D01*
X150352876Y-123463063D01*
X150575992Y-123390568D01*
X150786433Y-123283343D01*
X150977510Y-123144517D01*
X151144517Y-122977510D01*
X151169992Y-122942446D01*
X151225318Y-122899783D01*
X151294931Y-122893802D01*
X151356727Y-122926407D01*
X151370625Y-122942446D01*
X151395863Y-122977183D01*
X151562813Y-123144133D01*
X151753828Y-123282914D01*
X151964195Y-123390102D01*
X152188744Y-123463063D01*
X152188750Y-123463065D01*
X152290000Y-123479101D01*
X152290000Y-122433012D01*
X152347007Y-122465925D01*
X152474174Y-122500000D01*
X152605826Y-122500000D01*
X152732993Y-122465925D01*
X152790000Y-122433012D01*
X152790000Y-123479100D01*
X152891249Y-123463065D01*
X152891255Y-123463063D01*
X153115804Y-123390102D01*
X153326171Y-123282914D01*
X153517186Y-123144133D01*
X153684133Y-122977186D01*
X153822914Y-122786171D01*
X153930102Y-122575802D01*
X154003065Y-122351247D01*
X154019102Y-122250000D01*
X152973012Y-122250000D01*
X153005925Y-122192993D01*
X153040000Y-122065826D01*
X153040000Y-121934174D01*
X153005925Y-121807007D01*
X152973012Y-121750000D01*
X154019102Y-121750000D01*
X154003065Y-121648752D01*
X153930102Y-121424197D01*
X153822914Y-121213828D01*
X153684133Y-121022813D01*
X153517186Y-120855866D01*
X153370269Y-120749124D01*
X153370267Y-120749122D01*
X153326174Y-120717087D01*
X153198699Y-120652135D01*
X157849500Y-120652135D01*
X157849500Y-123347870D01*
X157849501Y-123347876D01*
X157855908Y-123407483D01*
X157906202Y-123542328D01*
X157906206Y-123542335D01*
X157992452Y-123657544D01*
X157992455Y-123657547D01*
X158107664Y-123743793D01*
X158107671Y-123743797D01*
X158242517Y-123794091D01*
X158242516Y-123794091D01*
X158249444Y-123794835D01*
X158302127Y-123800500D01*
X160997872Y-123800499D01*
X161057483Y-123794091D01*
X161192331Y-123743796D01*
X161307546Y-123657546D01*
X161393796Y-123542331D01*
X161444091Y-123407483D01*
X161450500Y-123347873D01*
X161450499Y-121881995D01*
X170549500Y-121881995D01*
X170549500Y-122118004D01*
X170549501Y-122118020D01*
X170580221Y-122351368D01*
X170580307Y-122352014D01*
X170619960Y-122500000D01*
X170641394Y-122579993D01*
X170731714Y-122798045D01*
X170731719Y-122798056D01*
X170786999Y-122893802D01*
X170849727Y-123002450D01*
X170849729Y-123002453D01*
X170849730Y-123002454D01*
X170993406Y-123189697D01*
X170993412Y-123189704D01*
X171160295Y-123356587D01*
X171160302Y-123356593D01*
X171227967Y-123408514D01*
X171347550Y-123500273D01*
X171420397Y-123542331D01*
X171551943Y-123618280D01*
X171551948Y-123618282D01*
X171551951Y-123618284D01*
X171770007Y-123708606D01*
X171997986Y-123769693D01*
X172231989Y-123800500D01*
X172231996Y-123800500D01*
X172468004Y-123800500D01*
X172468011Y-123800500D01*
X172702014Y-123769693D01*
X172929993Y-123708606D01*
X173148049Y-123618284D01*
X173352450Y-123500273D01*
X173521111Y-123370854D01*
X173586277Y-123345662D01*
X173654722Y-123359700D01*
X173704712Y-123408514D01*
X173712777Y-123425899D01*
X173756202Y-123542328D01*
X173756206Y-123542335D01*
X173842452Y-123657544D01*
X173842455Y-123657547D01*
X173957664Y-123743793D01*
X173957671Y-123743797D01*
X174092517Y-123794091D01*
X174092516Y-123794091D01*
X174099444Y-123794835D01*
X174152127Y-123800500D01*
X176847872Y-123800499D01*
X176907483Y-123794091D01*
X177042331Y-123743796D01*
X177157546Y-123657546D01*
X177243796Y-123542331D01*
X177294091Y-123407483D01*
X177300500Y-123347873D01*
X177300499Y-121881995D01*
X178699500Y-121881995D01*
X178699500Y-122118004D01*
X178699501Y-122118020D01*
X178730221Y-122351368D01*
X178730307Y-122352014D01*
X178769960Y-122500000D01*
X178791394Y-122579993D01*
X178881714Y-122798045D01*
X178881719Y-122798056D01*
X178936999Y-122893802D01*
X178999727Y-123002450D01*
X178999729Y-123002453D01*
X178999730Y-123002454D01*
X179143406Y-123189697D01*
X179143412Y-123189704D01*
X179310295Y-123356587D01*
X179310302Y-123356593D01*
X179377967Y-123408514D01*
X179497550Y-123500273D01*
X179570397Y-123542331D01*
X179701943Y-123618280D01*
X179701948Y-123618282D01*
X179701951Y-123618284D01*
X179920007Y-123708606D01*
X180147986Y-123769693D01*
X180381989Y-123800500D01*
X180381996Y-123800500D01*
X180618004Y-123800500D01*
X180618011Y-123800500D01*
X180852014Y-123769693D01*
X181079993Y-123708606D01*
X181298049Y-123618284D01*
X181502450Y-123500273D01*
X181689699Y-123356592D01*
X181856592Y-123189699D01*
X182000273Y-123002450D01*
X182118284Y-122798049D01*
X182208606Y-122579993D01*
X182269693Y-122352014D01*
X182300500Y-122118011D01*
X182300500Y-121881989D01*
X182269693Y-121647986D01*
X182208606Y-121420007D01*
X182118284Y-121201951D01*
X182118282Y-121201948D01*
X182118280Y-121201943D01*
X182059548Y-121100218D01*
X182000273Y-120997550D01*
X181934098Y-120911309D01*
X181856593Y-120810302D01*
X181856587Y-120810295D01*
X181689704Y-120643412D01*
X181689697Y-120643406D01*
X181502454Y-120499730D01*
X181502453Y-120499729D01*
X181502450Y-120499727D01*
X181420957Y-120452677D01*
X181298056Y-120381719D01*
X181298045Y-120381714D01*
X181079993Y-120291394D01*
X180948670Y-120256206D01*
X180852014Y-120230307D01*
X180852013Y-120230306D01*
X180852010Y-120230306D01*
X180618020Y-120199501D01*
X180618017Y-120199500D01*
X180618011Y-120199500D01*
X180381989Y-120199500D01*
X180381983Y-120199500D01*
X180381979Y-120199501D01*
X180147989Y-120230306D01*
X179920006Y-120291394D01*
X179701954Y-120381714D01*
X179701943Y-120381719D01*
X179510909Y-120492014D01*
X179497942Y-120499501D01*
X179497545Y-120499730D01*
X179310302Y-120643406D01*
X179310295Y-120643412D01*
X179143412Y-120810295D01*
X179143406Y-120810302D01*
X178999730Y-120997545D01*
X178881719Y-121201943D01*
X178881714Y-121201954D01*
X178791394Y-121420006D01*
X178730306Y-121647989D01*
X178699501Y-121881979D01*
X178699500Y-121881995D01*
X177300499Y-121881995D01*
X177300499Y-120652128D01*
X177294091Y-120592517D01*
X177287222Y-120574101D01*
X177243797Y-120457671D01*
X177243793Y-120457664D01*
X177157547Y-120342455D01*
X177157544Y-120342452D01*
X177042335Y-120256206D01*
X177042328Y-120256202D01*
X176907482Y-120205908D01*
X176907483Y-120205908D01*
X176847883Y-120199501D01*
X176847881Y-120199500D01*
X176847873Y-120199500D01*
X176847864Y-120199500D01*
X174152129Y-120199500D01*
X174152123Y-120199501D01*
X174092516Y-120205908D01*
X173957671Y-120256202D01*
X173957664Y-120256206D01*
X173842455Y-120342452D01*
X173842452Y-120342455D01*
X173756206Y-120457664D01*
X173756203Y-120457669D01*
X173712777Y-120574101D01*
X173670905Y-120630034D01*
X173605441Y-120654451D01*
X173537168Y-120639599D01*
X173521109Y-120629143D01*
X173352454Y-120499730D01*
X173352453Y-120499729D01*
X173352450Y-120499727D01*
X173270957Y-120452677D01*
X173148056Y-120381719D01*
X173148045Y-120381714D01*
X172929993Y-120291394D01*
X172798670Y-120256206D01*
X172702014Y-120230307D01*
X172702013Y-120230306D01*
X172702010Y-120230306D01*
X172468020Y-120199501D01*
X172468017Y-120199500D01*
X172468011Y-120199500D01*
X172231989Y-120199500D01*
X172231983Y-120199500D01*
X172231979Y-120199501D01*
X171997989Y-120230306D01*
X171770006Y-120291394D01*
X171551954Y-120381714D01*
X171551943Y-120381719D01*
X171360909Y-120492014D01*
X171347942Y-120499501D01*
X171347545Y-120499730D01*
X171160302Y-120643406D01*
X171160295Y-120643412D01*
X170993412Y-120810295D01*
X170993406Y-120810302D01*
X170849730Y-120997545D01*
X170731719Y-121201943D01*
X170731714Y-121201954D01*
X170641394Y-121420006D01*
X170580306Y-121647989D01*
X170549501Y-121881979D01*
X170549500Y-121881995D01*
X161450499Y-121881995D01*
X161450499Y-120652128D01*
X161444091Y-120592517D01*
X161437222Y-120574101D01*
X161393797Y-120457671D01*
X161393793Y-120457664D01*
X161307547Y-120342455D01*
X161307544Y-120342452D01*
X161192335Y-120256206D01*
X161192328Y-120256202D01*
X161057482Y-120205908D01*
X161057483Y-120205908D01*
X160997883Y-120199501D01*
X160997881Y-120199500D01*
X160997873Y-120199500D01*
X160997864Y-120199500D01*
X158302129Y-120199500D01*
X158302123Y-120199501D01*
X158242516Y-120205908D01*
X158107671Y-120256202D01*
X158107664Y-120256206D01*
X157992455Y-120342452D01*
X157992452Y-120342455D01*
X157906206Y-120457664D01*
X157906202Y-120457671D01*
X157855908Y-120592517D01*
X157850437Y-120643408D01*
X157849501Y-120652123D01*
X157849500Y-120652135D01*
X153198699Y-120652135D01*
X153115802Y-120609897D01*
X152891247Y-120536934D01*
X152790000Y-120520897D01*
X152790000Y-121566988D01*
X152732993Y-121534075D01*
X152605826Y-121500000D01*
X152474174Y-121500000D01*
X152347007Y-121534075D01*
X152290000Y-121566988D01*
X152290000Y-120520897D01*
X152188752Y-120536934D01*
X151964197Y-120609897D01*
X151753828Y-120717085D01*
X151562813Y-120855866D01*
X151395866Y-121022813D01*
X151395861Y-121022819D01*
X151370624Y-121057554D01*
X151315293Y-121100218D01*
X151245680Y-121106196D01*
X151183885Y-121073588D01*
X151169997Y-121057560D01*
X151144517Y-121022490D01*
X150977510Y-120855483D01*
X150786433Y-120716657D01*
X150575996Y-120609433D01*
X150351368Y-120536446D01*
X150118097Y-120499500D01*
X150118092Y-120499500D01*
X149881908Y-120499500D01*
X149881903Y-120499500D01*
X149648631Y-120536446D01*
X149424003Y-120609433D01*
X149213563Y-120716659D01*
X149089840Y-120806549D01*
X149024034Y-120830029D01*
X148955980Y-120814203D01*
X148908410Y-120765255D01*
X148908047Y-120765454D01*
X148907334Y-120764148D01*
X148907285Y-120764098D01*
X148907187Y-120763880D01*
X148903793Y-120757664D01*
X148817547Y-120642455D01*
X148817544Y-120642452D01*
X148702335Y-120556206D01*
X148702328Y-120556202D01*
X148567482Y-120505908D01*
X148567483Y-120505908D01*
X148507883Y-120499501D01*
X148507881Y-120499500D01*
X148507873Y-120499500D01*
X148507864Y-120499500D01*
X146412129Y-120499500D01*
X146412123Y-120499501D01*
X146352516Y-120505908D01*
X146217671Y-120556202D01*
X146217664Y-120556206D01*
X146102455Y-120642452D01*
X146102452Y-120642455D01*
X146016206Y-120757664D01*
X146016202Y-120757671D01*
X145965908Y-120892517D01*
X145959501Y-120952116D01*
X145959500Y-120952135D01*
X137950500Y-120952135D01*
X137950500Y-119277453D01*
X137970185Y-119210414D01*
X138022989Y-119164659D01*
X138092147Y-119154715D01*
X138147383Y-119177133D01*
X138293567Y-119283343D01*
X138392991Y-119334002D01*
X138504003Y-119390566D01*
X138504005Y-119390566D01*
X138504008Y-119390568D01*
X138624412Y-119429689D01*
X138728631Y-119463553D01*
X138961903Y-119500500D01*
X138961908Y-119500500D01*
X139198097Y-119500500D01*
X139431368Y-119463553D01*
X139655992Y-119390568D01*
X139866433Y-119283343D01*
X140057510Y-119144517D01*
X140224517Y-118977510D01*
X140363343Y-118786433D01*
X140470568Y-118575992D01*
X140543553Y-118351368D01*
X140580500Y-118118097D01*
X140580500Y-117881902D01*
X140543553Y-117648631D01*
X140480421Y-117454332D01*
X140470568Y-117424008D01*
X140470566Y-117424005D01*
X140470566Y-117424003D01*
X140378105Y-117242539D01*
X140363343Y-117213567D01*
X140224517Y-117022490D01*
X140057510Y-116855483D01*
X139866433Y-116716657D01*
X139859640Y-116713196D01*
X139655996Y-116609433D01*
X139431368Y-116536446D01*
X139198097Y-116499500D01*
X139198092Y-116499500D01*
X138961908Y-116499500D01*
X138961903Y-116499500D01*
X138728631Y-116536446D01*
X138504003Y-116609433D01*
X138293566Y-116716657D01*
X138237119Y-116757669D01*
X138102490Y-116855483D01*
X138102488Y-116855485D01*
X138102487Y-116855485D01*
X137935485Y-117022487D01*
X137935485Y-117022488D01*
X137935483Y-117022490D01*
X137875862Y-117104550D01*
X137796657Y-117213566D01*
X137787368Y-117231797D01*
X137739392Y-117282592D01*
X137676884Y-117299500D01*
X137181005Y-117299500D01*
X137045677Y-117326418D01*
X137045667Y-117326421D01*
X136918195Y-117379221D01*
X136918182Y-117379228D01*
X136803458Y-117455885D01*
X136803454Y-117455888D01*
X136705888Y-117553454D01*
X136705885Y-117553458D01*
X136629228Y-117668182D01*
X136629221Y-117668195D01*
X136576421Y-117795667D01*
X136576418Y-117795677D01*
X136549500Y-117931004D01*
X136549500Y-127175500D01*
X136529815Y-127242539D01*
X136477011Y-127288294D01*
X136425500Y-127299500D01*
X130544499Y-127299500D01*
X130477460Y-127279815D01*
X130431705Y-127227011D01*
X130420499Y-127175500D01*
X130420499Y-126952129D01*
X130420498Y-126952123D01*
X130420497Y-126952116D01*
X130414091Y-126892517D01*
X130391197Y-126831136D01*
X130363797Y-126757671D01*
X130363793Y-126757664D01*
X130277547Y-126642455D01*
X130277544Y-126642452D01*
X130162335Y-126556206D01*
X130162328Y-126556202D01*
X130027482Y-126505908D01*
X130027483Y-126505908D01*
X129967883Y-126499501D01*
X129967881Y-126499500D01*
X129967873Y-126499500D01*
X129967864Y-126499500D01*
X127872129Y-126499500D01*
X127872123Y-126499501D01*
X127812516Y-126505908D01*
X127677671Y-126556202D01*
X127677664Y-126556206D01*
X127562455Y-126642452D01*
X127562452Y-126642455D01*
X127476206Y-126757664D01*
X127476202Y-126757671D01*
X127425908Y-126892517D01*
X127419501Y-126952116D01*
X127419501Y-126952123D01*
X127419500Y-126952135D01*
X123567763Y-126952135D01*
X123607857Y-126912041D01*
X123607862Y-126912035D01*
X123634101Y-126875921D01*
X123634101Y-126875920D01*
X123737386Y-126733760D01*
X123837432Y-126537410D01*
X123905526Y-126327838D01*
X123905526Y-126327835D01*
X123917855Y-126250000D01*
X122855686Y-126250000D01*
X122860080Y-126245606D01*
X122912741Y-126154394D01*
X122940000Y-126052661D01*
X122940000Y-125947339D01*
X122912741Y-125845606D01*
X122860080Y-125754394D01*
X122855686Y-125750000D01*
X123917855Y-125750000D01*
X123905526Y-125672164D01*
X123905526Y-125672161D01*
X123837432Y-125462589D01*
X123737386Y-125266239D01*
X123607857Y-125087958D01*
X123452041Y-124932142D01*
X123273760Y-124802613D01*
X123077410Y-124702567D01*
X122867836Y-124634473D01*
X122790000Y-124622144D01*
X122790000Y-125684314D01*
X122785606Y-125679920D01*
X122694394Y-125627259D01*
X122592661Y-125600000D01*
X122487339Y-125600000D01*
X122385606Y-125627259D01*
X122294394Y-125679920D01*
X122290000Y-125684314D01*
X122290000Y-124622144D01*
X122212164Y-124634473D01*
X122212161Y-124634473D01*
X122002589Y-124702567D01*
X121806239Y-124802613D01*
X121627958Y-124932142D01*
X121472142Y-125087958D01*
X121342613Y-125266239D01*
X121242567Y-125462589D01*
X121174473Y-125672161D01*
X121174473Y-125672164D01*
X121162145Y-125750000D01*
X118838361Y-125750000D01*
X118826015Y-125672049D01*
X118791955Y-125567221D01*
X118757896Y-125462396D01*
X118757895Y-125462393D01*
X118723237Y-125394375D01*
X118657815Y-125265978D01*
X118528477Y-125087958D01*
X118528247Y-125087641D01*
X118528243Y-125087636D01*
X118436819Y-124996212D01*
X118403334Y-124934889D01*
X118400500Y-124908531D01*
X118400500Y-118824500D01*
X118420185Y-118757461D01*
X118472989Y-118711706D01*
X118524500Y-118700500D01*
X118568993Y-118700500D01*
X118931007Y-118700500D01*
X119431007Y-118700500D01*
X119931007Y-118700500D01*
X120431007Y-118700500D01*
X120931007Y-118700500D01*
X121431007Y-118700500D01*
X121931007Y-118700500D01*
X122431007Y-118700500D01*
X122931007Y-118700500D01*
X123431007Y-118700500D01*
X123931007Y-118700500D01*
X124431007Y-118700500D01*
X124931007Y-118700500D01*
X125431007Y-118700500D01*
X125931007Y-118700500D01*
X126431007Y-118700500D01*
X126931007Y-118700500D01*
X127295501Y-118700500D01*
X127362540Y-118720185D01*
X127408295Y-118772989D01*
X127419501Y-118824500D01*
X127419501Y-119047876D01*
X127425908Y-119107483D01*
X127476202Y-119242328D01*
X127476206Y-119242335D01*
X127562452Y-119357544D01*
X127562455Y-119357547D01*
X127677664Y-119443793D01*
X127677671Y-119443797D01*
X127812517Y-119494091D01*
X127812516Y-119494091D01*
X127819444Y-119494835D01*
X127872127Y-119500500D01*
X129967872Y-119500499D01*
X130027483Y-119494091D01*
X130162331Y-119443796D01*
X130277546Y-119357546D01*
X130363796Y-119242331D01*
X130414091Y-119107483D01*
X130420500Y-119047873D01*
X130420499Y-116952128D01*
X130414091Y-116892517D01*
X130400278Y-116855483D01*
X130363797Y-116757671D01*
X130363793Y-116757664D01*
X130277547Y-116642455D01*
X130277544Y-116642452D01*
X130162335Y-116556206D01*
X130162328Y-116556202D01*
X130027482Y-116505908D01*
X130027483Y-116505908D01*
X129967883Y-116499501D01*
X129967881Y-116499500D01*
X129967873Y-116499500D01*
X129967864Y-116499500D01*
X127872129Y-116499500D01*
X127872123Y-116499501D01*
X127812516Y-116505908D01*
X127677671Y-116556202D01*
X127677664Y-116556206D01*
X127562455Y-116642452D01*
X127562452Y-116642455D01*
X127476206Y-116757664D01*
X127476202Y-116757671D01*
X127425908Y-116892517D01*
X127419501Y-116952116D01*
X127419501Y-116952123D01*
X127419500Y-116952135D01*
X127419500Y-117175500D01*
X127399815Y-117242539D01*
X127347011Y-117288294D01*
X127295500Y-117299500D01*
X119324500Y-117299500D01*
X119257461Y-117279815D01*
X119211706Y-117227011D01*
X119200500Y-117175500D01*
X119200500Y-101190425D01*
X119220185Y-101123386D01*
X119272989Y-101077631D01*
X119342147Y-101067687D01*
X119405703Y-101096712D01*
X119440682Y-101147092D01*
X119476202Y-101242328D01*
X119476206Y-101242335D01*
X119562452Y-101357544D01*
X119562455Y-101357547D01*
X119677664Y-101443793D01*
X119677671Y-101443797D01*
X119812517Y-101494091D01*
X119812516Y-101494091D01*
X119819444Y-101494835D01*
X119872127Y-101500500D01*
X121967872Y-101500499D01*
X122027483Y-101494091D01*
X122162331Y-101443796D01*
X122277546Y-101357546D01*
X122363796Y-101242331D01*
X122414091Y-101107483D01*
X122420500Y-101047873D01*
X122420499Y-98952128D01*
X122414091Y-98892517D01*
X122413069Y-98889778D01*
X122363797Y-98757671D01*
X122363793Y-98757664D01*
X122277547Y-98642455D01*
X122277544Y-98642452D01*
X122162335Y-98556206D01*
X122162328Y-98556202D01*
X122027482Y-98505908D01*
X122027483Y-98505908D01*
X121967883Y-98499501D01*
X121967881Y-98499500D01*
X121967873Y-98499500D01*
X121967865Y-98499500D01*
X121924500Y-98499500D01*
X121857461Y-98479815D01*
X121811706Y-98427011D01*
X121800500Y-98375500D01*
X121800500Y-94931753D01*
X121820185Y-94864714D01*
X121872989Y-94818959D01*
X121942147Y-94809015D01*
X121962813Y-94813821D01*
X121992299Y-94823402D01*
X122163389Y-94850500D01*
X122163390Y-94850500D01*
X122336610Y-94850500D01*
X122336611Y-94850500D01*
X122507701Y-94823402D01*
X122672445Y-94769873D01*
X122826788Y-94691232D01*
X122966928Y-94589414D01*
X123069524Y-94486818D01*
X123130847Y-94453334D01*
X123157205Y-94450500D01*
X123431007Y-94450500D01*
X123931007Y-94450500D01*
X124431007Y-94450500D01*
X124931007Y-94450500D01*
X125431007Y-94450500D01*
X125931007Y-94450500D01*
X126431007Y-94450500D01*
X126931007Y-94450500D01*
X127431007Y-94450500D01*
X127931007Y-94450500D01*
X128431007Y-94450500D01*
X128931007Y-94450500D01*
X129431007Y-94450500D01*
X129931007Y-94450500D01*
X130175500Y-94450500D01*
X130242539Y-94470185D01*
X130288294Y-94522989D01*
X130299500Y-94574500D01*
X130299500Y-98649165D01*
X130279815Y-98716204D01*
X130248385Y-98749483D01*
X130102490Y-98855483D01*
X130102488Y-98855485D01*
X130102487Y-98855485D01*
X129935485Y-99022487D01*
X129935485Y-99022488D01*
X129935483Y-99022490D01*
X129875862Y-99104550D01*
X129796657Y-99213566D01*
X129689433Y-99424003D01*
X129616446Y-99648631D01*
X129579500Y-99881902D01*
X129579500Y-100118097D01*
X129616446Y-100351368D01*
X129689433Y-100575996D01*
X129796657Y-100786433D01*
X129935483Y-100977510D01*
X130102490Y-101144517D01*
X130293567Y-101283343D01*
X130392991Y-101334002D01*
X130504003Y-101390566D01*
X130504005Y-101390566D01*
X130504008Y-101390568D01*
X130537909Y-101401583D01*
X130728631Y-101463553D01*
X130961903Y-101500500D01*
X130961908Y-101500500D01*
X131198097Y-101500500D01*
X131431368Y-101463553D01*
X131655992Y-101390568D01*
X131866433Y-101283343D01*
X132057510Y-101144517D01*
X132224517Y-100977510D01*
X132363343Y-100786433D01*
X132470568Y-100575992D01*
X132543553Y-100351368D01*
X132552540Y-100294625D01*
X132580500Y-100118097D01*
X132580500Y-99881902D01*
X132543553Y-99648631D01*
X132470566Y-99424003D01*
X132414002Y-99312991D01*
X132363343Y-99213567D01*
X132224517Y-99022490D01*
X132057510Y-98855483D01*
X131866433Y-98716657D01*
X131866432Y-98716656D01*
X131866430Y-98716655D01*
X131768204Y-98666605D01*
X131717408Y-98618630D01*
X131700500Y-98556121D01*
X131700500Y-93681004D01*
X131673581Y-93545677D01*
X131673580Y-93545676D01*
X131673580Y-93545672D01*
X131661328Y-93516094D01*
X131653860Y-93446629D01*
X131685134Y-93384149D01*
X131719591Y-93358162D01*
X131866433Y-93283343D01*
X132057510Y-93144517D01*
X132224517Y-92977510D01*
X132363343Y-92786433D01*
X132470568Y-92575992D01*
X132543553Y-92351368D01*
X132552898Y-92292365D01*
X132580500Y-92118097D01*
X132580500Y-91881902D01*
X132543553Y-91648631D01*
X132470566Y-91424003D01*
X132407128Y-91299500D01*
X132363343Y-91213567D01*
X132224517Y-91022490D01*
X132057510Y-90855483D01*
X131866433Y-90716657D01*
X131655996Y-90609433D01*
X131431368Y-90536446D01*
X131198097Y-90499500D01*
X131198092Y-90499500D01*
X130961908Y-90499500D01*
X130961903Y-90499500D01*
X130728631Y-90536446D01*
X130504003Y-90609433D01*
X130293566Y-90716657D01*
X130237119Y-90757669D01*
X130102490Y-90855483D01*
X130102488Y-90855485D01*
X130102487Y-90855485D01*
X129935485Y-91022487D01*
X129935485Y-91022488D01*
X129935483Y-91022490D01*
X129875862Y-91104550D01*
X129796657Y-91213566D01*
X129787368Y-91231797D01*
X129739392Y-91282592D01*
X129676884Y-91299500D01*
X123907205Y-91299500D01*
X123840166Y-91279815D01*
X123819524Y-91263182D01*
X123769908Y-91213566D01*
X123716928Y-91160586D01*
X123576788Y-91058768D01*
X123422445Y-90980127D01*
X123257701Y-90926598D01*
X123257699Y-90926597D01*
X123257698Y-90926597D01*
X123126271Y-90905781D01*
X123086611Y-90899500D01*
X122913389Y-90899500D01*
X122881192Y-90904599D01*
X122742301Y-90926597D01*
X122573008Y-90981604D01*
X122503167Y-90983599D01*
X122443334Y-90947519D01*
X122417835Y-90899399D01*
X122416802Y-90899785D01*
X122363797Y-90757671D01*
X122363793Y-90757664D01*
X122277547Y-90642455D01*
X122277544Y-90642452D01*
X122162335Y-90556206D01*
X122162328Y-90556202D01*
X122027482Y-90505908D01*
X122027483Y-90505908D01*
X121967883Y-90499501D01*
X121967881Y-90499500D01*
X121967873Y-90499500D01*
X121967865Y-90499500D01*
X121924500Y-90499500D01*
X121857461Y-90479815D01*
X121811706Y-90427011D01*
X121800500Y-90375500D01*
X121800500Y-87924500D01*
X121820185Y-87857461D01*
X121872989Y-87811706D01*
X121924500Y-87800500D01*
X122421158Y-87800500D01*
X122921158Y-87800500D01*
X123343796Y-87800500D01*
X123410835Y-87820185D01*
X123456590Y-87872989D01*
X123466534Y-87942147D01*
X123437509Y-88005703D01*
X123431477Y-88012181D01*
X123410588Y-88033069D01*
X123410588Y-88033070D01*
X123410586Y-88033072D01*
X123379515Y-88075837D01*
X123308768Y-88173211D01*
X123230128Y-88327552D01*
X123176597Y-88492302D01*
X123160681Y-88592795D01*
X123149500Y-88663389D01*
X123149500Y-88836611D01*
X123176598Y-89007701D01*
X123230127Y-89172445D01*
X123308768Y-89326788D01*
X123410586Y-89466928D01*
X123533072Y-89589414D01*
X123673212Y-89691232D01*
X123827555Y-89769873D01*
X123992299Y-89823402D01*
X124163389Y-89850500D01*
X124163390Y-89850500D01*
X124336610Y-89850500D01*
X124336611Y-89850500D01*
X124507701Y-89823402D01*
X124672445Y-89769873D01*
X124826788Y-89691232D01*
X124966928Y-89589414D01*
X125069524Y-89486818D01*
X125130847Y-89453334D01*
X125157205Y-89450500D01*
X125181007Y-89450500D01*
X125681007Y-89450500D01*
X126181007Y-89450500D01*
X126681007Y-89450500D01*
X127181007Y-89450500D01*
X127681007Y-89450500D01*
X128181007Y-89450500D01*
X128681007Y-89450500D01*
X129181007Y-89450500D01*
X129681007Y-89450500D01*
X130181007Y-89450500D01*
X130681007Y-89450500D01*
X131181007Y-89450500D01*
X131681007Y-89450500D01*
X132181007Y-89450500D01*
X132681007Y-89450500D01*
X133181007Y-89450500D01*
X133681007Y-89450500D01*
X134181007Y-89450500D01*
X134681007Y-89450500D01*
X135181007Y-89450500D01*
X135681007Y-89450500D01*
X136181007Y-89450500D01*
X136681007Y-89450500D01*
X137181007Y-89450500D01*
X137681007Y-89450500D01*
X138181007Y-89450500D01*
X138681007Y-89450500D01*
X139181007Y-89450500D01*
X139681007Y-89450500D01*
X140181007Y-89450500D01*
X140681007Y-89450500D01*
X141181007Y-89450500D01*
X141681007Y-89450500D01*
X142181007Y-89450500D01*
X142665501Y-89450500D01*
X142732540Y-89470185D01*
X142778295Y-89522989D01*
X142789501Y-89574500D01*
X142789501Y-89787876D01*
X142795908Y-89847483D01*
X142846202Y-89982328D01*
X142846206Y-89982335D01*
X142932452Y-90097544D01*
X142932455Y-90097547D01*
X143047664Y-90183793D01*
X143047671Y-90183797D01*
X143127580Y-90213601D01*
X143183514Y-90255472D01*
X143207931Y-90320936D01*
X143193080Y-90389209D01*
X143171929Y-90417463D01*
X143121756Y-90467636D01*
X143121752Y-90467641D01*
X142992187Y-90645974D01*
X142892104Y-90842393D01*
X142892103Y-90842396D01*
X142823985Y-91052047D01*
X142789500Y-91269778D01*
X142789500Y-91490221D01*
X142823985Y-91707952D01*
X142892103Y-91917603D01*
X142892104Y-91917606D01*
X142934087Y-92000000D01*
X142985202Y-92100318D01*
X142992187Y-92114025D01*
X143121752Y-92292358D01*
X143121756Y-92292363D01*
X143277636Y-92448243D01*
X143277641Y-92448247D01*
X143417254Y-92549682D01*
X143459920Y-92605012D01*
X143465899Y-92674625D01*
X143433293Y-92736420D01*
X143417254Y-92750318D01*
X143277641Y-92851752D01*
X143277636Y-92851756D01*
X143121756Y-93007636D01*
X143121752Y-93007641D01*
X142992187Y-93185974D01*
X142892104Y-93382393D01*
X142892103Y-93382396D01*
X142823985Y-93592047D01*
X142789500Y-93809778D01*
X142789500Y-94030221D01*
X142823985Y-94247952D01*
X142892103Y-94457603D01*
X142892104Y-94457606D01*
X142951666Y-94574500D01*
X142985359Y-94640626D01*
X142992187Y-94654025D01*
X143121752Y-94832358D01*
X143121756Y-94832363D01*
X143277636Y-94988243D01*
X143277641Y-94988247D01*
X143417254Y-95089682D01*
X143459920Y-95145012D01*
X143465899Y-95214625D01*
X143433293Y-95276420D01*
X143417254Y-95290318D01*
X143277641Y-95391752D01*
X143277636Y-95391756D01*
X143121756Y-95547636D01*
X143121752Y-95547641D01*
X142992187Y-95725974D01*
X142892104Y-95922393D01*
X142892103Y-95922396D01*
X142823985Y-96132047D01*
X142789500Y-96349778D01*
X142789500Y-96570221D01*
X142823985Y-96787952D01*
X142892103Y-96997603D01*
X142892104Y-96997606D01*
X142949078Y-97109421D01*
X142985553Y-97181007D01*
X142992187Y-97194025D01*
X143121752Y-97372358D01*
X143121756Y-97372363D01*
X143277636Y-97528243D01*
X143277641Y-97528247D01*
X143417254Y-97629682D01*
X143459920Y-97685012D01*
X143465899Y-97754625D01*
X143433293Y-97816420D01*
X143417254Y-97830318D01*
X143277641Y-97931752D01*
X143277636Y-97931756D01*
X143121756Y-98087636D01*
X143121752Y-98087641D01*
X142992187Y-98265974D01*
X142892104Y-98462393D01*
X142892103Y-98462396D01*
X142823985Y-98672047D01*
X142789500Y-98889778D01*
X142789500Y-99110221D01*
X142823985Y-99327952D01*
X142892103Y-99537603D01*
X142892104Y-99537606D01*
X142948676Y-99648632D01*
X142977845Y-99705879D01*
X142992187Y-99734025D01*
X143121752Y-99912358D01*
X143121756Y-99912363D01*
X143277636Y-100068243D01*
X143277641Y-100068247D01*
X143417254Y-100169682D01*
X143459920Y-100225012D01*
X143465899Y-100294625D01*
X143433293Y-100356420D01*
X143417254Y-100370318D01*
X143277641Y-100471752D01*
X143277636Y-100471756D01*
X143121756Y-100627636D01*
X143121752Y-100627641D01*
X142992187Y-100805974D01*
X142892104Y-101002393D01*
X142892103Y-101002396D01*
X142823985Y-101212047D01*
X142789500Y-101429778D01*
X142789500Y-101650221D01*
X142823985Y-101867952D01*
X142892103Y-102077603D01*
X142892104Y-102077606D01*
X142992187Y-102274025D01*
X143121752Y-102452358D01*
X143121756Y-102452363D01*
X143277636Y-102608243D01*
X143277641Y-102608247D01*
X143417254Y-102709682D01*
X143459920Y-102765012D01*
X143465899Y-102834625D01*
X143433293Y-102896420D01*
X143417254Y-102910318D01*
X143277641Y-103011752D01*
X143277636Y-103011756D01*
X143121756Y-103167636D01*
X143121752Y-103167641D01*
X142992187Y-103345974D01*
X142892104Y-103542393D01*
X142892103Y-103542396D01*
X142823985Y-103752047D01*
X142789500Y-103969778D01*
X142789500Y-104190221D01*
X142823985Y-104407952D01*
X142892103Y-104617603D01*
X142892104Y-104617606D01*
X142992187Y-104814025D01*
X143121752Y-104992358D01*
X143121756Y-104992363D01*
X143277636Y-105148243D01*
X143277641Y-105148247D01*
X143417254Y-105249682D01*
X143459920Y-105305012D01*
X143465899Y-105374625D01*
X143433293Y-105436420D01*
X143417254Y-105450318D01*
X143277641Y-105551752D01*
X143277636Y-105551756D01*
X143121756Y-105707636D01*
X143121752Y-105707641D01*
X142992187Y-105885974D01*
X142892104Y-106082393D01*
X142892103Y-106082396D01*
X142823985Y-106292047D01*
X142789500Y-106509778D01*
X142789500Y-106730221D01*
X142823985Y-106947952D01*
X142892103Y-107157603D01*
X142892104Y-107157606D01*
X142992187Y-107354025D01*
X143121752Y-107532358D01*
X143121756Y-107532363D01*
X143277636Y-107688243D01*
X143277641Y-107688247D01*
X143417680Y-107789991D01*
X143460346Y-107845320D01*
X143466325Y-107914934D01*
X143433720Y-107976729D01*
X143417681Y-107990627D01*
X143277959Y-108092142D01*
X143277958Y-108092142D01*
X143122142Y-108247958D01*
X142992613Y-108426239D01*
X142892567Y-108622589D01*
X142824473Y-108832161D01*
X142824473Y-108832164D01*
X142812145Y-108910000D01*
X143814722Y-108910000D01*
X143770667Y-108986306D01*
X143740000Y-109100756D01*
X143740000Y-109219244D01*
X143770667Y-109333694D01*
X143814722Y-109410000D01*
X142812145Y-109410000D01*
X142824473Y-109487835D01*
X142824473Y-109487838D01*
X142892567Y-109697410D01*
X142992613Y-109893760D01*
X143122142Y-110072041D01*
X143277958Y-110227857D01*
X143456239Y-110357386D01*
X143652589Y-110457432D01*
X143862163Y-110525526D01*
X143939999Y-110537854D01*
X143940000Y-110537854D01*
X143940000Y-109535277D01*
X144016306Y-109579333D01*
X144130756Y-109610000D01*
X144249244Y-109610000D01*
X144363694Y-109579333D01*
X144440000Y-109535277D01*
X144440000Y-110537854D01*
X144517834Y-110525526D01*
X144517837Y-110525526D01*
X144727410Y-110457432D01*
X144923760Y-110357386D01*
X145102041Y-110227857D01*
X145257857Y-110072041D01*
X145387386Y-109893760D01*
X145487432Y-109697410D01*
X145555526Y-109487838D01*
X145555526Y-109487835D01*
X145567855Y-109410000D01*
X144565278Y-109410000D01*
X144609333Y-109333694D01*
X144640000Y-109219244D01*
X144640000Y-109100756D01*
X144609333Y-108986306D01*
X144565278Y-108910000D01*
X145567855Y-108910000D01*
X145555526Y-108832164D01*
X145555526Y-108832161D01*
X145487432Y-108622589D01*
X145387386Y-108426239D01*
X145257857Y-108247958D01*
X145102041Y-108092142D01*
X144962318Y-107990627D01*
X144919653Y-107935297D01*
X144913674Y-107865684D01*
X144946280Y-107803889D01*
X144962313Y-107789994D01*
X145102365Y-107688242D01*
X145258242Y-107532365D01*
X145387815Y-107354022D01*
X145487895Y-107157606D01*
X145556015Y-106947951D01*
X145590500Y-106730222D01*
X145590500Y-106509778D01*
X145556015Y-106292049D01*
X145487895Y-106082394D01*
X145487895Y-106082393D01*
X145453237Y-106014375D01*
X145387815Y-105885978D01*
X145371260Y-105863192D01*
X145258247Y-105707641D01*
X145258243Y-105707636D01*
X145102363Y-105551756D01*
X145102358Y-105551752D01*
X144962745Y-105450318D01*
X144920079Y-105394989D01*
X144914100Y-105325375D01*
X144946705Y-105263580D01*
X144962745Y-105249682D01*
X145102358Y-105148247D01*
X145102356Y-105148247D01*
X145102365Y-105148242D01*
X145258242Y-104992365D01*
X145387815Y-104814022D01*
X145487895Y-104617606D01*
X145556015Y-104407951D01*
X145590500Y-104190222D01*
X145590500Y-103969778D01*
X145556015Y-103752049D01*
X145487895Y-103542394D01*
X145487895Y-103542393D01*
X145416147Y-103401583D01*
X145387815Y-103345978D01*
X145371260Y-103323192D01*
X145258247Y-103167641D01*
X145258243Y-103167636D01*
X145102363Y-103011756D01*
X145102358Y-103011752D01*
X144962745Y-102910318D01*
X144920079Y-102854989D01*
X144914100Y-102785375D01*
X144946705Y-102723580D01*
X144962745Y-102709682D01*
X145102358Y-102608247D01*
X145102356Y-102608247D01*
X145102365Y-102608242D01*
X145258242Y-102452365D01*
X145387815Y-102274022D01*
X145487895Y-102077606D01*
X145556015Y-101867951D01*
X145590500Y-101650222D01*
X145590500Y-101429778D01*
X145556015Y-101212049D01*
X145502672Y-101047873D01*
X145487896Y-101002396D01*
X145487895Y-101002393D01*
X145451521Y-100931007D01*
X145387815Y-100805978D01*
X145297019Y-100681007D01*
X145258247Y-100627641D01*
X145258243Y-100627636D01*
X145102363Y-100471756D01*
X145102358Y-100471752D01*
X144962745Y-100370318D01*
X144920079Y-100314989D01*
X144914100Y-100245375D01*
X144946705Y-100183580D01*
X144962745Y-100169682D01*
X145102358Y-100068247D01*
X145102356Y-100068247D01*
X145102365Y-100068242D01*
X145258242Y-99912365D01*
X145387815Y-99734022D01*
X145487895Y-99537606D01*
X145556015Y-99327951D01*
X145590500Y-99110222D01*
X145590500Y-98889778D01*
X145556015Y-98672049D01*
X145502034Y-98505909D01*
X145487896Y-98462396D01*
X145487895Y-98462393D01*
X145443620Y-98375500D01*
X145387815Y-98265978D01*
X145365916Y-98235837D01*
X145258247Y-98087641D01*
X145258243Y-98087636D01*
X145102363Y-97931756D01*
X145102358Y-97931752D01*
X144962745Y-97830318D01*
X144920079Y-97774989D01*
X144914100Y-97705375D01*
X144946705Y-97643580D01*
X144962745Y-97629682D01*
X145102358Y-97528247D01*
X145102356Y-97528247D01*
X145102365Y-97528242D01*
X145258242Y-97372365D01*
X145387815Y-97194022D01*
X145487895Y-96997606D01*
X145556015Y-96787951D01*
X145590500Y-96570222D01*
X145590500Y-96349778D01*
X145556015Y-96132049D01*
X145514083Y-96002993D01*
X145487896Y-95922396D01*
X145487895Y-95922393D01*
X145397086Y-95744174D01*
X145387815Y-95725978D01*
X145355142Y-95681007D01*
X145258247Y-95547641D01*
X145258243Y-95547636D01*
X145102363Y-95391756D01*
X145102358Y-95391752D01*
X144962745Y-95290318D01*
X144920079Y-95234989D01*
X144914100Y-95165375D01*
X144946705Y-95103580D01*
X144962745Y-95089682D01*
X145102358Y-94988247D01*
X145102356Y-94988247D01*
X145102365Y-94988242D01*
X145258242Y-94832365D01*
X145387815Y-94654022D01*
X145487895Y-94457606D01*
X145556015Y-94247951D01*
X145590500Y-94030222D01*
X145590500Y-93809778D01*
X145556015Y-93592049D01*
X145521955Y-93487221D01*
X145487896Y-93382396D01*
X145487895Y-93382393D01*
X145437425Y-93283343D01*
X145387815Y-93185978D01*
X145342340Y-93123386D01*
X145258247Y-93007641D01*
X145258243Y-93007636D01*
X145102363Y-92851756D01*
X145102358Y-92851752D01*
X144962745Y-92750318D01*
X144920079Y-92694989D01*
X144914100Y-92625375D01*
X144946705Y-92563580D01*
X144962745Y-92549682D01*
X145102358Y-92448247D01*
X145102356Y-92448247D01*
X145102365Y-92448242D01*
X145258242Y-92292365D01*
X145387815Y-92114022D01*
X145487895Y-91917606D01*
X145556015Y-91707951D01*
X145590500Y-91490222D01*
X145590500Y-91269778D01*
X145556015Y-91052049D01*
X145515254Y-90926597D01*
X145487896Y-90842396D01*
X145487895Y-90842393D01*
X145405663Y-90681007D01*
X145387815Y-90645978D01*
X145322591Y-90556204D01*
X145258247Y-90467641D01*
X145258243Y-90467636D01*
X145208071Y-90417464D01*
X145174586Y-90356141D01*
X145179570Y-90286449D01*
X145221442Y-90230516D01*
X145252420Y-90213601D01*
X145332326Y-90183798D01*
X145332326Y-90183797D01*
X145332331Y-90183796D01*
X145447546Y-90097546D01*
X145533796Y-89982331D01*
X145584091Y-89847483D01*
X145590500Y-89787873D01*
X145590499Y-88729778D01*
X150409500Y-88729778D01*
X150409500Y-88950221D01*
X150443985Y-89167952D01*
X150512103Y-89377603D01*
X150512104Y-89377606D01*
X150557618Y-89466930D01*
X150605202Y-89560318D01*
X150612187Y-89574025D01*
X150741752Y-89752358D01*
X150741756Y-89752363D01*
X150897636Y-89908243D01*
X150897641Y-89908247D01*
X151037254Y-90009682D01*
X151079920Y-90065012D01*
X151085899Y-90134625D01*
X151053293Y-90196420D01*
X151037254Y-90210318D01*
X150897641Y-90311752D01*
X150897636Y-90311756D01*
X150741756Y-90467636D01*
X150741752Y-90467641D01*
X150612187Y-90645974D01*
X150512104Y-90842393D01*
X150512103Y-90842396D01*
X150443985Y-91052047D01*
X150409500Y-91269778D01*
X150409500Y-91490221D01*
X150443985Y-91707952D01*
X150512103Y-91917603D01*
X150512104Y-91917606D01*
X150554087Y-92000000D01*
X150605202Y-92100318D01*
X150612187Y-92114025D01*
X150741752Y-92292358D01*
X150741756Y-92292363D01*
X150897636Y-92448243D01*
X150897641Y-92448247D01*
X151037254Y-92549682D01*
X151079920Y-92605012D01*
X151085899Y-92674625D01*
X151053293Y-92736420D01*
X151037254Y-92750318D01*
X150897641Y-92851752D01*
X150897636Y-92851756D01*
X150741756Y-93007636D01*
X150741752Y-93007641D01*
X150612187Y-93185974D01*
X150512104Y-93382393D01*
X150512103Y-93382396D01*
X150443985Y-93592047D01*
X150409500Y-93809778D01*
X150409500Y-94030221D01*
X150443985Y-94247952D01*
X150512103Y-94457603D01*
X150512104Y-94457606D01*
X150571666Y-94574500D01*
X150605359Y-94640626D01*
X150612187Y-94654025D01*
X150741752Y-94832358D01*
X150741756Y-94832363D01*
X150897636Y-94988243D01*
X150897641Y-94988247D01*
X151037254Y-95089682D01*
X151079920Y-95145012D01*
X151085899Y-95214625D01*
X151053293Y-95276420D01*
X151037254Y-95290318D01*
X150897641Y-95391752D01*
X150897636Y-95391756D01*
X150741756Y-95547636D01*
X150741752Y-95547641D01*
X150612187Y-95725974D01*
X150512104Y-95922393D01*
X150512103Y-95922396D01*
X150443985Y-96132047D01*
X150409500Y-96349778D01*
X150409500Y-96570221D01*
X150443985Y-96787952D01*
X150512103Y-96997603D01*
X150512104Y-96997606D01*
X150569078Y-97109421D01*
X150605553Y-97181007D01*
X150612187Y-97194025D01*
X150741752Y-97372358D01*
X150741756Y-97372363D01*
X150897636Y-97528243D01*
X150897641Y-97528247D01*
X151037254Y-97629682D01*
X151079920Y-97685012D01*
X151085899Y-97754625D01*
X151053293Y-97816420D01*
X151037254Y-97830318D01*
X150897641Y-97931752D01*
X150897636Y-97931756D01*
X150741756Y-98087636D01*
X150741752Y-98087641D01*
X150612187Y-98265974D01*
X150512104Y-98462393D01*
X150512103Y-98462396D01*
X150443985Y-98672047D01*
X150409500Y-98889778D01*
X150409500Y-99110221D01*
X150443985Y-99327952D01*
X150512103Y-99537603D01*
X150512104Y-99537606D01*
X150568676Y-99648632D01*
X150597845Y-99705879D01*
X150612187Y-99734025D01*
X150741752Y-99912358D01*
X150741756Y-99912363D01*
X150897636Y-100068243D01*
X150897641Y-100068247D01*
X151037254Y-100169682D01*
X151079920Y-100225012D01*
X151085899Y-100294625D01*
X151053293Y-100356420D01*
X151037254Y-100370318D01*
X150897641Y-100471752D01*
X150897636Y-100471756D01*
X150741756Y-100627636D01*
X150741752Y-100627641D01*
X150612187Y-100805974D01*
X150512104Y-101002393D01*
X150512103Y-101002396D01*
X150443985Y-101212047D01*
X150409500Y-101429778D01*
X150409500Y-101650221D01*
X150443985Y-101867952D01*
X150512103Y-102077603D01*
X150512104Y-102077606D01*
X150612187Y-102274025D01*
X150741752Y-102452358D01*
X150741756Y-102452363D01*
X150897636Y-102608243D01*
X150897641Y-102608247D01*
X151037254Y-102709682D01*
X151079920Y-102765012D01*
X151085899Y-102834625D01*
X151053293Y-102896420D01*
X151037254Y-102910318D01*
X150897641Y-103011752D01*
X150897636Y-103011756D01*
X150741756Y-103167636D01*
X150741752Y-103167641D01*
X150612187Y-103345974D01*
X150512104Y-103542393D01*
X150512103Y-103542396D01*
X150443985Y-103752047D01*
X150409500Y-103969778D01*
X150409500Y-104190221D01*
X150443985Y-104407952D01*
X150512103Y-104617603D01*
X150512104Y-104617606D01*
X150612187Y-104814025D01*
X150741752Y-104992358D01*
X150741756Y-104992363D01*
X150897636Y-105148243D01*
X150897641Y-105148247D01*
X151037254Y-105249682D01*
X151079920Y-105305012D01*
X151085899Y-105374625D01*
X151053293Y-105436420D01*
X151037254Y-105450318D01*
X150897641Y-105551752D01*
X150897636Y-105551756D01*
X150741756Y-105707636D01*
X150741752Y-105707641D01*
X150612187Y-105885974D01*
X150512104Y-106082393D01*
X150512103Y-106082396D01*
X150443985Y-106292047D01*
X150409500Y-106509778D01*
X150409500Y-106730221D01*
X150443985Y-106947952D01*
X150512103Y-107157603D01*
X150512104Y-107157606D01*
X150612187Y-107354025D01*
X150741752Y-107532358D01*
X150741756Y-107532363D01*
X150897636Y-107688243D01*
X150897641Y-107688247D01*
X151037254Y-107789682D01*
X151079920Y-107845012D01*
X151085899Y-107914625D01*
X151053293Y-107976420D01*
X151037254Y-107990318D01*
X150897641Y-108091752D01*
X150897636Y-108091756D01*
X150741756Y-108247636D01*
X150741752Y-108247641D01*
X150612187Y-108425974D01*
X150512104Y-108622393D01*
X150512103Y-108622396D01*
X150443985Y-108832047D01*
X150409500Y-109049778D01*
X150409500Y-109270221D01*
X150443985Y-109487952D01*
X150512103Y-109697603D01*
X150512104Y-109697606D01*
X150580122Y-109831096D01*
X150606009Y-109881902D01*
X150612187Y-109894025D01*
X150741752Y-110072358D01*
X150741756Y-110072363D01*
X150897636Y-110228243D01*
X150897641Y-110228247D01*
X151053192Y-110341260D01*
X151075978Y-110357815D01*
X151204375Y-110423237D01*
X151272393Y-110457895D01*
X151272396Y-110457896D01*
X151377221Y-110491955D01*
X151482049Y-110526015D01*
X151699778Y-110560500D01*
X151699779Y-110560500D01*
X151920221Y-110560500D01*
X151920222Y-110560500D01*
X152137951Y-110526015D01*
X152347606Y-110457895D01*
X152544022Y-110357815D01*
X152722365Y-110228242D01*
X152878242Y-110072365D01*
X153007815Y-109894022D01*
X153107895Y-109697606D01*
X153176015Y-109487951D01*
X153210500Y-109270222D01*
X153210500Y-109049778D01*
X153176015Y-108832049D01*
X153141955Y-108727221D01*
X153107896Y-108622396D01*
X153107895Y-108622393D01*
X153060518Y-108529412D01*
X153007815Y-108425978D01*
X152878477Y-108247958D01*
X152878247Y-108247641D01*
X152878243Y-108247636D01*
X152722363Y-108091756D01*
X152722358Y-108091752D01*
X152582745Y-107990318D01*
X152540079Y-107934989D01*
X152534100Y-107865375D01*
X152566705Y-107803580D01*
X152582745Y-107789682D01*
X152722358Y-107688247D01*
X152722356Y-107688247D01*
X152722365Y-107688242D01*
X152878242Y-107532365D01*
X153007815Y-107354022D01*
X153107895Y-107157606D01*
X153176015Y-106947951D01*
X153210500Y-106730222D01*
X153210500Y-106509778D01*
X153176015Y-106292049D01*
X153107895Y-106082394D01*
X153107895Y-106082393D01*
X153073237Y-106014375D01*
X153007815Y-105885978D01*
X152991260Y-105863192D01*
X152878247Y-105707641D01*
X152878243Y-105707636D01*
X152722363Y-105551756D01*
X152722358Y-105551752D01*
X152582745Y-105450318D01*
X152540079Y-105394989D01*
X152534100Y-105325375D01*
X152566705Y-105263580D01*
X152582745Y-105249682D01*
X152722358Y-105148247D01*
X152722356Y-105148247D01*
X152722365Y-105148242D01*
X152878242Y-104992365D01*
X153007815Y-104814022D01*
X153107895Y-104617606D01*
X153176015Y-104407951D01*
X153210500Y-104190222D01*
X153210500Y-103969778D01*
X153176015Y-103752049D01*
X153107895Y-103542394D01*
X153107895Y-103542393D01*
X153036147Y-103401583D01*
X153007815Y-103345978D01*
X152991260Y-103323192D01*
X152878247Y-103167641D01*
X152878243Y-103167636D01*
X152722363Y-103011756D01*
X152722358Y-103011752D01*
X152582745Y-102910318D01*
X152540079Y-102854989D01*
X152534100Y-102785375D01*
X152566705Y-102723580D01*
X152582745Y-102709682D01*
X152722358Y-102608247D01*
X152722356Y-102608247D01*
X152722365Y-102608242D01*
X152878242Y-102452365D01*
X153007815Y-102274022D01*
X153107895Y-102077606D01*
X153176015Y-101867951D01*
X153210500Y-101650222D01*
X153210500Y-101429778D01*
X153176015Y-101212049D01*
X153122672Y-101047873D01*
X153107896Y-101002396D01*
X153107895Y-101002393D01*
X153071521Y-100931007D01*
X153007815Y-100805978D01*
X152917019Y-100681007D01*
X152878247Y-100627641D01*
X152878243Y-100627636D01*
X152722363Y-100471756D01*
X152722358Y-100471752D01*
X152582745Y-100370318D01*
X152540079Y-100314989D01*
X152534100Y-100245375D01*
X152566705Y-100183580D01*
X152582745Y-100169682D01*
X152722358Y-100068247D01*
X152722356Y-100068247D01*
X152722365Y-100068242D01*
X152878242Y-99912365D01*
X153007815Y-99734022D01*
X153107895Y-99537606D01*
X153176015Y-99327951D01*
X153210500Y-99110222D01*
X153210500Y-98889778D01*
X153176015Y-98672049D01*
X153122034Y-98505909D01*
X153107896Y-98462396D01*
X153107895Y-98462393D01*
X153063620Y-98375500D01*
X153007815Y-98265978D01*
X152985916Y-98235837D01*
X152878247Y-98087641D01*
X152878243Y-98087636D01*
X152722363Y-97931756D01*
X152722358Y-97931752D01*
X152582745Y-97830318D01*
X152540079Y-97774989D01*
X152534100Y-97705375D01*
X152566705Y-97643580D01*
X152582745Y-97629682D01*
X152722358Y-97528247D01*
X152722356Y-97528247D01*
X152722365Y-97528242D01*
X152878242Y-97372365D01*
X153007815Y-97194022D01*
X153107895Y-96997606D01*
X153176015Y-96787951D01*
X153210500Y-96570222D01*
X153210500Y-96349778D01*
X153176015Y-96132049D01*
X153134083Y-96002993D01*
X153107896Y-95922396D01*
X153107895Y-95922393D01*
X153017086Y-95744174D01*
X153007815Y-95725978D01*
X152975142Y-95681007D01*
X152878247Y-95547641D01*
X152878243Y-95547636D01*
X152722363Y-95391756D01*
X152722358Y-95391752D01*
X152582745Y-95290318D01*
X152540079Y-95234989D01*
X152534100Y-95165375D01*
X152566705Y-95103580D01*
X152582745Y-95089682D01*
X152722358Y-94988247D01*
X152722356Y-94988247D01*
X152722365Y-94988242D01*
X152878242Y-94832365D01*
X153007815Y-94654022D01*
X153107895Y-94457606D01*
X153176015Y-94247951D01*
X153210500Y-94030222D01*
X153210500Y-93809778D01*
X153176015Y-93592049D01*
X153141955Y-93487221D01*
X153107896Y-93382396D01*
X153107895Y-93382393D01*
X153057425Y-93283343D01*
X153007815Y-93185978D01*
X152962340Y-93123386D01*
X152878247Y-93007641D01*
X152878243Y-93007636D01*
X152722363Y-92851756D01*
X152722358Y-92851752D01*
X152582745Y-92750318D01*
X152540079Y-92694989D01*
X152534100Y-92625375D01*
X152566705Y-92563580D01*
X152582745Y-92549682D01*
X152722358Y-92448247D01*
X152722356Y-92448247D01*
X152722365Y-92448242D01*
X152878242Y-92292365D01*
X153007815Y-92114022D01*
X153107895Y-91917606D01*
X153176015Y-91707951D01*
X153210500Y-91490222D01*
X153210500Y-91269778D01*
X153176015Y-91052049D01*
X153135254Y-90926597D01*
X153107896Y-90842396D01*
X153107895Y-90842393D01*
X153025663Y-90681007D01*
X153007815Y-90645978D01*
X152942591Y-90556204D01*
X152878247Y-90467641D01*
X152878243Y-90467636D01*
X152722363Y-90311756D01*
X152722358Y-90311752D01*
X152602703Y-90224818D01*
X152560037Y-90169488D01*
X152554058Y-90099875D01*
X152586663Y-90038080D01*
X152647502Y-90003723D01*
X152675588Y-90000500D01*
X152901583Y-90000500D01*
X153401583Y-90000500D01*
X153901583Y-90000500D01*
X154401583Y-90000500D01*
X154901583Y-90000500D01*
X155401583Y-90000500D01*
X155901583Y-90000500D01*
X156401583Y-90000500D01*
X156901583Y-90000500D01*
X157401583Y-90000500D01*
X157625500Y-90000500D01*
X157692539Y-90020185D01*
X157738294Y-90072989D01*
X157749500Y-90124500D01*
X157749500Y-108443408D01*
X157729815Y-108510447D01*
X157684935Y-108552236D01*
X157677672Y-108556202D01*
X157677669Y-108556203D01*
X157677669Y-108556204D01*
X157562454Y-108642454D01*
X157562453Y-108642455D01*
X157562452Y-108642456D01*
X157476206Y-108757664D01*
X157476202Y-108757671D01*
X157425908Y-108892517D01*
X157419730Y-108949986D01*
X157419501Y-108952123D01*
X157419500Y-108952135D01*
X157419500Y-111047870D01*
X157419501Y-111047876D01*
X157425908Y-111107483D01*
X157476202Y-111242328D01*
X157476206Y-111242335D01*
X157562452Y-111357544D01*
X157562455Y-111357547D01*
X157677664Y-111443793D01*
X157677671Y-111443797D01*
X157812517Y-111494091D01*
X157812516Y-111494091D01*
X157819444Y-111494835D01*
X157872127Y-111500500D01*
X159967872Y-111500499D01*
X160027483Y-111494091D01*
X160162331Y-111443796D01*
X160277546Y-111357546D01*
X160363796Y-111242331D01*
X160414091Y-111107483D01*
X160420500Y-111047873D01*
X160420499Y-108952128D01*
X160414091Y-108892517D01*
X160413579Y-108887753D01*
X160425986Y-108818994D01*
X160473597Y-108767857D01*
X160536869Y-108750500D01*
X160901583Y-108750500D01*
X161401583Y-108750500D01*
X161901583Y-108750500D01*
X162401583Y-108750500D01*
X162901583Y-108750500D01*
X163401583Y-108750500D01*
X163901583Y-108750500D01*
X164401583Y-108750500D01*
X164901583Y-108750500D01*
X165401583Y-108750500D01*
X165901583Y-108750500D01*
X166401583Y-108750500D01*
X166901583Y-108750500D01*
X167401583Y-108750500D01*
X167901583Y-108750500D01*
X167908111Y-108750500D01*
X167975150Y-108770185D01*
X168020905Y-108822989D01*
X168030849Y-108892147D01*
X168001824Y-108955703D01*
X167995792Y-108962181D01*
X167935485Y-109022487D01*
X167935485Y-109022488D01*
X167935483Y-109022490D01*
X167915657Y-109049778D01*
X167796657Y-109213566D01*
X167689433Y-109424003D01*
X167616446Y-109648631D01*
X167579500Y-109881902D01*
X167579500Y-110118097D01*
X167616446Y-110351368D01*
X167689433Y-110575996D01*
X167762713Y-110719815D01*
X167796657Y-110786433D01*
X167935483Y-110977510D01*
X168102490Y-111144517D01*
X168293567Y-111283343D01*
X168392991Y-111334002D01*
X168504003Y-111390566D01*
X168504005Y-111390566D01*
X168504008Y-111390568D01*
X168624412Y-111429689D01*
X168728631Y-111463553D01*
X168961903Y-111500500D01*
X168961908Y-111500500D01*
X169198097Y-111500500D01*
X169431368Y-111463553D01*
X169655992Y-111390568D01*
X169866433Y-111283343D01*
X170057510Y-111144517D01*
X170224517Y-110977510D01*
X170363343Y-110786433D01*
X170470568Y-110575992D01*
X170543553Y-110351368D01*
X170580500Y-110118097D01*
X170580500Y-109881902D01*
X170543553Y-109648631D01*
X170470566Y-109424003D01*
X170392210Y-109270222D01*
X170363343Y-109213567D01*
X170224517Y-109022490D01*
X170164208Y-108962181D01*
X170130723Y-108900858D01*
X170135707Y-108831166D01*
X170177579Y-108775233D01*
X170243043Y-108750816D01*
X170251889Y-108750500D01*
X170401583Y-108750500D01*
X170901583Y-108750500D01*
X171401583Y-108750500D01*
X171575500Y-108750500D01*
X171642539Y-108770185D01*
X171688294Y-108822989D01*
X171699500Y-108874500D01*
X171699500Y-111347870D01*
X171699501Y-111347876D01*
X171705908Y-111407483D01*
X171756202Y-111542328D01*
X171756206Y-111542335D01*
X171842452Y-111657544D01*
X171842455Y-111657547D01*
X171957664Y-111743793D01*
X171957671Y-111743797D01*
X172092517Y-111794091D01*
X172092516Y-111794091D01*
X172099444Y-111794835D01*
X172152127Y-111800500D01*
X174847872Y-111800499D01*
X174907483Y-111794091D01*
X175042331Y-111743796D01*
X175157546Y-111657546D01*
X175243796Y-111542331D01*
X175294091Y-111407483D01*
X175300500Y-111347873D01*
X175300499Y-108874499D01*
X175320184Y-108807461D01*
X175372987Y-108761706D01*
X175424499Y-108750500D01*
X175901583Y-108750500D01*
X176401583Y-108750500D01*
X176901583Y-108750500D01*
X176937848Y-108750500D01*
X177004887Y-108770185D01*
X177050642Y-108822989D01*
X177060586Y-108892147D01*
X177036224Y-108949986D01*
X176999730Y-108997545D01*
X176881719Y-109201943D01*
X176881714Y-109201954D01*
X176791394Y-109420006D01*
X176730306Y-109647989D01*
X176699501Y-109881979D01*
X176699500Y-109881995D01*
X176699500Y-110118004D01*
X176699501Y-110118020D01*
X176730306Y-110352010D01*
X176791394Y-110579993D01*
X176881714Y-110798045D01*
X176881719Y-110798056D01*
X176930446Y-110882452D01*
X176999727Y-111002450D01*
X176999729Y-111002453D01*
X176999730Y-111002454D01*
X177143406Y-111189697D01*
X177143412Y-111189704D01*
X177310295Y-111356587D01*
X177310302Y-111356593D01*
X177407281Y-111431007D01*
X177497550Y-111500273D01*
X177570397Y-111542331D01*
X177701943Y-111618280D01*
X177701948Y-111618282D01*
X177701951Y-111618284D01*
X177920007Y-111708606D01*
X178147986Y-111769693D01*
X178381989Y-111800500D01*
X178381996Y-111800500D01*
X178618004Y-111800500D01*
X178618011Y-111800500D01*
X178852014Y-111769693D01*
X179079993Y-111708606D01*
X179298049Y-111618284D01*
X179502450Y-111500273D01*
X179689699Y-111356592D01*
X179856592Y-111189699D01*
X180000273Y-111002450D01*
X180118284Y-110798049D01*
X180208606Y-110579993D01*
X180269693Y-110352014D01*
X180300500Y-110118011D01*
X180300500Y-109881989D01*
X180269693Y-109647986D01*
X180208606Y-109420007D01*
X180118284Y-109201951D01*
X180118282Y-109201948D01*
X180118280Y-109201943D01*
X180059859Y-109100756D01*
X180000273Y-108997550D01*
X179926079Y-108900858D01*
X179856593Y-108810302D01*
X179856587Y-108810295D01*
X179786819Y-108740527D01*
X179753334Y-108679204D01*
X179750500Y-108652846D01*
X179750500Y-107401577D01*
X179719709Y-107207173D01*
X179658882Y-107019970D01*
X179611743Y-106927455D01*
X179569524Y-106844595D01*
X179453828Y-106685354D01*
X179314646Y-106546172D01*
X179155405Y-106430476D01*
X178980029Y-106341117D01*
X178792826Y-106280290D01*
X178598422Y-106249500D01*
X178598417Y-106249500D01*
X178098417Y-106249500D01*
X177598417Y-106249500D01*
X177098417Y-106249500D01*
X176598417Y-106249500D01*
X176098417Y-106249500D01*
X175598417Y-106249500D01*
X175098417Y-106249500D01*
X174598417Y-106249500D01*
X174098417Y-106249500D01*
X173598417Y-106249500D01*
X173098417Y-106249500D01*
X172598417Y-106249500D01*
X172098417Y-106249500D01*
X171598417Y-106249500D01*
X171098417Y-106249500D01*
X170598417Y-106249500D01*
X170098417Y-106249500D01*
X169598417Y-106249500D01*
X169098417Y-106249500D01*
X168598417Y-106249500D01*
X168098417Y-106249500D01*
X167598417Y-106249500D01*
X167098417Y-106249500D01*
X166598417Y-106249500D01*
X166098417Y-106249500D01*
X165598417Y-106249500D01*
X165098417Y-106249500D01*
X164598417Y-106249500D01*
X164098417Y-106249500D01*
X163598417Y-106249500D01*
X163098417Y-106249500D01*
X162598417Y-106249500D01*
X162098417Y-106249500D01*
X161598417Y-106249500D01*
X161098417Y-106249500D01*
X160598417Y-106249500D01*
X160374500Y-106249500D01*
X160307461Y-106229815D01*
X160261706Y-106177011D01*
X160250500Y-106125500D01*
X160250500Y-88651577D01*
X160219709Y-88457173D01*
X160169418Y-88302396D01*
X160158884Y-88269975D01*
X160158882Y-88269972D01*
X160158882Y-88269970D01*
X160109581Y-88173211D01*
X160069524Y-88094595D01*
X159953828Y-87935354D01*
X159814646Y-87796172D01*
X159655405Y-87680476D01*
X159480029Y-87591117D01*
X159292826Y-87530290D01*
X159098422Y-87499500D01*
X159098417Y-87499500D01*
X158598417Y-87499500D01*
X158098417Y-87499500D01*
X157598417Y-87499500D01*
X157098417Y-87499500D01*
X156598417Y-87499500D01*
X156098417Y-87499500D01*
X155598417Y-87499500D01*
X155098417Y-87499500D01*
X154598417Y-87499500D01*
X154098417Y-87499500D01*
X153598417Y-87499500D01*
X153098417Y-87499500D01*
X152598417Y-87499500D01*
X152236119Y-87499500D01*
X152197801Y-87493431D01*
X152137952Y-87473985D01*
X152029086Y-87456742D01*
X151920222Y-87439500D01*
X151699778Y-87439500D01*
X151627201Y-87450995D01*
X151482047Y-87473985D01*
X151272396Y-87542103D01*
X151272393Y-87542104D01*
X151075974Y-87642187D01*
X150897641Y-87771752D01*
X150897636Y-87771756D01*
X150741756Y-87927636D01*
X150741752Y-87927641D01*
X150612187Y-88105974D01*
X150512104Y-88302393D01*
X150512103Y-88302396D01*
X150443985Y-88512047D01*
X150409500Y-88729778D01*
X145590499Y-88729778D01*
X145590499Y-87892128D01*
X145584661Y-87837819D01*
X145584091Y-87832516D01*
X145533797Y-87697671D01*
X145533793Y-87697664D01*
X145447547Y-87582455D01*
X145447544Y-87582452D01*
X145332335Y-87496206D01*
X145332328Y-87496202D01*
X145197482Y-87445908D01*
X145197483Y-87445908D01*
X145137883Y-87439501D01*
X145137881Y-87439500D01*
X145137873Y-87439500D01*
X145137864Y-87439500D01*
X143242129Y-87439500D01*
X143242123Y-87439501D01*
X143182516Y-87445908D01*
X143047671Y-87496202D01*
X143047664Y-87496206D01*
X142932455Y-87582452D01*
X142932452Y-87582455D01*
X142846206Y-87697664D01*
X142846202Y-87697671D01*
X142795908Y-87832517D01*
X142790678Y-87881166D01*
X142789501Y-87892123D01*
X142789500Y-87892135D01*
X142789500Y-87925500D01*
X142769815Y-87992539D01*
X142717011Y-88038294D01*
X142665500Y-88049500D01*
X130806204Y-88049500D01*
X130739165Y-88029815D01*
X130693410Y-87977011D01*
X130683466Y-87907853D01*
X130712491Y-87844297D01*
X130718523Y-87837819D01*
X130760170Y-87796172D01*
X130839414Y-87716928D01*
X130941232Y-87576788D01*
X131019873Y-87422445D01*
X131073402Y-87257701D01*
X131100500Y-87086611D01*
X131100500Y-86913389D01*
X131073402Y-86742299D01*
X131019873Y-86577555D01*
X130941232Y-86423212D01*
X130839414Y-86283072D01*
X130716928Y-86160586D01*
X130576788Y-86058768D01*
X130476564Y-86007702D01*
X130422447Y-85980128D01*
X130422446Y-85980127D01*
X130422445Y-85980127D01*
X130257701Y-85926598D01*
X130257699Y-85926597D01*
X130257698Y-85926597D01*
X130126271Y-85905781D01*
X130086611Y-85899500D01*
X129913389Y-85899500D01*
X129873728Y-85905781D01*
X129742302Y-85926597D01*
X129577552Y-85980128D01*
X129423211Y-86058768D01*
X129343256Y-86116859D01*
X129283072Y-86160586D01*
X129283070Y-86160588D01*
X129283069Y-86160588D01*
X129280477Y-86163181D01*
X129219154Y-86196666D01*
X129192796Y-86199500D01*
X125431754Y-86199500D01*
X125364715Y-86179815D01*
X125318960Y-86127011D01*
X125309016Y-86057853D01*
X125313823Y-86037183D01*
X125317150Y-86026941D01*
X125323402Y-86007701D01*
X125350500Y-85836611D01*
X125350500Y-85663389D01*
X125323402Y-85492299D01*
X125269873Y-85327555D01*
X125191232Y-85173212D01*
X125089414Y-85033072D01*
X124966928Y-84910586D01*
X124826788Y-84808768D01*
X124672445Y-84730127D01*
X124507701Y-84676598D01*
X124507699Y-84676597D01*
X124507698Y-84676597D01*
X124376271Y-84655781D01*
X124336611Y-84649500D01*
X124163389Y-84649500D01*
X124123728Y-84655781D01*
X123992302Y-84676597D01*
X123827552Y-84730128D01*
X123673211Y-84808768D01*
X123533073Y-84910585D01*
X123430476Y-85013182D01*
X123369153Y-85046666D01*
X123342795Y-85049500D01*
X114681005Y-85049500D01*
X114545677Y-85076418D01*
X114545667Y-85076421D01*
X114418195Y-85129221D01*
X114418182Y-85129228D01*
X114303458Y-85205885D01*
X114303454Y-85205888D01*
X114205888Y-85303454D01*
X114205885Y-85303458D01*
X114129228Y-85418182D01*
X114129221Y-85418195D01*
X114076421Y-85545667D01*
X114076418Y-85545677D01*
X114049500Y-85681004D01*
X114049500Y-88592795D01*
X114029815Y-88659834D01*
X114013182Y-88680476D01*
X113910585Y-88783073D01*
X113808768Y-88923211D01*
X113730128Y-89077552D01*
X113676597Y-89242302D01*
X113663216Y-89326788D01*
X113649500Y-89413389D01*
X113649500Y-89586611D01*
X113676598Y-89757701D01*
X113718670Y-89887184D01*
X113720665Y-89957022D01*
X113684585Y-90016855D01*
X113621884Y-90047684D01*
X113600739Y-90049500D01*
X113357190Y-90049500D01*
X113290151Y-90029815D01*
X113246706Y-89981795D01*
X113240582Y-89969776D01*
X113191036Y-89901583D01*
X113106379Y-89785063D01*
X112944937Y-89623621D01*
X112857807Y-89560317D01*
X112815143Y-89504988D01*
X112809164Y-89435374D01*
X112841770Y-89373579D01*
X112857804Y-89359684D01*
X112944937Y-89296379D01*
X113106379Y-89134937D01*
X113240579Y-88950228D01*
X113344231Y-88746799D01*
X113414784Y-88529660D01*
X113420701Y-88492302D01*
X113450500Y-88304162D01*
X113450500Y-88075837D01*
X113414784Y-87850339D01*
X113371436Y-87716928D01*
X113344231Y-87633201D01*
X113344229Y-87633198D01*
X113344229Y-87633196D01*
X113273015Y-87493431D01*
X113240579Y-87429772D01*
X113106379Y-87245063D01*
X113106378Y-87245062D01*
X113105581Y-87243965D01*
X113082101Y-87178159D01*
X113097926Y-87110105D01*
X113148032Y-87061410D01*
X113162562Y-87054898D01*
X113192331Y-87043796D01*
X113307546Y-86957546D01*
X113393796Y-86842331D01*
X113444091Y-86707483D01*
X113450500Y-86647873D01*
X113450499Y-84652128D01*
X113444091Y-84592517D01*
X113393796Y-84457669D01*
X113393795Y-84457668D01*
X113393793Y-84457664D01*
X113307547Y-84342455D01*
X113307544Y-84342452D01*
X113192335Y-84256206D01*
X113192328Y-84256202D01*
X113057482Y-84205908D01*
X113057483Y-84205908D01*
X112997883Y-84199501D01*
X112997881Y-84199500D01*
X112997873Y-84199500D01*
X112997864Y-84199500D01*
X111002129Y-84199500D01*
X111002123Y-84199501D01*
X110942516Y-84205908D01*
X110807671Y-84256202D01*
X110807664Y-84256206D01*
X110692455Y-84342452D01*
X110692452Y-84342455D01*
X110606206Y-84457664D01*
X110606202Y-84457671D01*
X110555908Y-84592517D01*
X110549782Y-84649500D01*
X110549501Y-84652123D01*
X110549500Y-84652135D01*
X110549500Y-84925500D01*
X110529815Y-84992539D01*
X110477011Y-85038294D01*
X110436881Y-85047023D01*
X110437067Y-85048903D01*
X110431004Y-85049499D01*
X110295677Y-85076418D01*
X110295667Y-85076421D01*
X110168195Y-85129221D01*
X110168182Y-85129228D01*
X110053458Y-85205885D01*
X110053454Y-85205888D01*
X109955888Y-85303454D01*
X109955885Y-85303458D01*
X109879228Y-85418182D01*
X109879221Y-85418195D01*
X109826421Y-85545667D01*
X109826418Y-85545677D01*
X109799500Y-85681004D01*
X109799500Y-85681007D01*
X109799500Y-86181007D01*
X109799500Y-86681007D01*
X109799500Y-87181007D01*
X109799500Y-87681007D01*
X109799500Y-88181007D01*
X109799500Y-88681007D01*
X109799500Y-89181007D01*
X109799500Y-89681007D01*
X109799500Y-90181007D01*
X109799500Y-90681007D01*
X109799500Y-91181007D01*
X109799500Y-91681007D01*
X109799500Y-92181007D01*
X109799500Y-92681007D01*
X109799500Y-93181007D01*
X109799500Y-93681007D01*
X109799500Y-94181007D01*
X109799500Y-94681007D01*
X109799500Y-95181007D01*
X109799500Y-95681007D01*
X109799500Y-96181007D01*
X109799500Y-96681007D01*
X109799500Y-97181007D01*
X109799500Y-97681007D01*
X109799500Y-98181007D01*
X109799500Y-98681007D01*
X109799500Y-99181007D01*
X109799500Y-99681007D01*
X109799500Y-100181007D01*
X109799500Y-100681007D01*
X109799500Y-101181007D01*
X109799500Y-101681007D01*
X109799500Y-102181007D01*
X109799500Y-102681007D01*
X109799500Y-103181007D01*
X109799500Y-103681007D01*
X109799500Y-104181007D01*
X109799500Y-104681007D01*
X109799500Y-105181007D01*
X109799500Y-105681007D01*
X109799500Y-106181007D01*
X109799500Y-106681007D01*
X109799500Y-107181007D01*
X109799500Y-107681007D01*
X109799500Y-108181007D01*
X109799500Y-108681007D01*
X109799500Y-109181007D01*
X109799500Y-109681007D01*
X109799500Y-110181007D01*
X109799500Y-110681007D01*
X109799500Y-111181007D01*
X109799500Y-111681007D01*
X109799500Y-112181007D01*
X109799500Y-112681007D01*
X109799500Y-113181007D01*
X109799500Y-113681007D01*
X109799500Y-114181007D01*
X109799500Y-114681007D01*
X109799500Y-115181007D01*
X109799500Y-115681007D01*
X109799500Y-116181007D01*
X109799500Y-116681007D01*
X109799500Y-117318993D01*
X109799500Y-117318995D01*
X109799499Y-117318995D01*
X100500500Y-117318995D01*
X100500500Y-81889778D01*
X144059500Y-81889778D01*
X144059500Y-82110221D01*
X144093985Y-82327952D01*
X144162103Y-82537603D01*
X144162104Y-82537606D01*
X144262187Y-82734025D01*
X144391752Y-82912358D01*
X144391756Y-82912363D01*
X144547636Y-83068243D01*
X144547641Y-83068247D01*
X144703192Y-83181260D01*
X144725978Y-83197815D01*
X144813339Y-83242328D01*
X144922393Y-83297895D01*
X144922396Y-83297896D01*
X145027221Y-83331955D01*
X145132049Y-83366015D01*
X145349778Y-83400500D01*
X145349779Y-83400500D01*
X145570221Y-83400500D01*
X145570222Y-83400500D01*
X145787951Y-83366015D01*
X145997606Y-83297895D01*
X146194022Y-83197815D01*
X146372365Y-83068242D01*
X146528242Y-82912365D01*
X146657815Y-82734022D01*
X146757895Y-82537606D01*
X146826015Y-82327951D01*
X146860500Y-82110222D01*
X146860500Y-81889778D01*
X146838361Y-81750000D01*
X149162145Y-81750000D01*
X150224314Y-81750000D01*
X150219920Y-81754394D01*
X150167259Y-81845606D01*
X150140000Y-81947339D01*
X150140000Y-82052661D01*
X150167259Y-82154394D01*
X150219920Y-82245606D01*
X150224314Y-82250000D01*
X149162145Y-82250000D01*
X149174473Y-82327835D01*
X149174473Y-82327838D01*
X149242567Y-82537410D01*
X149342613Y-82733760D01*
X149472142Y-82912041D01*
X149627958Y-83067857D01*
X149806239Y-83197386D01*
X150002589Y-83297432D01*
X150212163Y-83365526D01*
X150289999Y-83377854D01*
X150290000Y-83377854D01*
X150290000Y-82315686D01*
X150294394Y-82320080D01*
X150385606Y-82372741D01*
X150487339Y-82400000D01*
X150592661Y-82400000D01*
X150694394Y-82372741D01*
X150785606Y-82320080D01*
X150790000Y-82315686D01*
X150790000Y-83377854D01*
X150867834Y-83365526D01*
X150867837Y-83365526D01*
X151077410Y-83297432D01*
X151273760Y-83197386D01*
X151452041Y-83067857D01*
X151607857Y-82912041D01*
X151737386Y-82733760D01*
X151837432Y-82537410D01*
X151905526Y-82327838D01*
X151905526Y-82327835D01*
X151917855Y-82250000D01*
X150855686Y-82250000D01*
X150860080Y-82245606D01*
X150912741Y-82154394D01*
X150940000Y-82052661D01*
X150940000Y-81947339D01*
X150912741Y-81845606D01*
X150860080Y-81754394D01*
X150855686Y-81750000D01*
X151917855Y-81750000D01*
X151905526Y-81672164D01*
X151905526Y-81672161D01*
X151837432Y-81462589D01*
X151737386Y-81266239D01*
X151607857Y-81087958D01*
X151472034Y-80952135D01*
X152749500Y-80952135D01*
X152749500Y-83047870D01*
X152749501Y-83047876D01*
X152755908Y-83107483D01*
X152806202Y-83242328D01*
X152806206Y-83242335D01*
X152892452Y-83357544D01*
X152892455Y-83357547D01*
X153007664Y-83443793D01*
X153007671Y-83443797D01*
X153142517Y-83494091D01*
X153142516Y-83494091D01*
X153149444Y-83494835D01*
X153202127Y-83500500D01*
X155297872Y-83500499D01*
X155357483Y-83494091D01*
X155492331Y-83443796D01*
X155607546Y-83357546D01*
X155693796Y-83242331D01*
X155744091Y-83107483D01*
X155750500Y-83047873D01*
X155750499Y-81750000D01*
X156270898Y-81750000D01*
X157374722Y-81750000D01*
X157330667Y-81826306D01*
X157300000Y-81940756D01*
X157300000Y-82059244D01*
X157330667Y-82173694D01*
X157374722Y-82250000D01*
X156270898Y-82250000D01*
X156286934Y-82351247D01*
X156359897Y-82575802D01*
X156467085Y-82786171D01*
X156605866Y-82977186D01*
X156772813Y-83144133D01*
X156963828Y-83282914D01*
X157174195Y-83390102D01*
X157398744Y-83463063D01*
X157398750Y-83463065D01*
X157500000Y-83479101D01*
X157500000Y-82375277D01*
X157576306Y-82419333D01*
X157690756Y-82450000D01*
X157809244Y-82450000D01*
X157923694Y-82419333D01*
X158000000Y-82375277D01*
X158000000Y-83479100D01*
X158101249Y-83463065D01*
X158101255Y-83463063D01*
X158325804Y-83390102D01*
X158536171Y-83282914D01*
X158727186Y-83144133D01*
X158894133Y-82977186D01*
X159032914Y-82786171D01*
X159140102Y-82575802D01*
X159213065Y-82351247D01*
X159229102Y-82250000D01*
X158125278Y-82250000D01*
X158169333Y-82173694D01*
X158200000Y-82059244D01*
X158200000Y-81940756D01*
X158169333Y-81826306D01*
X158125278Y-81750000D01*
X159229102Y-81750000D01*
X159213065Y-81648752D01*
X159140102Y-81424197D01*
X159032914Y-81213828D01*
X158894133Y-81022813D01*
X158727186Y-80855866D01*
X158580269Y-80749124D01*
X158580267Y-80749122D01*
X158536174Y-80717087D01*
X158408699Y-80652135D01*
X161699500Y-80652135D01*
X161699500Y-83347870D01*
X161699501Y-83347876D01*
X161705908Y-83407483D01*
X161756202Y-83542328D01*
X161756206Y-83542335D01*
X161842452Y-83657544D01*
X161842455Y-83657547D01*
X161957664Y-83743793D01*
X161957671Y-83743797D01*
X162092517Y-83794091D01*
X162092516Y-83794091D01*
X162099444Y-83794835D01*
X162152127Y-83800500D01*
X164847872Y-83800499D01*
X164907483Y-83794091D01*
X165042331Y-83743796D01*
X165157546Y-83657546D01*
X165243796Y-83542331D01*
X165294091Y-83407483D01*
X165300500Y-83347873D01*
X165300499Y-81749999D01*
X166717380Y-81749999D01*
X166717381Y-81750000D01*
X167899999Y-81750000D01*
X167874979Y-81810402D01*
X167850000Y-81935981D01*
X167850000Y-82064019D01*
X167874979Y-82189598D01*
X167899999Y-82250000D01*
X166717381Y-82250000D01*
X166730799Y-82351914D01*
X166791870Y-82579837D01*
X166882160Y-82797819D01*
X166882165Y-82797828D01*
X167000144Y-83002171D01*
X167000150Y-83002180D01*
X167143783Y-83189367D01*
X167143789Y-83189374D01*
X167310625Y-83356210D01*
X167310632Y-83356216D01*
X167497819Y-83499849D01*
X167497828Y-83499855D01*
X167702171Y-83617834D01*
X167702180Y-83617839D01*
X167920163Y-83708129D01*
X167920161Y-83708129D01*
X168148086Y-83769201D01*
X168249999Y-83782617D01*
X168250000Y-83782617D01*
X168250000Y-82600001D01*
X168310402Y-82625021D01*
X168435981Y-82650000D01*
X168564019Y-82650000D01*
X168689598Y-82625021D01*
X168750000Y-82600001D01*
X168750000Y-83782617D01*
X168851913Y-83769201D01*
X169079837Y-83708129D01*
X169297819Y-83617839D01*
X169297828Y-83617834D01*
X169502171Y-83499855D01*
X169502180Y-83499849D01*
X169689367Y-83356216D01*
X169689374Y-83356210D01*
X169856210Y-83189374D01*
X169856216Y-83189367D01*
X169999849Y-83002180D01*
X169999855Y-83002171D01*
X170117834Y-82797828D01*
X170117839Y-82797819D01*
X170208129Y-82579837D01*
X170269200Y-82351914D01*
X170282619Y-82250000D01*
X169100001Y-82250000D01*
X169125021Y-82189598D01*
X169150000Y-82064019D01*
X169150000Y-81935981D01*
X169125021Y-81810402D01*
X169100001Y-81750000D01*
X170282619Y-81750000D01*
X170282619Y-81749999D01*
X170269200Y-81648085D01*
X170208129Y-81420162D01*
X170117839Y-81202180D01*
X170117834Y-81202171D01*
X169999855Y-80997828D01*
X169999849Y-80997819D01*
X169856216Y-80810632D01*
X169856210Y-80810625D01*
X169689374Y-80643789D01*
X169689367Y-80643783D01*
X169502180Y-80500150D01*
X169502171Y-80500144D01*
X169297828Y-80382165D01*
X169297819Y-80382160D01*
X169079836Y-80291870D01*
X169079838Y-80291870D01*
X168851914Y-80230799D01*
X168750000Y-80217380D01*
X168750000Y-81399998D01*
X168689598Y-81374979D01*
X168564019Y-81350000D01*
X168435981Y-81350000D01*
X168310402Y-81374979D01*
X168250000Y-81399998D01*
X168250000Y-80217380D01*
X168249999Y-80217380D01*
X168148085Y-80230799D01*
X167920162Y-80291870D01*
X167702180Y-80382160D01*
X167702171Y-80382165D01*
X167497828Y-80500144D01*
X167497819Y-80500150D01*
X167310632Y-80643783D01*
X167310625Y-80643789D01*
X167143789Y-80810625D01*
X167143783Y-80810632D01*
X167000150Y-80997819D01*
X167000144Y-80997828D01*
X166882165Y-81202171D01*
X166882160Y-81202180D01*
X166791870Y-81420162D01*
X166730799Y-81648085D01*
X166717380Y-81749999D01*
X165300499Y-81749999D01*
X165300499Y-80652128D01*
X165294091Y-80592517D01*
X165280546Y-80556202D01*
X165243797Y-80457671D01*
X165243793Y-80457664D01*
X165157547Y-80342455D01*
X165157544Y-80342452D01*
X165042335Y-80256206D01*
X165042328Y-80256202D01*
X164907482Y-80205908D01*
X164907483Y-80205908D01*
X164847883Y-80199501D01*
X164847881Y-80199500D01*
X164847873Y-80199500D01*
X164847864Y-80199500D01*
X162152129Y-80199500D01*
X162152123Y-80199501D01*
X162092516Y-80205908D01*
X161957671Y-80256202D01*
X161957664Y-80256206D01*
X161842455Y-80342452D01*
X161842452Y-80342455D01*
X161756206Y-80457664D01*
X161756202Y-80457671D01*
X161705908Y-80592517D01*
X161701398Y-80634473D01*
X161699501Y-80652123D01*
X161699500Y-80652135D01*
X158408699Y-80652135D01*
X158325802Y-80609897D01*
X158101247Y-80536934D01*
X158000000Y-80520897D01*
X158000000Y-81624722D01*
X157923694Y-81580667D01*
X157809244Y-81550000D01*
X157690756Y-81550000D01*
X157576306Y-81580667D01*
X157500000Y-81624722D01*
X157500000Y-80520897D01*
X157398752Y-80536934D01*
X157174197Y-80609897D01*
X156963828Y-80717085D01*
X156772813Y-80855866D01*
X156605866Y-81022813D01*
X156467085Y-81213828D01*
X156359897Y-81424197D01*
X156286934Y-81648752D01*
X156270898Y-81750000D01*
X155750499Y-81750000D01*
X155750499Y-80952128D01*
X155744091Y-80892517D01*
X155713547Y-80810625D01*
X155693797Y-80757671D01*
X155693793Y-80757664D01*
X155607547Y-80642455D01*
X155607544Y-80642452D01*
X155492335Y-80556206D01*
X155492328Y-80556202D01*
X155357482Y-80505908D01*
X155357483Y-80505908D01*
X155297883Y-80499501D01*
X155297881Y-80499500D01*
X155297873Y-80499500D01*
X155297864Y-80499500D01*
X153202129Y-80499500D01*
X153202123Y-80499501D01*
X153142516Y-80505908D01*
X153007671Y-80556202D01*
X153007664Y-80556206D01*
X152892455Y-80642452D01*
X152892452Y-80642455D01*
X152806206Y-80757664D01*
X152806202Y-80757671D01*
X152755908Y-80892517D01*
X152749501Y-80952116D01*
X152749501Y-80952123D01*
X152749500Y-80952135D01*
X151472034Y-80952135D01*
X151452041Y-80932142D01*
X151273760Y-80802613D01*
X151077410Y-80702567D01*
X150867836Y-80634473D01*
X150790000Y-80622144D01*
X150790000Y-81684314D01*
X150785606Y-81679920D01*
X150694394Y-81627259D01*
X150592661Y-81600000D01*
X150487339Y-81600000D01*
X150385606Y-81627259D01*
X150294394Y-81679920D01*
X150290000Y-81684314D01*
X150290000Y-80622144D01*
X150212164Y-80634473D01*
X150212161Y-80634473D01*
X150002589Y-80702567D01*
X149806239Y-80802613D01*
X149627958Y-80932142D01*
X149472142Y-81087958D01*
X149342613Y-81266239D01*
X149242567Y-81462589D01*
X149174473Y-81672161D01*
X149174473Y-81672164D01*
X149162145Y-81750000D01*
X146838361Y-81750000D01*
X146826015Y-81672049D01*
X146791955Y-81567221D01*
X146757896Y-81462396D01*
X146757895Y-81462393D01*
X146713354Y-81374979D01*
X146657815Y-81265978D01*
X146528477Y-81087958D01*
X146528247Y-81087641D01*
X146528243Y-81087636D01*
X146372363Y-80931756D01*
X146372358Y-80931752D01*
X146194025Y-80802187D01*
X146194024Y-80802186D01*
X146194022Y-80802185D01*
X146131096Y-80770122D01*
X145997606Y-80702104D01*
X145997603Y-80702103D01*
X145787952Y-80633985D01*
X145679086Y-80616742D01*
X145570222Y-80599500D01*
X145349778Y-80599500D01*
X145284134Y-80609897D01*
X145132047Y-80633985D01*
X144922396Y-80702103D01*
X144922393Y-80702104D01*
X144725974Y-80802187D01*
X144547641Y-80931752D01*
X144547636Y-80931756D01*
X144391756Y-81087636D01*
X144391752Y-81087641D01*
X144262187Y-81265974D01*
X144162104Y-81462393D01*
X144162103Y-81462396D01*
X144093985Y-81672047D01*
X144059500Y-81889778D01*
X100500500Y-81889778D01*
X100500500Y-70624500D01*
X100520185Y-70557461D01*
X100572989Y-70511706D01*
X100624500Y-70500500D01*
X189375500Y-70500500D01*
X189442539Y-70520185D01*
G37*
%TD.AperFunction*%
%TD*%
M02*
