%TF.GenerationSoftware,KiCad,Pcbnew,10.0.5*%
%TF.CreationDate,2026-07-30T21:48:50+08:00*%
%TF.ProjectId,board,626f6172-642e-46b6-9963-61645f706362,rev?*%
%TF.SameCoordinates,Original*%
%TF.FileFunction,Soldermask,Top*%
%TF.FilePolarity,Negative*%
%FSLAX46Y46*%
G04 Gerber Fmt 4.6, Leading zero omitted, Abs format (unit mm)*
G04 Created by KiCad (PCBNEW 10.0.5) date 2026-07-30 21:48:50*
%MOMM*%
%LPD*%
G01*
G04 APERTURE LIST*
%ADD10R,1.900000X1.900000*%
%ADD11C,1.900000*%
%ADD12R,2.000000X2.000000*%
%ADD13C,2.000000*%
%ADD14R,2.600000X2.600000*%
%ADD15C,2.600000*%
%ADD16R,1.300000X2.200000*%
%ADD17R,3.000000X2.200000*%
%ADD18C,1.800000*%
%ADD19R,1.800000X1.800000*%
G04 APERTURE END LIST*
D10*
%TO.C,J2*%
X112000000Y-112190000D03*
D11*
X112000000Y-114730000D03*
X112000000Y-117270000D03*
X112000000Y-119810000D03*
%TD*%
D12*
%TO.C,C1*%
X154250000Y-82000000D03*
D13*
X157750000Y-82000000D03*
%TD*%
D14*
%TO.C,D1*%
X159650000Y-122000000D03*
D15*
X172350000Y-122000000D03*
%TD*%
D16*
%TO.C,U1*%
X127700000Y-85150000D03*
X130000000Y-85150000D03*
X132300000Y-85150000D03*
D17*
X130000000Y-78850000D03*
%TD*%
D18*
%TO.C,C3*%
X117460000Y-126000000D03*
X122540000Y-126000000D03*
%TD*%
%TO.C,C2*%
X145460000Y-82000000D03*
X150540000Y-82000000D03*
%TD*%
D12*
%TO.C,D2*%
X158920000Y-110000000D03*
D13*
X169080000Y-110000000D03*
%TD*%
D12*
%TO.C,Q1*%
X147460000Y-122000000D03*
D13*
X150000000Y-122000000D03*
X152540000Y-122000000D03*
%TD*%
D10*
%TO.C,J1*%
X112000000Y-85650000D03*
D11*
X112000000Y-88190000D03*
X112000000Y-90730000D03*
X112000000Y-93270000D03*
X112000000Y-95810000D03*
X112000000Y-98350000D03*
%TD*%
D14*
%TO.C,T2*%
X173500000Y-110000000D03*
D15*
X178500000Y-110000000D03*
%TD*%
D14*
%TO.C,T1*%
X175500000Y-122000000D03*
D15*
X180500000Y-122000000D03*
%TD*%
D14*
%TO.C,T3*%
X163500000Y-82000000D03*
D15*
X168500000Y-82000000D03*
%TD*%
D19*
%TO.C,U2*%
X144190000Y-88840000D03*
D18*
X144190000Y-91380000D03*
X144190000Y-93920000D03*
X144190000Y-96460000D03*
X144190000Y-99000000D03*
X144190000Y-101540000D03*
X144190000Y-104080000D03*
X144190000Y-106620000D03*
X144190000Y-109160000D03*
X151810000Y-109160000D03*
X151810000Y-106620000D03*
X151810000Y-104080000D03*
X151810000Y-101540000D03*
X151810000Y-99000000D03*
X151810000Y-96460000D03*
X151810000Y-93920000D03*
X151810000Y-91380000D03*
X151810000Y-88840000D03*
%TD*%
D12*
%TO.C,R3*%
X128920000Y-118000000D03*
D13*
X139080000Y-118000000D03*
%TD*%
D12*
%TO.C,R2*%
X120920000Y-100000000D03*
D13*
X131080000Y-100000000D03*
%TD*%
D12*
%TO.C,R4*%
X128920000Y-128000000D03*
D13*
X139080000Y-128000000D03*
%TD*%
D12*
%TO.C,R1*%
X120920000Y-92000000D03*
D13*
X131080000Y-92000000D03*
%TD*%
M02*
