M48
; DRILL file KiCad 10.0.5 date 2026-07-30T21:48:51
; FORMAT={-:-/ absolute / metric / decimal}
; #@! TF.CreationDate,2026-07-30T21:48:51+08:00
; #@! TF.GenerationSoftware,Kicad,Pcbnew,10.0.5
; #@! TF.FileFunction,MixedPlating,1,2
FMAT,2
METRIC
; #@! TA.AperFunction,Plated,PTH,ViaDrill
T1C0.600
; #@! TA.AperFunction,Plated,PTH,ComponentDrill
T2C0.800
; #@! TA.AperFunction,Plated,PTH,ComponentDrill
T3C0.900
; #@! TA.AperFunction,Plated,PTH,ComponentDrill
T4C1.000
; #@! TA.AperFunction,Plated,PTH,ComponentDrill
T5C1.300
%
G90
G05
T1
X114.75Y-89.5
X114.75Y-92.5
X122.25Y-93.75
X123.0Y-92.0
X124.25Y-85.75
X124.25Y-88.75
X127.75Y-85.25
X130.0Y-87.0
T2
X117.46Y-126.0
X122.54Y-126.0
X145.46Y-82.0
X150.54Y-82.0
T3
X144.19Y-88.84
X144.19Y-91.38
X144.19Y-93.92
X144.19Y-96.46
X144.19Y-99.0
X144.19Y-101.54
X144.19Y-104.08
X144.19Y-106.62
X144.19Y-109.16
X151.81Y-88.84
X151.81Y-91.38
X151.81Y-93.92
X151.81Y-96.46
X151.81Y-99.0
X151.81Y-101.54
X151.81Y-104.08
X151.81Y-106.62
X151.81Y-109.16
X154.25Y-82.0
X157.75Y-82.0
T4
X112.0Y-85.65
X112.0Y-88.19
X112.0Y-90.73
X112.0Y-93.27
X112.0Y-95.81
X112.0Y-98.35
X112.0Y-112.19
X112.0Y-114.73
X112.0Y-117.27
X112.0Y-119.81
X120.92Y-92.0
X120.92Y-100.0
X128.92Y-118.0
X128.92Y-128.0
X131.08Y-92.0
X131.08Y-100.0
X139.08Y-118.0
X139.08Y-128.0
X147.46Y-122.0
X150.0Y-122.0
X152.54Y-122.0
X158.92Y-110.0
X169.08Y-110.0
T5
X159.65Y-122.0
X163.5Y-82.0
X168.5Y-82.0
X172.35Y-122.0
X173.5Y-110.0
X175.5Y-122.0
X178.5Y-110.0
X180.5Y-122.0
M30
